<svg viewBox="0 0 200 200" xmlns="http://www.w3.org/2000/svg">
<g id="aa" style="fill:#000;fill-rule:evenodd">
<!-- 90% -->
<path d="M57.6 43.4
c-25.5 4.3-44.9 28-44.9 56.5 0 31.5 23.9 57.2 53.3 57.2
s53.3-25.6 53.3-57.2
c0-15.4-5.7-29.3-14.9-39.6
c1.6-1.9 6.3-4.8 6.4-4.6 10 11.6 16.1 27.2 16.1 44.2 0 36-27.3 65.3-60.9 65.3-33.6 0-60.9-29.3-60.9-65.3
s27.3-65.3 60.9-65.3
c1.7 0 5.7.3 5.5.4-4.3 2.3-9.7 5.4-13.9 8.5"/>
<!-- 40% -->
<path d="M60.8 149.8
c-13.4-12-22-29.9-22-50 0-36 27.4-65.2 61.1-65.2 1.5 0 3 .1 4.5.2
a67.6 67.6 0 0 0-13.4 8.6
c-25.4 4.5-44.7 28.1-44.7 56.4 0 21.3 11 40 27.3 49.8
a45.9 45.9 0 0 1-12.7.3z"/>
</g>
<use transform="translate(200,200) rotate(180)" href="#aa"/>
</svg>