<?xml version="1.0" encoding="UTF-8"?>
<svg xmlns="http://www.w3.org/2000/svg" viewBox="0 0 1000 1000">
  <defs>
    <style>
      .cls-1 {
        stroke: #fff;
      }

      .cls-1, .cls-2, .cls-3 {
        fill: none;
      }

      .cls-1, .cls-3 {
        stroke-miterlimit: 10;
        stroke-width: 8px;
      }

      .cls-4 {
        fill: #03422b;
        font-family: LucidaHandwriting-Italic, 'Lucida Handwriting';
        font-size: 77.33px;
        font-style: italic;
      }

      .cls-3 {
        stroke: #000;
        stroke-linecap: round;
      }

      .cls-5 {
        fill: #fff;
        opacity: .51;
      }

      .cls-6 {
        fill: #b0d1c9;
      }

      .cls-7 {
        fill: #8e532b;
      }
    </style>
  </defs>
  <g id="Layer_3" data-name="Layer 3">
    <polygon class="cls-6" points="744.05 252.93 744.05 516.34 130.63 500 137.95 238.29 154.97 238.7 744.05 252.93"/>
    <polygon class="cls-6" points="779.41 217.56 756.35 453.49 752.59 491.95 744.05 490.58 744.05 252.93 154.97 238.7 161.12 163.9 199.41 167.22 779.41 217.56"/>
    <polygon class="cls-6" points="820.88 193.17 774.54 457.8 756.35 453.49 779.41 217.56 199.41 167.22 217.22 83.41 820.88 193.17"/>
    <path class="cls-7" d="M933.07,793.17l-84.69-24.7c-68.24,37.34-205.33,112.61-253.11,140.55-64.64,37.81-86.59,17.08-95.27,15.86-7.44-1.05-182.65-91.51-232.86-117.49-8.85-4.57-17.04-10.3-24.38-17.03l-169.06-155.07c-10.5-9.62-15.92-23.78-13.87-37.87,2.29-15.8,12.67-24.77,28.34-29.25,46.29,34.32,18.93,14.65,131.49,101.83,80.25,62.15,130.55,77.61,156.14,80.76-2.16-13.94,3.93-28.47,13.68-38.79,1.63-1.73,3.36-3.35,5.16-4.89h.01c9.57-8.15,21.33-13.65,33.24-17.89,9.47-3.37,19.19-6.06,28.76-9.14,33.84.33,133.67-2.78,167.89-49.07,41.46-56.1,126.83-117.08,196.34-109.76s76.83,31.71,109.75,45.12c32.93,13.42,46.35,18.29,46.35,18.29,14.36,81.58,5.94,153.68-43.91,208.54Z"/>
    <path class="cls-2" d="M845.27,767.56l3.11.91c24.07-13.18,39.57-21.64,39.57-21.64"/>
    <path class="cls-7" d="M389.48,711.97c-9.75,10.32-15.84,24.85-13.68,38.79-25.59-3.15-75.89-18.61-156.14-80.76-112.56-87.18-85.2-67.51-131.49-101.83.73-.22,1.47-.42,2.22-.61,19.92-25.79,45.12-26.15,73.3-12.22,12.85,10.08,30.69,24.41,96.82,75.64,61.52,47.65,105.45,67.86,134.13,76.1-1.8,1.54-3.53,3.16-5.16,4.89Z"/>
    <path class="cls-7" d="M456.65,680.05c-9.57,3.08-19.29,5.77-28.76,9.14-11.91,4.24-23.67,9.74-33.24,17.89h-.01c-28.68-8.24-72.61-28.45-134.13-76.1-66.13-51.23-83.97-65.56-96.82-75.64,1.57.77,3.16,1.59,4.75,2.46,48.78-45.8,148.78,100,276.83,121.96,0,0,4.21.22,11.38.29Z"/>
    <path class="cls-2" d="M375.8,750.76c.12.81.28,1.62.46,2.43,7.24,31.9,52.9,30.79,78.24,31.93,28.35,1.28,57.07,1.39,85.38-.88,32.51-2.6,65.01-23.4,123.51-36.4s58.5-18.16,58.5-18.16"/>
  </g>
  <g id="Layer_4" data-name="Layer 4">
    <g>
      <path d="M470.83,291.86l3.39-2.11c1.86.15,2.72,3.78,2.92,5.32.35,2.67-.43,5.41-1.98,7.58.55.53.5.14.79,0,2.05-.94,4.23-2.72,5.93-.26.52.75,1.1,4.61,1,5.59-.21,2.19-1.42,4.47-2.48,6.37,1.02-.11,2.14-1.26,3.11-.25s1.06,6.57.21,7.94c4.3-.61,5.62,4.23,4.67,7.68-.45,1.64-1.68,2.93-2.22,4.5,5.48.65,5.38,7.27,1.75,10.34,5.23,2.46,3.88,10.7-.93,13.05,4.74,2.29,5.36,10.55,1.24,13.62,3.81,2.86,3.24,8.77-.11,11.72,3.11,3.4,2.89,8.49-.23,11.8,1.74,3.41,1.46,5.69-1.23,8.49-.4.42-1.37.73-1.48,1.02-.09.23.32,1.69.2,2.43-.42,2.54-1.53,3.47-3.94,3.81l1.14,2.3,6.36.69c1.02-.45,1.1-9.14,3.56-10.23.42-.19,1.7-.1,1.93.32l.12,1.09c.48-1.48,3.8-6.98,5.64-5.62.6.51.54,1.45.41,2.16-.12.64-.96,1.53-.57,2.05,1.33-2.27,3.09-5.44,6-5.61l1.32,1.72c.43-1.23,3.69-3.27,4.43-1.71.43.92-.51,1.64.38,2.05.49-1.24,1.75-1.32,2.42-1.71.55-.33.91-.86,1.67-1.21,2.9-1.32,3.83,1.36,2.49,3.6,2.57-.78,8.92-3.77,6.51,1.71,2.44-.93,8.4-3.1,6.08,1.81,2.83-.67,8.09-1.47,10.09,1.24.14.19.34.58.36.81.06.73-.79,1.3-.08,1.6,3.47-.2,10.27-.36,5.34,4.58,4.3-.35,7.62,0,3.94,4.83,4.67.95,10.37,6.01,3,8.22,3.4.93,7.59,6.95,2.69,8.75,1.3.33,2.02,3.88,1.71,4.85-.47,1.46-1.66,2.26-3.01,2.8,2.79,3.48,1.95,7.58-2.9,8-.53.6.5,2.27-.4,3.64-.53.81-2.54,2.04-3.53,1.68,1.97,6.35-5.28,6.97-9.69,7.31,1.28,4.34-4.85,4.61-7.79,4.69,1.08,3.21-2.25,4.32-4.82,4.02-12.96-1.52-34.13-17.9-41.08-28.68-.46-.72-2.32-4.81-2.58-4.91-6.23,1.33-12.23,3.87-18.25,5.99-6.52,2.29-12.84,4.78-19.26,7.32-9.34,3.69-29.6,3.31-38.98-.4-13.41-5.3-22.55-20.8-32.55-30.89-6.17-6.23-13.17-12.16-22.18-13.4-4.2-.58-7.2,1.32-11.68.11-1.15-.31-2.13-1.27-3.51-1.07.93-.97,1.56-2.01,2.24-3.16,2.81-4.72,6.11-10.7,9.93-14.68,7.79-8.12,18.79-7.78,27.36-.93,6.82,5.45,8.92,9.75,18.33,12.56.39.12,3.61.84,3.58.37l-3.84-5.15-3.64-7.22c-.19-.34-.05-.8-.19-1.13-8.8-20.42-9.25-37.84-5.48-59.67,1.23-7.1,3.84-14.52,4.83-21.47.21-1.46-.02-7.21.77-8,.95.12,2.02-.9,2.46-.96.16-.03,2.86.43,3.29.53,2.47.58,4.75,1.61,6.49,3.51,2.11-1.43,5.32-.32,6.97,1.26.7-1.25,1.58-.59,2.4-.73,3.95-.67,6.59-.81,7.97,3.8.16.55-.16,1.11.22,1.4,1.91-4.41,3.98-8.76,6.36-12.93,3.13-5.49,6.93-11.74,10.62-16.92,2.45-3.43,3.9-5.69,5.03.22l1.46.21c.59-.18.33-3.65,2.99-1.75,1.95,1.39,2.67,4.06,3.75,6.13.66-1.19,1.46-1.87,2.69-.92.67-1.06.85-2.18,2.03-2.84,3.91.41,5.89,4.09,6.19,7.71,1.54-1.15,4.72-3.42,6.71-3.2,4.81.51,5.84,7.53,3.11,10.81ZM418.13,357.26l4.58-8.2c11.57-20.61,31.74-35.06,44.67-54.42,1.29-1.93,3.47-5.53,3.36-7.82-.21-4.31-2.94-5.05-6.37-3.06-.65.38-4.1,3.14-4.49,3.61-.73.89-1.32,3.34-1.95,4.52-2.87,5.36-6.14,8.66-9.64,13.32-11.56,15.36-22.92,30.01-29.18,48.37l-.97,3.68ZM412.14,361.95l1.16-.18c2.4-6.51,5.79-12.53,8.65-18.85,1.46-3.22,2.5-7.27,4.33-10.34.53-.88,1.4-1.26,1.96-2.05,5.68-7.99,11.13-16.06,17.02-23.91,3.88-5.17,8.29-9.58,11.31-15.49,2.23-4.35,4.88-10.59-1.21-13.07-1.37,3.44-4.28,6.09-6.12,9.08-1.99,3.25-3.34,8.34-5.23,11.92-4.1,7.77-9.58,14.3-14.28,21.62-7.7,11.98-12.38,25.07-16.51,38.63-.28.91-.6,1.83-1.1,2.64ZM419.84,360.42l3.3-4.32c4.97-8.71,12.26-16.43,19.62-23.33,9.46-8.86,27.59-20.71,32.23-32.87,1.04-2.72.94-5.88-.56-8.39-6.64,3.02-9.88,9.85-14.27,15.28-10.04,12.4-22.66,23.3-31.74,36.71l-5.96,10.08-2.61,6.85ZM445.33,275.69c-1.29,3.16-2.29,6.47-3.72,9.6-2.37,5.2-5.51,9.37-8.28,14.26-10,17.62-23.3,39.86-24.6,60.46-.05.79-.05,1.67.06,2.45l1.58-2.42c4.37-11.06,7.89-23.09,13.86-33.39,7.7-13.3,18.81-24.96,23.37-39.97,1.24-4.09,1.52-8.21-2.28-10.99ZM439.77,274.19c-.97,1.56-2.46,3.06-3.44,4.57-8.1,12.53-14.84,25.8-20.49,39.71-4.71,11.59-9.5,25.32-11.83,37.59-.36,1.87-1,5.01-1.06,6.79,0,.3-.03.58.1.87l3.08-.85c.65-5.87,1.88-11.62,3.55-17.28,4.92-16.66,11.34-30.31,20.56-45.02,3-4.78,5.89-8.66,8.26-14.03,1.7-3.84,3.04-8.35,1.27-12.35ZM452.76,335.43c4.35-3.22,8.56-6.62,12.87-9.87,2.48-1.87,5.68-3.51,8.01-5.56,4.5-3.95,9.39-10.4,6.98-16.6-4.18,2.18-8.14,4.65-11.38,8.2-1.3,1.43-2.46,3.34-3.72,4.76-5.72,6.4-13.08,10-19.35,15.73-6.82,6.24-12.31,12.99-17.49,20.52-1,1.46-2.37,3-3.31,4.47-.18.29-.76.91-.28,1.1.25-.46.53-.9.91-1.26,4.29-4.09,9.05-7.86,13.33-11.99,4.28-3.13,9.19-6.37,13.42-9.49ZM461.03,339.6c5.11-3.01,17.6-11.81,20.63-16.51,1.38-2.14,1.38-5.57.77-7.9-1.76,2.69-5.11,4.11-7.57,6.01-1.24.96-2.38,2.31-3.65,3.28-12.96,9.91-27.35,18.08-39.2,29.48-2.54,2.44-5.17,5.49-7.19,8.34l2.83-1.65c10.03-8.86,21.41-14.33,32.78-21,.19-.11.51,0,.6-.05ZM468.26,344.13c6.02-2.92,13.05-5.9,17.12-11.67,1.59-2.25,2.56-6.29.42-8.48-2.24,1.47-4.08,3.51-6.23,5.08-5.18,3.79-11.58,8.24-17.04,11.57-6.43,3.92-13.88,6.8-20.08,11.11-4.98,3.46-9.57,7.72-13.61,12.22l18.36-9.45c6.68-4.17,14.02-6.96,21.06-10.38ZM476.1,348.43c.28-.11.74.02,1.19-.15,3.45-1.33,9.24-3.25,11.11-6.53,1.03-1.8.78-5.82-1.93-5.91-4.59,2.64-8.96,5.75-13.58,8.33-5.07,2.83-11.4,5.33-16.25,7.72-8.19,4.04-17.22,7.73-23.93,14.01l5.26-2.74c12.55-5.12,25.37-9.85,38.13-14.73ZM484.19,357.15c.23-.09.62.02.96-.14,3.29-1.55,5.6-5.02,4.24-8.66-.46-1.23-1.79-2.69-3.17-2.57-.2.02-2.74,1.61-3.44,1.93-1.37.63-2.48.8-3.51,1.2-12.45,4.77-25.49,9.07-37.67,14.41-2.14.94-4.19,2.05-6.3,3.04.16.54,3.81-.69,4.4-.79,7.75-1.42,15.56-2.63,23.27-3.93,7.1-1.2,14.47-1.65,21.22-4.48ZM411.19,305.33c-.83-2.62-4.07-4.62-6.74-4.12.49.56.96,1.59,1.16,2.29,1.04,3.63.84,9.06.59,12.88-.28,4.36-1.13,8.68-1.62,13.01-.68-.08-.76-.13-1.08.6l1.05.63c-.17.37-.42.72-.48,1.13-.82,5.24-1.81,10.52-3.17,15.65-.35,1.31-1.96,5.2-1.96,6.12,0,.72.28.85.88,1.11.79-.04.49-.24.63-.6,1.25-3.19,1.94-7.16,3.04-10.45,1.93-5.74,5-11.52,6.45-17.38,1.01-4.08,2.46-17.07,1.25-20.89ZM396.61,353.11c.17-.29.48-.43.62-.75,3.85-8.72,5.48-20.99,6.43-30.39.65-6.44,2.22-15.1-2.1-20.59-2.1-2.67-4.76-3.69-8.03-4.12-.3.12,1.7,4.57,1.85,5.04,4.05,12.72-1.01,27.6-1.11,40.95-.03,3.69.24,4.23,1.52,7.48.3.75.21,1.68.81,2.37ZM392.79,300.15c-.14-.26-1.26-1.67-1.41-1.66,0,.34-.24.62-.28.9-.25,1.8-.04,4.03-.34,5.89-.97,6.08-3.04,12.1-4.19,18.16-.68,3.58-2.3,11.88-2.19,15.17.12,3.78,2.62,7.27,5.55,9.48.68-7.83,3.17-15.32,4.41-23.04s2.18-17.96-1.55-24.88ZM489.28,362.65c-.98-4.63-4.06-2.75-7.3-2.28-11.82,1.7-24.03,3.83-35.72,6.2-2.88.58-5.78,1.23-8.51,2.31.12.38,2.1-.02,2.6.03,12.22,1.25,25.36,4.05,37.67,3.88,4.19-.06,10.55-1.53,11.42-6.47.07-.41-.07-3.27-.15-3.67ZM436.5,372.79c.37.16.79.39,1.18.47,7.29,1.61,14.5,3.51,21.78,5.35,5.2,1.32,21.18,6.38,25.65,4.47,4.04-1.72,5.36-6.55,3.03-10.09-3.92,1.71-8.13,1.24-12.25,1.29-.97.01-2.06.27-3.09.25-10.59-.16-21.52-3.12-31.87-2.44-1.41.09-3.08.26-4.43.68ZM540.57,406.16c-.59-.22-1.03-.87-1.56-1.09-1.06-.45-6.15.85-7.49,1.28-3.64,1.17-6.79,3.64-10.04,5.57-.83.49-1.97.47-2.41,1.54,3.85-.69,7.73-2.91,11.46-3.97,3.31-.94,7.44-.59,10.04-3.34ZM535.11,413.78c1.73-.47,11.61-1.65,11.4-3.75-3.82.31-7.95.44-11.63,1.53-3.05.91-8.83,4.03-11.55,5.81-.39.25-.84.31-1.01.88,2.32-.3,4.29-1.66,6.45-2.44,1.82-.65,4.44-1.52,6.34-2.03ZM551.07,413.8c-.09-.33-4.28-.07-4.83,0-7.77.96-14.97,3.99-21.87,7-.27.12-1.8,1.01-1.77,1.19,3.19-.13,6.32-.75,9.47-1.19,4.01-.56,7.88-.82,11.82-2.11,1.43-.47,7.7-3.04,7.17-4.89ZM527.01,405.88c.94-.35.5-1.61,1.45-2.25-4.15,1.3-8.43,3.71-11.99,6.25-.9.64-2.01,1.36-2.68,2.23l6.7-3.27c2.03-1.35,4.33-2.14,6.53-2.96ZM513.18,408.89c1.41-1.08,3.01-2.02,4.54-2.92,2.24-1.31,5.28-1.93,5.43-5.13-3.23,1.96-7.19,4.14-9.65,7.08-.21.25-.83.75-.31.97ZM503.06,413.28c1.77-2.24,3.83-4.29,5.94-6.22,2.31-2.12,6.26-4.63,8.15-6.82.3-.35.85-2.09.53-2.27-6.35,2.68-9.92,9.26-14.33,14.24l-.29,1.07ZM555.8,421.39c-.4-1.16-5.44-3.24-6.68-2.91-.56.15-2.03,1.24-2.87,1.56-2.13.81-4.41,1.34-6.47,2.35l-12.83,2.54c.7.09,1.64.53,2.27.61,2.13.24,5.18.4,7.32.43,6.42.09,12.6-.77,18.67-2.81.64-.2.77-1.23.59-1.76ZM485.28,394.77c3.17-1.11,4.39-6.41,2.91-9.25-2.86,2.02-7.07,1.54-10.35.84-11.09-2.36-22.61-7.01-33.74-8.86-.38-.06-1.22-.36-1.45.01,2.62,1.75,5.57,2.91,8.26,4.52,2.87,1.72,5.54,3.86,8.57,5.46,5.4,2.86,19.98,9.32,25.8,7.28ZM523.95,426.37c1.99.9,3.94,1.91,5.98,2.72,6.38,2.54,14.05,3.55,20.91,3.55,1.16,0,5.52-.05,6.14-.65.92-.89-.12-2.85-.84-3.63-3.75-4.03-8.01-1.52-12.52-1.07-4.08.41-8.22-.06-12.33-.04l-7.35-.88ZM498.32,415.82c4.13-4.38,6.34-10.06,9.9-14.86l-1.69,1.72c-1.18,2.01-2.87,3.83-4.17,5.74-1.02,1.5-1.94,3.15-3,4.71-.43.63-.64,2.71-1.67,2l.63.7ZM493.46,414.39c.45-1.46,2.76-3.83,3.13-4.99.18-.55-.28-1.23-.15-1.73.3-1.16,1.61-3.2,2.01-4.56.14-.48.44-1.73.11-2.16-1.22,1.61-2.11,3.25-2.86,5.11-.68,1.7-1.5,4.13-1.97,5.9-.16.62-.59,1.86-.27,2.43ZM554.65,440.03c1.06-.36,1.51.03,2.17-1.49.61-1.41-.87-3.8-2.18-4.31-1-.39-7.34-.12-9.07-.23-6.01-.38-11.32-1.43-17.18-3.03-2.39-.65-4.7-1.66-7.1-2.26-.42-.1-.84-.46-1.24,0,3.84,2.45,7.39,5.37,11.48,7.54,5.61,2.97,17.03,5.85,23.11,3.78ZM444.26,382.04c7.12,4.47,13.54,9.88,20.97,13.87,3.08,1.66,7.41,3.54,10.68,4.83,1.3.52,5.93,2.26,7.08,2.25,3.46-.02,5.56-4.41,3.77-7.22-4.48,2.62-9.36,1.29-13.98-.24-9.07-3-17.46-8.35-25.95-12.69l-2.56-.81ZM492.93,406.21l-.7.06-1.44,6.91.76.8c.2-1.22,1.05-2.88,1.28-3.98.07-.37-1.2-2.82.1-3.79ZM513.57,430.6c.16.64,5.93,5.54,6.89,6.21,7.05,4.95,22.56,11.57,31.21,11.35,4.67-.12,5.11-5.32.87-6.08-.83-.15-1.9.25-2.83.2-12.05-.64-23.13-5.15-33.58-10.88-.16-.09-2.92-2.27-2.56-.81ZM453.51,391.81l12.1,8.25c4.81,2.47,9.86,6.19,14.75,8.37,3.42,1.52,4.18-3.33,3.06-3.87-.53-.26-1.7.24-2.45.12-6.08-.96-12.89-5.59-18.35-8.45-2.68-1.41-5.36-2.69-8.03-4.14-.33-.18-.87-.78-1.08-.28ZM398.72,359.76c-2.58-1.82-5.64-3.2-8.04-5.25-1.73-1.47-4.18-4.36-5.53-6.23-.44-.6-.61-1.83-1.38-1.89-.45,13.21,2,25.85,7.11,37.96,1.34,3.17,2.88,6.65,4.92,9.41-.15-1.99-.95-4.17-1.19-6.1-.77-6.25.27-12.7,1.52-18.82l2.6-9.09ZM514.8,424.89l-12.79-6.5c-1.65.44-1.86-.46-2.72-.78-4.43-1.69-12.55-3.55-17.16-3.13-1.01.09-2.32.63-3.43.66,1.36,2.35,1.09,5.39-2.33,4.53,1.03,4.74-4.72,3.65-7.17,1.83-1.37,4.51-8.19,6.16-12.32,4.98-6.32-1.8-9.58-5.2-12.34-10.92-6.69-13.85-6.74-29.64-18.53-40.66-7.34-6.85-13.09-7.1-22.48-7.52-.48-.02-.85-.49-1.21-.35-.11,1.67-.21,3.4-.43,5.05-.97,7.34-2.46,16.11-2.15,23.47.02.53.08,2.04.19,2.43.13.47.72.84.75,1.16.14,1.67-3.55,1.83-4.76,1.66-11.37-1.58-16.19-10.55-24.74-15.91-5.02-3.15-11.83-2.68-17.07-.52-2.24.92-5.9,5.03-7.35,7.05-1.22,1.7-1.94,3.85-3.49,5.21.94.9,1.4,2.16,2.24,3.14,1,1.17,2.69,2.25,3.48,3.37.26.37-.05.81.09.87,1.46.65,4.41.32,5.98.52,12.05,1.52,19.46,4.23,27.16,14.23,3.74,4.85,5.52,10.93,9.06,16.05,1.69,2.45,6.29,8.15,8.62,9.7,11.36,7.59,25.44,8.47,38.29,5.49,1.14-.27,5.84-1.34,6.52-1.74.87-.51,1.81-1.66,2.78-2.3,17.01-11.4,39.98-13.6,59.59-18.32,2.59-.62,5.53-1.26,7.72-2.77ZM505.46,434.02c3.33,2.06,6.33,4.96,9.55,7.11,6.04,4.02,14.72,9.39,21.6,11.4,2.65.77,13.04,2.7,14.37-.59,1.22-3.02-5.61-3.05-7.5-3.5-9.16-2.18-18.26-6.13-26.88-9.97-2.88-1.28-6.16-3.36-9.01-4.45-.68-.26-1.49-.53-2.13,0ZM481.14,412.83c-.78-.92-1.49-2.59-2.54-3.24s-3.32-1.36-4.55-2.07c-4.74-2.74-9.28-6.04-13.96-8.96-3.09-1.93-6.33-3.65-9.42-5.56l2.81,2.99c6.34,6,16.41,13.79,24.48,17.08.48.19,3.27.69,3.2-.23ZM477.42,418.48c.79-2.11-.51-4.04-2.37-5.11-1.98-1.14-3.71-2.01-5.71-3.25-1.92-1.19-3.93-2.26-5.86-3.44l-9.45-6.68,3.16,3.57c6.46,3.59,12.23,11.13,18.51,14.57.5.28,1.19.1,1.73.33ZM546.37,455.44c-.81-.28-3.31-.07-4.35-.21-5.37-.72-13.36-3.47-18.18-5.99-7.18-3.75-14.99-7.25-21.97-11.25-1.28-.73-2.19-2.24-4.23-1.61-.39.62,3.83,3.46,4.3,3.84,8.99,7.43,19.73,15.2,30.84,19.26,1.65.6,5.28,1.16,7.03,1.12,2.49-.06,8.75-.89,7.37-4.54-.17-.34-.46-.48-.8-.6ZM442.38,400.5c.54,1.28,5.78,3.74,7.28,4.75,6.76,4.52,12.97,9.94,19.65,14.54.92.63,6.56,3.47,5.53.38-.35-1.04-5.19-3.3-6.5-4.18-4.33-2.87-9.2-6.3-13.39-9.38-4.38-3.22-8.54-6.81-12.66-10.35-.22.08.01,4.05.09,4.24ZM535.65,465.02c.64-.21,1.64-.72,1.95-1.34.64-2.19-4.14-2.32-5.57-2.75-7.49-2.22-16.2-6.67-22.66-10.84-5.95-3.84-11.42-8.37-16.98-12.72l4.23,5.99c5.32,9.24,28.76,24.97,39.04,21.65ZM527.91,469.05c.81-.29,1.58-1.59.85-2.14-.45-.33-1.83-.18-2.45-.36-6.2-1.78-15.53-6.26-20.79-9.95-4.64-3.26-8.75-8.26-13.25-11.77l1.23,1.82c2.27,2.2,3.81,4.65,6.13,6.75,5.93,5.36,14.28,11.31,21.78,14.38,1.24.51,5.33,1.7,6.51,1.28Z"/>
      <path d="M341.91,419.43c-2.4-.83-3.61-3.63-4.47-5.88-1.79-4.71-4.39-12.19-5.57-17-.27-1.09-1.14-8.38-1.52-8.6-1.04.17-2.13.72-3.19.68-4.36-.17-12.67-2.19-16-4.99-1.5-1.26-2.67-3.81-.18-4.66.68-.23,5.39-.06,6.32.08,4.4.65,8.23,3.38,12.3,5.03-1.09-1.36-2.63-2.83-3.98-3.93-3.39-2.76-9.63-6-11.85-9.55-.62-.99-1.5-2.74-.76-3.83,1.07-1.56,3.63-.28,5.04.32,3.48,1.48,6.6,3.81,9.03,6.73l-1.09-4.77c-1.45-3.98-4.83-13.56-1.97-17.22.25-.32.58-.57.96-.73,2.01.33,3,1.62,3.94,3.26,2.3,4.01,3.9,12.75,4.21,17.35.07,1.02-.32,2.27.08,3.24,2.19-4.82,4-10.21,7.18-14.53,1.56-2.13,5.33-4.59,7-1.34,2.5,4.89-4.64,16.7-7.41,20.79-1.55,2.29-3.32,4.63-5.9,5.75,1.77,4.35,2.68,8.87,4.03,13.36.09,1.32-3.32,5.29-2.94,6.13.33.73,4,2.11,5.09,2.98,1.55,1.23,2.74,6.71,2.82,8.73.04,1.12-.24,1.86-1.17,2.59Z"/>
      <path d="M408.31,411.92c2.1.98,3.91,2.48,5.97,3.55,6.15,3.18,14.94,5.15,21.72,6.79.93.23,5.29.87,5.65,1.22.65.65.53,1.46-.71,1.31-7.95-1-25.46-5.81-31.69-10.52-.76-.58-1.8-1.39-.94-2.34Z"/>
      <path d="M365.37,392.58c.08,1.51-2.11.12-2.52.28-.34,2.21-2.95,3.08-4.66,1.91-.62-.42-.61-1.25-.95-1.54-.42-.35-1.33-.09-1.28-1.06,1.64-1.88,5.4-3.36,7.62-1.72.11.08,1.79,1.99,1.8,2.13Z"/>
    </g>
    <text class="cls-4" transform="translate(139.33 315.19) rotate(-1.22)"><tspan x="0" y="0">10</tspan></text>
    <text class="cls-4" transform="translate(139.33 482.86) rotate(-1.22)"><tspan x="0" y="0">10</tspan></text>
    <text class="cls-4" transform="translate(617.45 500) rotate(-1.22)"><tspan x="0" y="0">10</tspan></text>
    <text class="cls-4" transform="translate(627.41 323.99) rotate(-1.22)"><tspan x="0" y="0">10</tspan></text>
    <polyline class="cls-5" points="139.33 325.97 279.17 329.12 275.26 418 132.89 413.31 139.33 325.97"/>
    <line class="cls-1" x1="279.17" y1="241.7" x2="272.67" y2="501.92"/>
    <rect class="cls-5" x="568.92" y="252.43" width="39.21" height="256.17"/>
    <line class="cls-1" x1="291.03" y1="175.17" x2="279.17" y2="241.7"/>
    <line class="cls-1" x1="319.65" y1="103.68" x2="281.96" y2="175.17"/>
    <polyline class="cls-5" points="599.65 151.54 551.13 194.65 551.13 247.8 590.34 247.8 590.34 198.06 642.1 159.26 599.65 151.54"/>
  </g>
  <g id="Layer_2" data-name="Layer 2">
    <polygon class="cls-3" points="744.05 252.93 744.05 516.34 130.63 500 137.95 238.29 744.05 252.93"/>
    <polyline class="cls-3" points="744.05 490.58 752.59 491.95 756.35 453.49 779.41 217.56 199.41 167.22 161.12 163.9 154.97 238.7"/>
    <polyline class="cls-3" points="199.41 167.22 217.22 83.41 820.88 193.17 774.54 457.8 756.35 453.49"/>
    <path class="cls-3" d="M845.27,767.56l87.8,25.61c49.85-54.86,58.26-126.96,43.9-208.54,0,0-13.41-4.88-46.34-18.29s-40.24-37.8-109.75-45.12-154.88,53.66-196.34,109.76-179.27,48.78-179.27,48.78c-128.05-21.95-228.05-167.76-276.83-121.95-30.09-16.35-57.02-17.48-78.05,9.76-16.9,4.27-28.16,13.32-30.56,29.86-2.05,14.09,3.37,28.25,13.87,37.87l169.06,155.06c7.34,6.73,15.53,12.46,24.38,17.03,50.21,25.98,225.43,116.44,232.86,117.49,8.68,1.22,30.63,21.95,95.27-15.85s292.68-162.2,292.68-162.2"/>
    <path class="cls-3" d="M456.65,680.05c-9.57,3.08-19.29,5.77-28.76,9.14-11.91,4.24-23.67,9.74-33.24,17.89h-.01c-1.8,1.54-3.53,3.16-5.16,4.89-9.75,10.32-15.84,24.85-13.68,38.79.12.81.28,1.62.46,2.43,7.24,31.9,52.9,30.79,78.24,31.93,28.35,1.28,57.07,1.39,85.38-.88,32.51-2.6,65.01-23.4,123.51-36.4s58.5-18.16,58.5-18.16"/>
    <path class="cls-3" d="M88.17,568.17c46.29,34.32,18.93,14.65,131.49,101.83,80.25,62.15,130.55,77.61,156.14,80.76"/>
    <path class="cls-3" d="M394.65,707.08h-.01c-28.68-8.24-72.61-28.45-134.13-76.1-66.13-51.23-83.97-65.56-96.82-75.64"/>
  </g>
</svg>