<?xml version="1.0" encoding="UTF-8"?>
<svg xmlns="http://www.w3.org/2000/svg" xmlns:xlink="http://www.w3.org/1999/xlink" viewBox="0 0 1013.91 805.91">
  <defs>
    <style>
      .cls-1 {
        fill: #f9dec2;
      }

      .cls-2 {
        clip-path: url(#clippath-34);
      }

      .cls-3 {
        clip-path: url(#clippath-38);
      }

      .cls-4 {
        clip-path: url(#clippath-6);
      }

      .cls-5 {
        clip-path: url(#clippath-7);
      }

      .cls-6 {
        fill: #daa34d;
      }

      .cls-7, .cls-8 {
        fill: #39b54a;
      }

      .cls-9 {
        clip-path: url(#clippath-18);
      }

      .cls-10 {
        clip-path: url(#clippath-47);
      }

      .cls-11 {
        clip-path: url(#clippath-4);
      }

      .cls-12 {
        clip-path: url(#clippath-22);
      }

      .cls-13 {
        opacity: .8;
      }

      .cls-13, .cls-14, .cls-15, .cls-16 {
        mix-blend-mode: multiply;
      }

      .cls-13, .cls-17, .cls-18 {
        fill: #a19376;
      }

      .cls-19 {
        clip-path: url(#clippath-9);
      }

      .cls-20 {
        clip-path: url(#clippath-10);
      }

      .cls-14, .cls-21 {
        fill: #202862;
      }

      .cls-22 {
        clip-path: url(#clippath-42);
      }

      .cls-23, .cls-24 {
        fill: #fff;
      }

      .cls-25 {
        clip-path: url(#clippath-11);
      }

      .cls-26, .cls-27, .cls-28, .cls-29, .cls-30, .cls-31, .cls-32, .cls-33 {
        fill: none;
      }

      .cls-34 {
        clip-path: url(#clippath-36);
      }

      .cls-35 {
        font-size: 58.82px;
      }

      .cls-35, .cls-36, .cls-37, .cls-38 {
        fill: #923402;
        font-family: LucidaHandwriting-Italic, 'Lucida Handwriting';
        font-style: italic;
      }

      .cls-39 {
        clip-path: url(#clippath-28);
      }

      .cls-40 {
        clip-path: url(#clippath-1);
      }

      .cls-41 {
        fill: #1e1c1c;
        opacity: .49;
      }

      .cls-42 {
        isolation: isolate;
      }

      .cls-36 {
        font-size: 58.82px;
      }

      .cls-43 {
        clip-path: url(#clippath-46);
      }

      .cls-44 {
        clip-path: url(#clippath-40);
      }

      .cls-45 {
        clip-path: url(#clippath-5);
      }

      .cls-46 {
        clip-path: url(#clippath-20);
      }

      .cls-47, .cls-48 {
        fill: #fc993f;
      }

      .cls-49 {
        clip-path: url(#clippath-8);
      }

      .cls-50 {
        clip-path: url(#clippath-3);
      }

      .cls-24, .cls-31 {
        opacity: .51;
      }

      .cls-27, .cls-28, .cls-29, .cls-51, .cls-8, .cls-52, .cls-30, .cls-18, .cls-32, .cls-48, .cls-33 {
        stroke-miterlimit: 10;
      }

      .cls-27, .cls-51, .cls-32 {
        stroke-width: 4.1px;
      }

      .cls-27, .cls-30 {
        stroke: #fff;
      }

      .cls-53 {
        clip-path: url(#clippath-26);
      }

      .cls-54 {
        clip-path: url(#clippath-12);
      }

      .cls-55 {
        clip-path: url(#clippath-14);
      }

      .cls-56 {
        mix-blend-mode: screen;
      }

      .cls-57 {
        clip-path: url(#clippath-30);
      }

      .cls-15 {
        opacity: .83;
      }

      .cls-15, .cls-58 {
        fill: #8e532b;
      }

      .cls-28 {
        stroke: #f9b170;
        stroke-width: 1.88px;
      }

      .cls-29, .cls-8, .cls-52, .cls-18, .cls-32, .cls-48, .cls-33 {
        stroke: #000;
      }

      .cls-29, .cls-52 {
        stroke-width: 4px;
      }

      .cls-59 {
        clip-path: url(#clippath-32);
      }

      .cls-51 {
        fill: #e8d252;
        stroke: #c1272d;
      }

      .cls-16 {
        fill: #7c3e0a;
        opacity: .34;
      }

      .cls-37 {
        font-size: 58.83px;
      }

      .cls-38 {
        font-size: 58.82px;
      }

      .cls-60 {
        clip-path: url(#clippath-16);
      }

      .cls-61, .cls-52 {
        fill: #c32909;
      }

      .cls-62 {
        clip-path: url(#clippath-2);
      }

      .cls-30 {
        stroke-width: 2.03px;
      }

      .cls-18 {
        stroke-width: 6px;
      }

      .cls-63 {
        clip-path: url(#clippath-24);
      }

      .cls-64 {
        clip-path: url(#clippath);
      }

      .cls-48, .cls-33 {
        stroke-width: 4.69px;
      }

      .cls-65 {
        clip-path: url(#clippath-44);
      }
    </style>
    <clipPath id="clippath">
      <rect class="cls-52" x="74.59" y="2" width="124.39" height="174.39"/>
    </clipPath>
    <clipPath id="clippath-1">
      <rect class="cls-26" x="63.42" y="116.33" width="148.52" height="51.67"/>
    </clipPath>
    <clipPath id="clippath-2">
      <rect class="cls-52" x="74.59" y="177.49" width="124.39" height="174.39"/>
    </clipPath>
    <clipPath id="clippath-3">
      <rect class="cls-26" x="63.42" y="291.82" width="148.52" height="51.67"/>
    </clipPath>
    <clipPath id="clippath-4">
      <rect class="cls-52" x="212.45" y="2" width="124.39" height="174.39"/>
    </clipPath>
    <clipPath id="clippath-5">
      <rect class="cls-26" x="201.28" y="116.33" width="148.52" height="51.67"/>
    </clipPath>
    <clipPath id="clippath-6">
      <rect class="cls-52" x="212.45" y="177.49" width="124.39" height="174.39"/>
    </clipPath>
    <clipPath id="clippath-7">
      <rect class="cls-26" x="201.28" y="291.82" width="148.52" height="51.67"/>
    </clipPath>
    <clipPath id="clippath-8">
      <rect class="cls-52" x="350.32" y="2" width="124.39" height="174.39"/>
    </clipPath>
    <clipPath id="clippath-9">
      <rect class="cls-26" x="339.15" y="116.33" width="148.52" height="51.67"/>
    </clipPath>
    <clipPath id="clippath-10">
      <rect class="cls-52" x="350.32" y="177.49" width="124.39" height="174.39"/>
    </clipPath>
    <clipPath id="clippath-11">
      <rect class="cls-26" x="339.15" y="291.82" width="148.52" height="51.67"/>
    </clipPath>
    <clipPath id="clippath-12">
      <ellipse class="cls-48" cx="247.55" cy="304.95" rx="47.4" ry="63.77"/>
    </clipPath>
    <clipPath id="clippath-14">
      <ellipse class="cls-48" cx="344.31" cy="304.95" rx="47.4" ry="63.77"/>
    </clipPath>
    <clipPath id="clippath-16">
      <ellipse class="cls-48" cx="441.07" cy="304.95" rx="47.4" ry="63.77"/>
    </clipPath>
    <clipPath id="clippath-18">
      <ellipse class="cls-48" cx="537.83" cy="304.95" rx="47.4" ry="63.77"/>
    </clipPath>
    <clipPath id="clippath-20">
      <ellipse class="cls-48" cx="634.59" cy="304.95" rx="47.4" ry="63.77"/>
    </clipPath>
    <clipPath id="clippath-22">
      <ellipse class="cls-48" cx="179.87" cy="339.75" rx="47.4" ry="63.77"/>
    </clipPath>
    <clipPath id="clippath-24">
      <ellipse class="cls-48" cx="276.63" cy="339.75" rx="47.4" ry="63.77"/>
    </clipPath>
    <clipPath id="clippath-26">
      <ellipse class="cls-48" cx="373.39" cy="339.75" rx="47.4" ry="63.77"/>
    </clipPath>
    <clipPath id="clippath-28">
      <ellipse class="cls-48" cx="470.15" cy="339.75" rx="47.4" ry="63.77"/>
    </clipPath>
    <clipPath id="clippath-30">
      <ellipse class="cls-48" cx="566.91" cy="339.75" rx="47.4" ry="63.77"/>
    </clipPath>
    <clipPath id="clippath-32">
      <ellipse class="cls-48" cx="664.28" cy="347.18" rx="47.4" ry="63.77"/>
    </clipPath>
    <clipPath id="clippath-34">
      <ellipse class="cls-48" cx="117.19" cy="396.46" rx="47.4" ry="63.77"/>
    </clipPath>
    <clipPath id="clippath-36">
      <ellipse class="cls-48" cx="213.95" cy="396.46" rx="47.4" ry="63.77"/>
    </clipPath>
    <clipPath id="clippath-38">
      <ellipse class="cls-48" cx="310.7" cy="396.46" rx="47.4" ry="63.77"/>
    </clipPath>
    <clipPath id="clippath-40">
      <ellipse class="cls-48" cx="407.46" cy="396.46" rx="47.4" ry="63.77"/>
    </clipPath>
    <clipPath id="clippath-42">
      <ellipse class="cls-48" cx="504.22" cy="396.46" rx="47.4" ry="63.77"/>
    </clipPath>
    <clipPath id="clippath-44">
      <ellipse class="cls-48" cx="601.6" cy="403.89" rx="47.4" ry="63.77"/>
    </clipPath>
    <clipPath id="clippath-46">
      <path class="cls-17" d="M72.78,412.22l537.25-.27,95.07-86.53-3.6,54.69-42.29,40c.41-2.22.04-4.39-.24-6.63s-1.37-4.5-3.32-5.63c-2.87-1.67-6.71-.39-9.03,1.99s-3.53,5.59-4.84,8.64c-5.56,12.88-14.17,24.44-24.94,33.44,2.78-5.34,4.44-11.25,4.84-17.26.19-2.87-.1-6.17-2.4-7.9-1.67-1.26-4.04-1.3-5.97-.5s-3.48,2.32-4.76,3.98c-4.89,6.34-6.26,14.6-8.23,22.37-1.1,4.35-2.53,8.7-4.86,12.56-1.25,2.08-3.16,5.02-5.3,6.3-2.31,1.39-6.5,1.39-9.15,1.64-6.43.6-12.94.24-19.26-1.1-4.25-.9-7.35-2.55-10.16-5.94-2.5-3.02-4.21-6.65-5.52-10.32-2.11-5.91-3.38-12.16-6.35-17.68-2.22-4.12-6.45-8.13-10.98-6.97-3.54.91-5.59,4.58-6.76,8.05-1.71,5.08-2.44,10.43-3.92,15.58s-3.86,10.28-8.09,13.58c-6.17,4.82-14.73,4.72-22.55,4.4-5.71-.23-11.82-.61-16.35-4.08-3.44-2.63-5.45-6.65-7.35-10.54-2.72-5.56-5.45-11.12-8.17-16.68-1.17-2.38-2.36-4.8-4.18-6.73-2.66-2.83-5.98-3.91-9.29-1.57-2.77,1.96-4.49,5.25-5.33,8.48-1.2,4.59-1.12,9.46-2.54,13.99-3.42,10.9-15.11,17.55-26.5,18.39-13.51,1-28.17-5.95-33.08-18.58-1.92-4.93-2.3-10.37-4.38-15.23s-6.79-9.33-12.01-8.5c-3.25.52-5.9,3-7.48,5.88s-2.26,6.16-2.96,9.37c-1.74,7.98-4.15,16.54-10.66,21.48-6.28,4.76-14.79,4.94-22.67,4.93-5.75-.01-11.92-.15-16.59-3.49-3.93-2.81-6.14-7.45-7.44-12.1s-1.87-9.5-3.38-14.08c-1.56-4.73-4.09-8.69-8.47-11.11-3.99-2.2-8.88-1.21-11.67,2.58-2.95,4.01-3.37,9.26-4.76,14.04-4,13.83-17.52,24.33-31.91,24.78s-28.54-9.19-33.39-22.75c-1.68-4.7-2.35-9.79-4.71-14.2s-7.23-8.09-12.08-6.89c-3.73.92-6.29,4.45-7.54,8.08-1.7,4.92-1.43,10.3-3.97,14.84-2.84,5.07-6.05,9.93-9.6,14.53-1.37,1.78-2.86,3.56-4.87,4.56-2.24,1.11-4.86,1.1-7.36,1.06-6.37-.09-12.74-.18-19.11-.27-3.19-.04-6.37-.09-9.56-.13-1.7-.02-4.2.45-5.6-.75-1.81-1.54-2.9-5.17-4-7.26-1.36-2.6-2.71-5.2-4.08-7.79-2.79-5.28-5.64-10.52-8.73-15.63-5.15-8.52-12.79-15.53-21.77-19.85"/>
    </clipPath>
    <clipPath id="clippath-47">
      <path class="cls-26" d="M400.64,676.3c-14.79,5.8-30.55,9.11-46.42,9.75-9.37.38-20.57-4.23-17.63-15.75,7.04-3.09,14.12-6.2,20.61-10.32,6.49-4.13,12.42-9.35,16.41-15.93,3.92-6.47,6.3-15.11,3.94-22.51-1.3-4.07-3.65-9.17-6.76-12.2s-9.26-4.22-13.33-5c-9.76-1.87-20.14-.69-29.11,3.63,1.42-19.56,3.88-39.05,7.37-58.35,1.29-7.11,2.88-15.34,9.09-19.7,7-4.91,14.92-6.37,23.28-7.31,51.5-5.82,103.49-7.38,155.25-4.65,45.29,2.39,92.28,8.08,134.1-9.5-.92.39-1.71,3.73-1.96,4.62-.45,1.61-.69,3.31-.99,4.93-.54,2.88-.19,6.04.56,8.85,1.56,5.8,5.37,11.04,10.63,14.01.6.34,1.38,3.97,1.74,4.75.72,1.6,1.57,3.15,2.53,4.62,2.45,3.79,5.61,7.37,9.43,9.77,3.54,2.22,7.32,4.06,11.25,5.47,1.97.7,3.97,1.3,6,1.79,1.9.45,3.92.57,5.77,1.09,3.98,1.12,6.06,5.96,6.53,9.71.54,4.32-.24,8.74-1.16,12.95-6.34,28.98-12.67,57.96-19.01,86.95-1.49,6.8-3.31,14.16-8.76,18.49-8.8,6.99-21.6,2.53-32-1.75-31.86-13.12-65.48-21.91-99.64-26.3-17.09-2.2-34.32-3.29-51.55-3.29-15.84,0-31.75,2.11-47.45,1.46-9.08-.38-19.02,2.49-28,3.87-9.86,1.51-19.72,3.03-29.59,4.54-8.43,1.29-16.88,2.59-25.11,4.79"/>
    </clipPath>
  </defs>
  <g class="cls-42">
    <g id="Layer_1" data-name="Layer 1">
      <g>
        <g>
          <g>
            <path class="cls-21" d="M714.23,54.79v22.7c0,3.28-2.67,5.95-5.97,5.95h-181c-3.28,0-5.95-2.67-5.95-5.95v-22.7c0-.86.06-1.72.18-2.56.02-.1.04-.23.08-.35.76-2.42,3.01-4.18,5.68-4.18h181c2.69,0,4.94,1.76,5.7,4.18.04.12.06.25.08.35.12.84.18,1.7.18,2.56Z"/>
            <path class="cls-26" d="M521.32,53.66c0-.49.06-.98.18-1.44-.12.84-.18,1.7-.18,2.56v-1.13Z"/>
            <path class="cls-26" d="M714.23,53.66v1.13c0-.86-.06-1.72-.18-2.56.12.45.18.94.18,1.44Z"/>
            <path class="cls-21" d="M713.97,51.87c-.76-2.42-3.01-4.18-5.7-4.18h-181c-2.67,0-4.92,1.76-5.68,4.18,1.35-7.85,8.2-13.82,16.47-13.82h159.45c8.26,0,15.11,5.97,16.47,13.82Z"/>
            <path class="cls-6" d="M721.84,326.72c-4.66,33.47-22.03,51.1-52.17,52.91h-105.24c-29.98-1.78-47.37-19.28-52.11-52.46,71.76,20.92,141.6,20.77,209.53-.45Z"/>
            <path class="cls-21" d="M722.44,321.75c-.16,1.68-.37,3.34-.59,4.96-67.92,21.23-137.77,21.37-209.53.45-.27-1.76-.47-3.57-.66-5.41l2.28-181.49c70.59,20.3,139.33,20.16,206.2-.39.02.1.04.21.04.31l2.26,181.57Z"/>
            <path class="cls-6" d="M720.14,139.87c-66.88,20.55-135.62,20.69-206.2.39v-.08c1.76-19.01,7.16-35.21,21-44.83v-11.91h164.25v11.91c13.76,9.56,19.17,25.63,20.96,44.52Z"/>
          </g>
          <path class="cls-41" d="M536.39,82.24c-.49,0-.98,0-1.46-.01,3.38,2.68,4.55,5.42,9.04,6.92,19.98,6.64,43.98,4.85,64.84,5.27,16.23.33,36.59-2.66,51.14,6.27,6.65,4.09,8.16,10.1,8.16,17.32,0,8.84.38,17.7.56,26.54.52,25.56,1,51.12,1.45,76.68.45,25.79.89,51.57,1.19,77.37.19,16.77,3.56,34.94-3.5,50.66-6.07,13.5-17.2,24.77-30.87,30.54.36.1.72.2,1.08.3,13.33,2.67,30.71.78,43.88-2.17,17.87-4.01,34.23-19.97,38.05-37.98,1.69-7.94,1.69-16.13,1.69-24.24-.02-33.73.5-67.59-.16-101.23-.46-23.5-.92-46.99-1.38-70.49-.26-13.04-.92-27.23-9.4-37.14-3.3-3.86-7.65-6.86-10.29-11.2-2.18-3.58-1.47-7.97-1.42-11.96-54.19-.48-108.39-.96-162.58-1.44Z"/>
          <g>
            <rect class="cls-14" x="524.05" y="46.95" width="3.03" height="35.28"/>
            <rect class="cls-14" x="531.36" y="46.95" width="3.03" height="35.28"/>
            <rect class="cls-14" x="538.66" y="46.95" width="3.03" height="35.28"/>
            <rect class="cls-14" x="545.96" y="46.95" width="3.03" height="35.28"/>
            <rect class="cls-14" x="553.26" y="46.95" width="3.03" height="35.28"/>
            <rect class="cls-14" x="560.56" y="46.95" width="3.03" height="35.28"/>
            <rect class="cls-14" x="567.86" y="46.95" width="3.03" height="35.28"/>
            <rect class="cls-14" x="575.16" y="46.95" width="3.03" height="35.28"/>
            <rect class="cls-14" x="582.46" y="46.95" width="3.03" height="35.28"/>
            <rect class="cls-14" x="589.76" y="46.95" width="3.03" height="35.28"/>
            <rect class="cls-14" x="597.06" y="46.95" width="3.03" height="35.28"/>
            <rect class="cls-14" x="604.36" y="46.95" width="3.03" height="35.28"/>
            <rect class="cls-14" x="611.66" y="46.95" width="3.03" height="35.28"/>
            <rect class="cls-14" x="618.96" y="46.95" width="3.03" height="35.28"/>
            <rect class="cls-14" x="626.26" y="46.95" width="3.03" height="35.28"/>
            <rect class="cls-14" x="633.56" y="46.95" width="3.03" height="35.28"/>
            <rect class="cls-14" x="640.86" y="46.95" width="3.03" height="35.28"/>
            <rect class="cls-14" x="648.16" y="46.95" width="3.03" height="35.28"/>
            <rect class="cls-14" x="655.47" y="46.95" width="3.03" height="35.28"/>
            <rect class="cls-14" x="662.77" y="46.95" width="3.03" height="35.28"/>
            <rect class="cls-14" x="670.07" y="46.95" width="3.03" height="35.28"/>
            <rect class="cls-14" x="677.37" y="46.95" width="3.03" height="35.28"/>
            <rect class="cls-14" x="684.67" y="46.95" width="3.03" height="35.28"/>
            <rect class="cls-14" x="691.97" y="46.95" width="3.03" height="35.28"/>
            <rect class="cls-14" x="699.27" y="46.95" width="3.03" height="35.28"/>
            <rect class="cls-14" x="706.57" y="46.95" width="3.03" height="35.28"/>
          </g>
        </g>
        <line class="cls-27" x1="673.38" y1="379.63" x2="564.43" y2="379.63"/>
        <g>
          <rect class="cls-32" x="521.31" y="47.69" width="192.92" height="35.75" rx="5.96" ry="5.96"/>
          <path class="cls-32" d="M714.23,73.8v-19.01c0-.86-.06-1.72-.18-2.56-.02-.1-.04-.23-.08-.35-1.35-7.85-8.2-13.82-16.47-13.82h-159.45c-8.26,0-15.11,5.97-16.47,13.82-.04.12-.06.25-.08.35-.12.84-.18,1.7-.18,2.56v19.01"/>
          <path class="cls-32" d="M673.38,379.63h-108.96c-29.98-1.78-47.37-19.28-52.11-52.46-.27-1.76-.47-3.57-.66-5.41l2.28-181.49v-.08c1.76-19.01,7.16-35.21,21-44.83v-11.91"/>
          <path class="cls-32" d="M560.73,379.63h108.94c30.15-1.8,47.52-19.44,52.17-52.91.23-1.62.43-3.28.59-4.96l-2.26-181.57c0-.1-.02-.21-.04-.31-1.78-18.89-7.2-34.97-20.96-44.52v-11.91"/>
        </g>
        <path class="cls-32" d="M512.32,327.17c71.76,20.92,141.6,20.77,209.53-.45"/>
        <path class="cls-32" d="M513.94,140.26c70.59,20.3,139.33,20.16,206.2-.39"/>
        <ellipse class="cls-23" cx="617.04" cy="241.31" rx="74.33" ry="61.28"/>
        <path class="cls-51" d="M617.04,296.44c-37.59,0-68.18-24.73-68.18-55.13s30.59-55.13,68.18-55.13,68.18,24.73,68.18,55.13-30.59,55.13-68.18,55.13Z"/>
      </g>
      <g>
        <g>
          <g>
            <path class="cls-21" d="M947.44,54.79v22.7c0,3.28-2.67,5.95-5.97,5.95h-181c-3.28,0-5.95-2.67-5.95-5.95v-22.7c0-.86.06-1.72.18-2.56.02-.1.04-.23.08-.35.76-2.42,3.01-4.18,5.68-4.18h181c2.69,0,4.94,1.76,5.7,4.18.04.12.06.25.08.35.12.84.18,1.7.18,2.56Z"/>
            <path class="cls-26" d="M754.53,53.66c0-.49.06-.98.18-1.44-.12.84-.18,1.7-.18,2.56v-1.13Z"/>
            <path class="cls-26" d="M947.44,53.66v1.13c0-.86-.06-1.72-.18-2.56.12.45.18.94.18,1.44Z"/>
            <path class="cls-21" d="M947.18,51.87c-.76-2.42-3.01-4.18-5.7-4.18h-181c-2.67,0-4.92,1.76-5.68,4.18,1.35-7.85,8.2-13.82,16.47-13.82h159.45c8.26,0,15.11,5.97,16.47,13.82Z"/>
            <path class="cls-6" d="M955.05,326.72c-4.66,33.47-22.03,51.1-52.17,52.91h-105.24c-29.98-1.78-47.37-19.28-52.11-52.46,71.76,20.92,141.6,20.77,209.53-.45Z"/>
            <path class="cls-21" d="M955.65,321.75c-.16,1.68-.37,3.34-.59,4.96-67.92,21.23-137.77,21.37-209.53.45-.27-1.76-.47-3.57-.66-5.41l2.28-181.49c70.59,20.3,139.33,20.16,206.2-.39.02.1.04.21.04.31l2.26,181.57Z"/>
            <path class="cls-6" d="M953.35,139.87c-66.88,20.55-135.62,20.69-206.2.39v-.08c1.76-19.01,7.16-35.21,21-44.83v-11.91h164.25v11.91c13.76,9.56,19.17,25.63,20.96,44.52Z"/>
          </g>
          <path class="cls-41" d="M769.6,82.24c-.49,0-.98,0-1.46-.01,3.38,2.68,4.55,5.42,9.04,6.92,19.98,6.64,43.98,4.85,64.84,5.27,16.23.33,36.59-2.66,51.14,6.27,6.65,4.09,8.16,10.1,8.16,17.32,0,8.84.38,17.7.56,26.54.52,25.56,1,51.12,1.45,76.68.45,25.79.89,51.57,1.19,77.37.19,16.77,3.56,34.94-3.5,50.66-6.07,13.5-17.2,24.77-30.87,30.54.36.1.72.2,1.08.3,13.33,2.67,30.71.78,43.88-2.17,17.87-4.01,34.23-19.97,38.05-37.98,1.69-7.94,1.69-16.13,1.69-24.24-.02-33.73.5-67.59-.16-101.23-.46-23.5-.92-46.99-1.38-70.49-.26-13.04-.92-27.23-9.4-37.14-3.3-3.86-7.65-6.86-10.29-11.2-2.18-3.58-1.47-7.97-1.42-11.96-54.19-.48-108.39-.96-162.58-1.44Z"/>
          <g>
            <rect class="cls-14" x="757.27" y="46.95" width="3.03" height="35.28"/>
            <rect class="cls-14" x="764.57" y="46.95" width="3.03" height="35.28"/>
            <rect class="cls-14" x="771.87" y="46.95" width="3.03" height="35.28"/>
            <rect class="cls-14" x="779.17" y="46.95" width="3.03" height="35.28"/>
            <rect class="cls-14" x="786.47" y="46.95" width="3.03" height="35.28"/>
            <rect class="cls-14" x="793.77" y="46.95" width="3.03" height="35.28"/>
            <rect class="cls-14" x="801.07" y="46.95" width="3.03" height="35.28"/>
            <rect class="cls-14" x="808.37" y="46.95" width="3.03" height="35.28"/>
            <rect class="cls-14" x="815.67" y="46.95" width="3.03" height="35.28"/>
            <rect class="cls-14" x="822.97" y="46.95" width="3.03" height="35.28"/>
            <rect class="cls-14" x="830.27" y="46.95" width="3.03" height="35.28"/>
            <rect class="cls-14" x="837.57" y="46.95" width="3.03" height="35.28"/>
            <rect class="cls-14" x="844.87" y="46.95" width="3.03" height="35.28"/>
            <rect class="cls-14" x="852.17" y="46.95" width="3.03" height="35.28"/>
            <rect class="cls-14" x="859.47" y="46.95" width="3.03" height="35.28"/>
            <rect class="cls-14" x="866.77" y="46.95" width="3.03" height="35.28"/>
            <rect class="cls-14" x="874.07" y="46.95" width="3.03" height="35.28"/>
            <rect class="cls-14" x="881.38" y="46.95" width="3.03" height="35.28"/>
            <rect class="cls-14" x="888.68" y="46.95" width="3.03" height="35.28"/>
            <rect class="cls-14" x="895.98" y="46.95" width="3.03" height="35.28"/>
            <rect class="cls-14" x="903.28" y="46.95" width="3.03" height="35.28"/>
            <rect class="cls-14" x="910.58" y="46.95" width="3.03" height="35.28"/>
            <rect class="cls-14" x="917.88" y="46.95" width="3.03" height="35.28"/>
            <rect class="cls-14" x="925.18" y="46.95" width="3.03" height="35.28"/>
            <rect class="cls-14" x="932.48" y="46.95" width="3.03" height="35.28"/>
            <rect class="cls-14" x="939.78" y="46.95" width="3.03" height="35.28"/>
          </g>
        </g>
        <line class="cls-27" x1="906.59" y1="379.63" x2="797.64" y2="379.63"/>
        <g>
          <rect class="cls-32" x="754.52" y="47.69" width="192.92" height="35.75" rx="5.96" ry="5.96"/>
          <path class="cls-32" d="M947.44,73.8v-19.01c0-.86-.06-1.72-.18-2.56-.02-.1-.04-.23-.08-.35-1.35-7.85-8.2-13.82-16.47-13.82h-159.45c-8.26,0-15.11,5.97-16.47,13.82-.04.12-.06.25-.08.35-.12.84-.18,1.7-.18,2.56v19.01"/>
          <path class="cls-32" d="M906.59,379.63h-108.96c-29.98-1.78-47.37-19.28-52.11-52.46-.27-1.76-.47-3.57-.66-5.41l2.28-181.49v-.08c1.76-19.01,7.16-35.21,21-44.83v-11.91"/>
          <path class="cls-32" d="M793.94,379.63h108.94c30.15-1.8,47.52-19.44,52.17-52.91.23-1.62.43-3.28.59-4.96l-2.26-181.57c0-.1-.02-.21-.04-.31-1.78-18.89-7.2-34.97-20.96-44.52v-11.91"/>
        </g>
        <path class="cls-32" d="M745.53,327.17c71.76,20.92,141.6,20.77,209.53-.45"/>
        <path class="cls-32" d="M747.15,140.26c70.59,20.3,139.33,20.16,206.2-.39"/>
        <ellipse class="cls-23" cx="850.25" cy="241.31" rx="74.33" ry="61.28"/>
        <path class="cls-51" d="M850.25,296.44c-37.59,0-68.18-24.73-68.18-55.13s30.59-55.13,68.18-55.13,68.18,24.73,68.18,55.13-30.59,55.13-68.18,55.13Z"/>
      </g>
    </g>
    <g id="Layer_3" data-name="Layer 3">
      <g>
        <g>
          <g>
            <rect class="cls-61" x="74.59" y="2" width="124.39" height="174.39"/>
            <g class="cls-64">
              <g class="cls-40">
                <path class="cls-7" d="M0,170.62s70.7-51.57,98.67-37.66c27.97,13.91,47.14,23.65,63.99,12.52s36.32-38.95,48.84-23.65,4.17,80.69,4.17,80.69l-166.88,2.78L0,170.62Z"/>
              </g>
            </g>
            <rect class="cls-29" x="74.59" y="2" width="124.39" height="174.39"/>
          </g>
          <polygon class="cls-23" points="106.6 98.23 114.71 168 158.9 168 169.86 98.08 106.6 98.23"/>
          <rect class="cls-8" x="89.26" y="17.8" width="95.05" height="36.59" rx="5.79" ry="5.79"/>
        </g>
        <g>
          <g>
            <rect class="cls-61" x="74.59" y="177.49" width="124.39" height="174.39"/>
            <g class="cls-62">
              <g class="cls-50">
                <path class="cls-7" d="M0,346.11s70.7-51.57,98.67-37.66,47.14,23.65,63.99,12.52,36.32-38.95,48.84-23.65,4.17,80.69,4.17,80.69l-166.88,2.78L0,346.11Z"/>
              </g>
            </g>
            <rect class="cls-29" x="74.59" y="177.49" width="124.39" height="174.39"/>
          </g>
          <polygon class="cls-23" points="106.6 273.72 114.71 343.49 158.9 343.49 169.86 273.57 106.6 273.72"/>
          <rect class="cls-8" x="89.26" y="193.29" width="95.05" height="36.59" rx="5.79" ry="5.79"/>
        </g>
        <g>
          <g>
            <rect class="cls-61" x="212.45" y="2" width="124.39" height="174.39"/>
            <g class="cls-11">
              <g class="cls-45">
                <path class="cls-7" d="M137.87,170.62s70.7-51.57,98.67-37.66c27.97,13.91,47.14,23.65,63.99,12.52s36.32-38.95,48.84-23.65,4.17,80.69,4.17,80.69l-166.88,2.78-48.79-34.68Z"/>
              </g>
            </g>
            <rect class="cls-29" x="212.45" y="2" width="124.39" height="174.39"/>
          </g>
          <polygon class="cls-23" points="244.46 98.23 252.57 168 296.77 168 307.73 98.08 244.46 98.23"/>
          <rect class="cls-8" x="227.12" y="17.8" width="95.05" height="36.59" rx="5.79" ry="5.79"/>
        </g>
        <g>
          <g>
            <rect class="cls-61" x="212.45" y="177.49" width="124.39" height="174.39"/>
            <g class="cls-4">
              <g class="cls-5">
                <path class="cls-7" d="M137.87,346.11s70.7-51.57,98.67-37.66,47.14,23.65,63.99,12.52,36.32-38.95,48.84-23.65,4.17,80.69,4.17,80.69l-166.88,2.78-48.79-34.68Z"/>
              </g>
            </g>
            <rect class="cls-29" x="212.45" y="177.49" width="124.39" height="174.39"/>
          </g>
          <polygon class="cls-23" points="244.46 273.72 252.57 343.49 296.77 343.49 307.73 273.57 244.46 273.72"/>
          <rect class="cls-8" x="227.12" y="193.29" width="95.05" height="36.59" rx="5.79" ry="5.79"/>
        </g>
        <g>
          <g>
            <rect class="cls-61" x="350.32" y="2" width="124.39" height="174.39"/>
            <g class="cls-49">
              <g class="cls-19">
                <path class="cls-7" d="M275.73,170.62s70.7-51.57,98.67-37.66c27.97,13.91,47.14,23.65,63.99,12.52s36.32-38.95,48.84-23.65c12.52,15.3,4.17,80.69,4.17,80.69l-166.88,2.78-48.79-34.68Z"/>
              </g>
            </g>
            <rect class="cls-29" x="350.32" y="2" width="124.39" height="174.39"/>
          </g>
          <polygon class="cls-23" points="382.33 98.23 390.44 168 434.64 168 445.59 98.08 382.33 98.23"/>
          <rect class="cls-8" x="364.99" y="17.8" width="95.05" height="36.59" rx="5.79" ry="5.79"/>
        </g>
        <g>
          <g>
            <rect class="cls-61" x="350.32" y="177.49" width="124.39" height="174.39"/>
            <g class="cls-20">
              <g class="cls-25">
                <path class="cls-7" d="M275.73,346.11s70.7-51.57,98.67-37.66,47.14,23.65,63.99,12.52,36.32-38.95,48.84-23.65c12.52,15.3,4.17,80.69,4.17,80.69l-166.88,2.78-48.79-34.68Z"/>
              </g>
            </g>
            <rect class="cls-29" x="350.32" y="177.49" width="124.39" height="174.39"/>
          </g>
          <polygon class="cls-23" points="382.33 273.72 390.44 343.49 434.64 343.49 445.59 273.57 382.33 273.72"/>
          <rect class="cls-8" x="364.99" y="193.29" width="95.05" height="36.59" rx="5.79" ry="5.79"/>
        </g>
      </g>
    </g>
    <g id="Layer_8" data-name="Layer 8">
      <g>
        <g>
          <g>
            <ellipse class="cls-47" cx="247.55" cy="304.95" rx="47.4" ry="63.77"/>
            <g class="cls-54">
              <path class="cls-16" d="M207.24,373.19s28.49-23.56,49.32-53.7c20.82-30.14,19.73-81.1,19.73-81.1l37.26,59.73-7.12,47.13-40.55,40.55-58.63-12.6Z"/>
            </g>
            <ellipse class="cls-33" cx="247.55" cy="304.95" rx="47.4" ry="63.77"/>
          </g>
          <g class="cls-56">
            <ellipse class="cls-28" cx="247.55" cy="304.86" rx="44.4" ry="60.34"/>
          </g>
        </g>
        <g>
          <g>
            <ellipse class="cls-47" cx="344.31" cy="304.95" rx="47.4" ry="63.77"/>
            <g class="cls-55">
              <path class="cls-16" d="M304,373.19s28.49-23.56,49.32-53.7c20.82-30.14,19.73-81.1,19.73-81.1l37.26,59.73-7.12,47.13-40.55,40.55-58.63-12.6Z"/>
            </g>
            <ellipse class="cls-33" cx="344.31" cy="304.95" rx="47.4" ry="63.77"/>
          </g>
          <g class="cls-56">
            <ellipse class="cls-28" cx="344.31" cy="304.86" rx="44.4" ry="60.34"/>
          </g>
        </g>
        <g>
          <g>
            <ellipse class="cls-47" cx="441.07" cy="304.95" rx="47.4" ry="63.77"/>
            <g class="cls-60">
              <path class="cls-16" d="M400.75,373.19s28.49-23.56,49.32-53.7c20.82-30.14,19.73-81.1,19.73-81.1l37.26,59.73-7.12,47.13-40.55,40.55-58.63-12.6Z"/>
            </g>
            <ellipse class="cls-33" cx="441.07" cy="304.95" rx="47.4" ry="63.77"/>
          </g>
          <g class="cls-56">
            <ellipse class="cls-28" cx="441.07" cy="304.86" rx="44.4" ry="60.34"/>
          </g>
        </g>
        <g>
          <g>
            <ellipse class="cls-47" cx="537.83" cy="304.95" rx="47.4" ry="63.77"/>
            <g class="cls-9">
              <path class="cls-16" d="M497.51,373.19s28.49-23.56,49.32-53.7c20.82-30.14,19.73-81.1,19.73-81.1l37.26,59.73-7.12,47.13-40.55,40.55-58.63-12.6Z"/>
            </g>
            <ellipse class="cls-33" cx="537.83" cy="304.95" rx="47.4" ry="63.77"/>
          </g>
          <g class="cls-56">
            <ellipse class="cls-28" cx="537.83" cy="304.86" rx="44.4" ry="60.34"/>
          </g>
        </g>
        <g>
          <g>
            <ellipse class="cls-47" cx="634.59" cy="304.95" rx="47.4" ry="63.77"/>
            <g class="cls-46">
              <path class="cls-16" d="M594.27,373.19s28.49-23.56,49.32-53.7c20.82-30.14,19.73-81.1,19.73-81.1l37.26,59.73-7.12,47.13-40.55,40.55-58.63-12.6Z"/>
            </g>
            <ellipse class="cls-33" cx="634.59" cy="304.95" rx="47.4" ry="63.77"/>
          </g>
          <g class="cls-56">
            <ellipse class="cls-28" cx="634.59" cy="304.86" rx="44.4" ry="60.34"/>
          </g>
        </g>
        <g>
          <g>
            <g>
              <ellipse class="cls-47" cx="179.87" cy="339.75" rx="47.4" ry="63.77"/>
              <g class="cls-12">
                <path class="cls-16" d="M139.55,407.99s28.49-23.56,49.32-53.7c20.82-30.14,19.73-81.1,19.73-81.1l37.26,59.73-7.12,47.13-40.55,40.55-58.63-12.6Z"/>
              </g>
              <ellipse class="cls-33" cx="179.87" cy="339.75" rx="47.4" ry="63.77"/>
            </g>
            <g class="cls-56">
              <ellipse class="cls-28" cx="179.87" cy="339.67" rx="44.4" ry="60.34"/>
            </g>
          </g>
          <g>
            <g>
              <ellipse class="cls-47" cx="276.63" cy="339.75" rx="47.4" ry="63.77"/>
              <g class="cls-63">
                <path class="cls-16" d="M236.31,407.99s28.49-23.56,49.32-53.7c20.82-30.14,19.73-81.1,19.73-81.1l37.26,59.73-7.12,47.13-40.55,40.55-58.63-12.6Z"/>
              </g>
              <ellipse class="cls-33" cx="276.63" cy="339.75" rx="47.4" ry="63.77"/>
            </g>
            <g class="cls-56">
              <ellipse class="cls-28" cx="276.63" cy="339.67" rx="44.4" ry="60.34"/>
            </g>
          </g>
          <g>
            <g>
              <ellipse class="cls-47" cx="373.39" cy="339.75" rx="47.4" ry="63.77"/>
              <g class="cls-53">
                <path class="cls-16" d="M333.07,407.99s28.49-23.56,49.32-53.7c20.82-30.14,19.73-81.1,19.73-81.1l37.26,59.73-7.12,47.13-40.55,40.55-58.63-12.6Z"/>
              </g>
              <ellipse class="cls-33" cx="373.39" cy="339.75" rx="47.4" ry="63.77"/>
            </g>
            <g class="cls-56">
              <ellipse class="cls-28" cx="373.39" cy="339.67" rx="44.4" ry="60.34"/>
            </g>
          </g>
          <g>
            <g>
              <ellipse class="cls-47" cx="470.15" cy="339.75" rx="47.4" ry="63.77"/>
              <g class="cls-39">
                <path class="cls-16" d="M429.83,407.99s28.49-23.56,49.32-53.7c20.82-30.14,19.73-81.1,19.73-81.1l37.26,59.73-7.12,47.13-40.55,40.55-58.63-12.6Z"/>
              </g>
              <ellipse class="cls-33" cx="470.15" cy="339.75" rx="47.4" ry="63.77"/>
            </g>
            <g class="cls-56">
              <ellipse class="cls-28" cx="470.15" cy="339.67" rx="44.4" ry="60.34"/>
            </g>
          </g>
          <g>
            <g>
              <ellipse class="cls-47" cx="566.91" cy="339.75" rx="47.4" ry="63.77"/>
              <g class="cls-57">
                <path class="cls-16" d="M526.59,407.99s28.49-23.56,49.32-53.7c20.82-30.14,19.73-81.1,19.73-81.1l37.26,59.73-7.12,47.13-40.55,40.55-58.63-12.6Z"/>
              </g>
              <ellipse class="cls-33" cx="566.91" cy="339.75" rx="47.4" ry="63.77"/>
            </g>
            <g class="cls-56">
              <ellipse class="cls-28" cx="566.91" cy="339.67" rx="44.4" ry="60.34"/>
            </g>
          </g>
          <g>
            <g>
              <ellipse class="cls-47" cx="664.28" cy="347.18" rx="47.4" ry="63.77"/>
              <g class="cls-59">
                <path class="cls-16" d="M623.97,415.42s28.49-23.56,49.32-53.7c20.82-30.14,19.73-81.1,19.73-81.1l37.26,59.73-7.12,47.13-40.55,40.55-58.63-12.6Z"/>
              </g>
              <ellipse class="cls-33" cx="664.28" cy="347.18" rx="47.4" ry="63.77"/>
            </g>
            <g class="cls-56">
              <ellipse class="cls-28" cx="664.28" cy="347.1" rx="44.4" ry="60.34"/>
            </g>
          </g>
        </g>
        <g>
          <g>
            <ellipse class="cls-47" cx="117.19" cy="396.46" rx="47.4" ry="63.77"/>
            <g class="cls-2">
              <path class="cls-16" d="M76.87,464.7s28.49-23.56,49.32-53.7c20.82-30.14,19.73-81.1,19.73-81.1l37.26,59.73-7.12,47.13-40.55,40.55-58.63-12.6Z"/>
            </g>
            <ellipse class="cls-33" cx="117.19" cy="396.46" rx="47.4" ry="63.77"/>
          </g>
          <g class="cls-56">
            <ellipse class="cls-28" cx="117.19" cy="396.38" rx="44.4" ry="60.34"/>
          </g>
        </g>
        <g>
          <g>
            <ellipse class="cls-47" cx="213.95" cy="396.46" rx="47.4" ry="63.77"/>
            <g class="cls-34">
              <path class="cls-16" d="M173.63,464.7s28.49-23.56,49.32-53.7c20.82-30.14,19.73-81.1,19.73-81.1l37.26,59.73-7.12,47.13-40.55,40.55-58.63-12.6Z"/>
            </g>
            <ellipse class="cls-33" cx="213.95" cy="396.46" rx="47.4" ry="63.77"/>
          </g>
          <g class="cls-56">
            <ellipse class="cls-28" cx="213.95" cy="396.38" rx="44.4" ry="60.34"/>
          </g>
        </g>
        <g>
          <g>
            <ellipse class="cls-47" cx="310.7" cy="396.46" rx="47.4" ry="63.77"/>
            <g class="cls-3">
              <path class="cls-16" d="M270.39,464.7s28.49-23.56,49.32-53.7c20.82-30.14,19.73-81.1,19.73-81.1l37.26,59.73-7.12,47.13-40.55,40.55-58.63-12.6Z"/>
            </g>
            <ellipse class="cls-33" cx="310.7" cy="396.46" rx="47.4" ry="63.77"/>
          </g>
          <g class="cls-56">
            <ellipse class="cls-28" cx="310.7" cy="396.38" rx="44.4" ry="60.34"/>
          </g>
        </g>
        <g>
          <g>
            <ellipse class="cls-47" cx="407.46" cy="396.46" rx="47.4" ry="63.77"/>
            <g class="cls-44">
              <path class="cls-16" d="M367.15,464.7s28.49-23.56,49.32-53.7c20.82-30.14,19.73-81.1,19.73-81.1l37.26,59.73-7.12,47.13-40.55,40.55-58.63-12.6Z"/>
            </g>
            <ellipse class="cls-33" cx="407.46" cy="396.46" rx="47.4" ry="63.77"/>
          </g>
          <g class="cls-56">
            <ellipse class="cls-28" cx="407.46" cy="396.38" rx="44.4" ry="60.34"/>
          </g>
        </g>
        <g>
          <g>
            <ellipse class="cls-47" cx="504.22" cy="396.46" rx="47.4" ry="63.77"/>
            <g class="cls-22">
              <path class="cls-16" d="M463.91,464.7s28.49-23.56,49.32-53.7c20.82-30.14,19.73-81.1,19.73-81.1l37.26,59.73-7.12,47.13-40.55,40.55-58.63-12.6Z"/>
            </g>
            <ellipse class="cls-33" cx="504.22" cy="396.46" rx="47.4" ry="63.77"/>
          </g>
          <g class="cls-56">
            <ellipse class="cls-28" cx="504.22" cy="396.38" rx="44.4" ry="60.34"/>
          </g>
        </g>
        <g>
          <g>
            <ellipse class="cls-47" cx="601.6" cy="403.89" rx="47.4" ry="63.77"/>
            <g class="cls-65">
              <path class="cls-16" d="M561.28,472.13s28.49-23.56,49.32-53.7c20.82-30.14,19.73-81.1,19.73-81.1l37.26,59.73-7.12,47.13-40.55,40.55-58.63-12.6Z"/>
            </g>
            <ellipse class="cls-33" cx="601.6" cy="403.89" rx="47.4" ry="63.77"/>
          </g>
          <g class="cls-56">
            <ellipse class="cls-28" cx="601.6" cy="403.81" rx="44.4" ry="60.34"/>
          </g>
        </g>
      </g>
    </g>
    <g id="Layer_6" data-name="Layer 6">
      <g>
        <path class="cls-18" d="M405.09,480.04c-15.98,0-30.83-9.12-36.04-22.5-1.07-2.75-1.7-5.46-2.3-8.09-.58-2.52-1.13-4.9-2.01-6.96-1.26-2.95-3.8-5.22-5.56-4.93-1.05.17-2.32,1.31-3.17,2.84-1.11,2.02-1.68,4.64-2.29,7.42l-.07.34c-2.07,9.46-5.06,19.04-12.9,24.98-8.16,6.18-18.65,6.16-26.31,6.14-5.76-.01-13.65-.03-20.07-4.61-4.5-3.22-7.77-8.39-9.73-15.37-.63-2.24-1.08-4.45-1.53-6.59-.53-2.56-1.03-4.99-1.77-7.24-1.26-3.84-3.06-6.29-5.67-7.73-1.43-.79-2.98-.44-3.95.88-1.4,1.9-2.05,4.76-2.74,7.8-.32,1.41-.65,2.87-1.08,4.36-4.73,16.34-20.49,28.58-37.49,29.11-16.99.53-33.49-10.71-39.23-26.72-.71-1.99-1.24-3.94-1.75-5.84-.75-2.77-1.45-5.4-2.6-7.54-1.32-2.46-3.82-4.28-5.36-3.91-1.21.3-2.54,1.99-3.31,4.22-.54,1.56-.85,3.36-1.19,5.26-.57,3.27-1.22,6.98-3.22,10.55-2.97,5.31-6.37,10.45-10.09,15.27-1.71,2.21-3.8,4.71-6.96,6.27-3.59,1.78-7.36,1.72-10.1,1.69l-28.67-.4c-.27,0-.56.01-.86.03-2.11.09-5.65.26-8.54-2.21-2.35-2-3.63-4.96-4.65-7.33-.29-.67-.56-1.31-.78-1.72l-.89-1.7c-1.06-2.02-2.11-4.04-3.18-6.06-2.43-4.6-5.35-10.01-8.56-15.33-4.55-7.54-11.38-13.77-19.23-17.54v-8.66l-.5-12.69,2.02.69,534.93-.26,104.36-94.98-4.73,71.88-57.34,54.22,3.31-18.05c.19-1.05.01-2.43-.2-4.03l-.1-.76c-.07-.55-.25-.95-.37-1.14-.38.04-1.14.33-1.74.94-1.28,1.31-2.2,3.48-3.18,5.78l-.44,1.03c-5.92,13.74-15.12,26.07-26.6,35.67l-9.17-7.38c2.39-4.58,3.83-9.73,4.18-14.88.08-1.26,0-2.03-.09-2.46-.46.19-1.23.71-2.3,2.09-3.35,4.35-4.77,10.25-6.26,16.49-.3,1.23-.59,2.47-.9,3.69-1.02,4.02-2.58,9.27-5.54,14.18-1.73,2.87-4.13,6.41-7.34,8.34-3.12,1.88-7.04,2.15-10.19,2.37-.53.04-1.03.07-1.49.11-7.06.66-14.14.26-21.06-1.2-5.81-1.22-9.98-3.69-13.55-7.99-2.63-3.18-4.78-7.15-6.55-12.14-.74-2.07-1.37-4.15-1.98-6.16-1.18-3.86-2.29-7.51-4-10.7-1.56-2.89-3.6-4.16-4.21-4-.51.13-1.61,1.34-2.56,4.15-.87,2.57-1.47,5.31-2.11,8.2-.51,2.32-1.04,4.71-1.73,7.12-2.17,7.56-5.49,13.01-10.16,16.65-8.21,6.42-19.22,5.97-26.49,5.67-5.72-.24-13.54-.56-19.75-5.31-4.63-3.54-7.11-8.6-9.1-12.66l-8.17-16.68c-1-2.04-1.94-3.97-3.16-5.26-.62-.66-1.04-.87-1.2-.94-.05.03-.14.07-.25.15-1.28.91-2.4,2.81-3,5.1-.46,1.74-.71,3.67-.97,5.71-.36,2.76-.73,5.61-1.65,8.56-4.49,14.31-19.2,21.65-31.78,22.58-1.03.08-2.05.11-3.08.11ZM359.54,425.53c7.54,0,13.6,6.08,16.23,12.25,1.3,3.04,2,6.07,2.67,8.99.53,2.31,1.03,4.49,1.79,6.42,3.62,9.29,15.25,15.63,27.05,14.77,8.26-.61,18.43-5.31,21.22-14.2.61-1.94.9-4.16,1.2-6.51.3-2.32.61-4.73,1.26-7.21,1.33-5.08,4.05-9.29,7.67-11.85,5.52-3.91,12.08-3.01,17.13,2.35,2.46,2.61,3.91,5.58,5.2,8.21l8.17,16.68c1.59,3.24,3.22,6.59,5.61,8.41,2.96,2.26,7.62,2.63,12.96,2.85,7.31.3,14.23.29,18.61-3.13,2.6-2.03,4.57-5.47,6.01-10.51.59-2.04,1.05-4.15,1.54-6.39.68-3.08,1.38-6.26,2.46-9.46,2.79-8.27,7.5-11.06,10.96-11.94,6.63-1.69,13.59,2.21,17.75,9.94,2.28,4.24,3.62,8.64,4.91,12.89.6,1.96,1.16,3.82,1.81,5.62,1.3,3.65,2.77,6.43,4.49,8.51,1.81,2.18,3.65,3.24,6.78,3.9,5.73,1.21,11.6,1.54,17.46.99.54-.05,1.15-.09,1.79-.14,1.31-.09,4.04-.28,4.85-.69.22-.13,1.2-.89,3.22-4.25,1.67-2.77,2.96-6.15,4.18-10.93.3-1.17.58-2.35.86-3.53,1.64-6.86,3.51-14.64,8.43-21.02,2.19-2.84,4.55-4.75,7.21-5.86,4.07-1.68,8.62-1.2,11.88,1.26,2.8,2.11,4.39,5.28,4.75,9.46,3.4-4.79,6.29-9.93,8.62-15.32l.42-.97c1.31-3.08,2.79-6.56,5.65-9.49,4.58-4.68,11.3-5.91,16.34-2.97,2.04,1.19,3.68,2.98,4.78,5.17l32.21-30.46,2.47-37.49-85.78,78.08-531.84.26c8.22,4.82,15.31,11.8,20.26,20,3.37,5.58,6.39,11.18,8.9,15.93,1.08,2.04,2.14,4.08,3.21,6.12l.89,1.7c.42.81.8,1.68,1.16,2.53.29.66.7,1.63,1.07,2.32.2,0,.39-.02.56-.02.56-.02,1.09-.05,1.58-.04l28.67.4c1.61.02,3.62.05,4.61-.44.87-.43,1.89-1.7,2.78-2.85,3.36-4.35,6.43-8.99,9.11-13.79,1-1.79,1.4-4.1,1.87-6.76.38-2.18.81-4.64,1.66-7.11,2.17-6.28,6.46-10.64,11.78-11.95,8.19-2.02,15.49,3.7,18.81,9.88,1.81,3.37,2.73,6.79,3.62,10.1.47,1.74.91,3.38,1.46,4.91,3.96,11.07,15.83,19.12,27.55,18.77,11.75-.37,23.07-9.16,26.34-20.45.33-1.15.61-2.38.91-3.68.89-3.91,1.9-8.34,4.78-12.25,4.54-6.17,12.7-7.97,19.4-4.28,5.35,2.95,9.04,7.69,11.28,14.49.96,2.9,1.55,5.78,2.12,8.56.42,2.03.82,3.94,1.33,5.78,1.2,4.28,2.93,7.26,5.15,8.84,3.05,2.18,7.74,2.37,13.12,2.38,7.71,0,14.47-.25,19.03-3.71,4.97-3.77,6.95-11.26,8.42-17.98l.07-.33c.73-3.33,1.55-7.1,3.49-10.64,2.69-4.91,7-8.16,11.81-8.92.76-.12,1.51-.18,2.24-.18Z"/>
        <path d="M711.68,385.15c-.06.06-106.94,97.93-116.74,100.26h-42.63c-10.72-5.58-16.59-16.86-20.94-29.93-2.89,17.08-11.28,27.12-25.35,29.93h-38.85c-8.77-5.22-15.45-13.85-19.57-26.62-3.61,14.49-11.32,23.62-23.69,26.62h-41.86c-10.21-5.37-16.86-15.76-21.79-28.55-2.37,12.39-10.05,21.66-21.77,28.55h-41.06c-11.46-5.02-18.89-15.55-23.69-29.66-2.03,12.87-10.53,22.4-23.42,29.66h-43.26c-12-6.62-20.37-17.06-25.35-31.03-4.73,16.1-13.39,26.26-25.63,31.03l-49.32-.72c-8.24-5.93-29.74-45.37-29.74-45.37-12.58-2.94-18.04-12.12-16.39-27.52l9.15-7.91h535.06l99.11-95.23c2.58-.18,9.16.43,11.12,2.27,1.83,1.72-2.19,73.12-3.4,74.22Z"/>
        <g>
          <path class="cls-17" d="M72.78,412.22l537.25-.27,95.07-86.53-3.6,54.69-42.29,40c.41-2.22.04-4.39-.24-6.63s-1.37-4.5-3.32-5.63c-2.87-1.67-6.71-.39-9.03,1.99s-3.53,5.59-4.84,8.64c-5.56,12.88-14.17,24.44-24.94,33.44,2.78-5.34,4.44-11.25,4.84-17.26.19-2.87-.1-6.17-2.4-7.9-1.67-1.26-4.04-1.3-5.97-.5s-3.48,2.32-4.76,3.98c-4.89,6.34-6.26,14.6-8.23,22.37-1.1,4.35-2.53,8.7-4.86,12.56-1.25,2.08-3.16,5.02-5.3,6.3-2.31,1.39-6.5,1.39-9.15,1.64-6.43.6-12.94.24-19.26-1.1-4.25-.9-7.35-2.55-10.16-5.94-2.5-3.02-4.21-6.65-5.52-10.32-2.11-5.91-3.38-12.16-6.35-17.68-2.22-4.12-6.45-8.13-10.98-6.97-3.54.91-5.59,4.58-6.76,8.05-1.71,5.08-2.44,10.43-3.92,15.58s-3.86,10.28-8.09,13.58c-6.17,4.82-14.73,4.72-22.55,4.4-5.71-.23-11.82-.61-16.35-4.08-3.44-2.63-5.45-6.65-7.35-10.54-2.72-5.56-5.45-11.12-8.17-16.68-1.17-2.38-2.36-4.8-4.18-6.73-2.66-2.83-5.98-3.91-9.29-1.57-2.77,1.96-4.49,5.25-5.33,8.48-1.2,4.59-1.12,9.46-2.54,13.99-3.42,10.9-15.11,17.55-26.5,18.39-13.51,1-28.17-5.95-33.08-18.58-1.92-4.93-2.3-10.37-4.38-15.23s-6.79-9.33-12.01-8.5c-3.25.52-5.9,3-7.48,5.88s-2.26,6.16-2.96,9.37c-1.74,7.98-4.15,16.54-10.66,21.48-6.28,4.76-14.79,4.94-22.67,4.93-5.75-.01-11.92-.15-16.59-3.49-3.93-2.81-6.14-7.45-7.44-12.1s-1.87-9.5-3.38-14.08c-1.56-4.73-4.09-8.69-8.47-11.11-3.99-2.2-8.88-1.21-11.67,2.58-2.95,4.01-3.37,9.26-4.76,14.04-4,13.83-17.52,24.33-31.91,24.78s-28.54-9.19-33.39-22.75c-1.68-4.7-2.35-9.79-4.71-14.2s-7.23-8.09-12.08-6.89c-3.73.92-6.29,4.45-7.54,8.08-1.7,4.92-1.43,10.3-3.97,14.84-2.84,5.07-6.05,9.93-9.6,14.53-1.37,1.78-2.86,3.56-4.87,4.56-2.24,1.11-4.86,1.1-7.36,1.06-6.37-.09-12.74-.18-19.11-.27-3.19-.04-6.37-.09-9.56-.13-1.7-.02-4.2.45-5.6-.75-1.81-1.54-2.9-5.17-4-7.26-1.36-2.6-2.71-5.2-4.08-7.79-2.79-5.28-5.64-10.52-8.73-15.63-5.15-8.52-12.79-15.53-21.77-19.85"/>
          <g class="cls-43">
            <path class="cls-13" d="M163.71,437.46c-3.84,3.27-6.92,7.38-9.78,11.56-3.2,4.68-6.19,9.53-9.97,13.76-4.72,5.28-10.63,9.49-17.16,12.23,1.08-.52,3.7-.02,4.92-.03,1.77-.01,3.53-.02,5.3-.03,3.66-.02,7.32-.04,10.98-.07,2.72-.02,5.87.53,8.29-.87,2.6-1.5,4.9-3.5,6.94-5.69,7.01-7.54,12.36-16.44,17.63-25.29,1.32-2.22,3.53-6.75,2.64-9.39-1.1-3.28-5.71-2.52-8.31-2.01-3.67.72-7.12,2.44-10.08,4.7-.48.37-.95.75-1.41,1.14Z"/>
            <path class="cls-13" d="M258.57,437.46c-3.84,3.27-6.92,7.38-9.78,11.56-3.2,4.68-6.19,9.53-9.97,13.76-4.72,5.28-10.63,9.49-17.16,12.23,1.08-.52,3.7-.02,4.92-.03,1.77-.01,3.53-.02,5.3-.03,3.66-.02,7.32-.04,10.98-.07,2.72-.02,5.87.53,8.29-.87,2.6-1.5,4.9-3.5,6.94-5.69,7.01-7.54,12.36-16.44,17.63-25.29,1.32-2.22,3.53-6.75,2.64-9.39-1.1-3.28-5.71-2.52-8.31-2.01-3.67.72-7.12,2.44-10.08,4.7-.48.37-.95.75-1.41,1.14Z"/>
            <path class="cls-13" d="M341.57,437.46c-3.84,3.27-6.92,7.38-9.78,11.56-3.2,4.68-6.19,9.53-9.97,13.76-4.72,5.28-10.63,9.49-17.16,12.23,1.08-.52,3.7-.02,4.92-.03,1.77-.01,3.53-.02,5.3-.03,3.66-.02,7.32-.04,10.98-.07,2.72-.02,5.87.53,8.29-.87,2.6-1.5,4.9-3.5,6.94-5.69,7.01-7.54,12.36-16.44,17.63-25.29,1.32-2.22,3.53-6.75,2.64-9.39-1.1-3.28-5.71-2.52-8.31-2.01-3.67.72-7.12,2.44-10.08,4.7-.48.37-.95.75-1.41,1.14Z"/>
            <path class="cls-13" d="M429.09,437.46c-3.84,3.27-6.92,7.38-9.78,11.56-3.2,4.68-6.19,9.53-9.97,13.76-4.72,5.28-10.63,9.49-17.16,12.23,1.08-.52,3.7-.02,4.92-.03,1.77-.01,3.53-.02,5.3-.03,3.66-.02,7.32-.04,10.98-.07,2.72-.02,5.87.53,8.29-.87,2.6-1.5,4.9-3.5,6.94-5.69,7.01-7.54,12.36-16.44,17.63-25.29,1.32-2.22,3.53-6.75,2.64-9.39-1.1-3.28-5.71-2.52-8.31-2.01-3.67.72-7.12,2.44-10.08,4.7-.48.37-.95.75-1.41,1.14Z"/>
            <path class="cls-13" d="M511.53,437.46c-3.84,3.27-6.92,7.38-9.78,11.56-3.2,4.68-6.19,9.53-9.97,13.76-4.72,5.28-10.63,9.49-17.16,12.23,1.08-.52,3.7-.02,4.92-.03,1.77-.01,3.53-.02,5.3-.03,3.66-.02,7.32-.04,10.98-.07,2.72-.02,5.87.53,8.29-.87,2.6-1.5,4.9-3.5,6.94-5.69,7.01-7.54,12.36-16.44,17.63-25.29,1.32-2.22,3.53-6.75,2.64-9.39-1.1-3.28-5.71-2.52-8.31-2.01-3.67.72-7.12,2.44-10.08,4.7-.48.37-.95.75-1.41,1.14Z"/>
            <path class="cls-13" d="M594.53,437.46c-3.84,3.27-6.92,7.38-9.78,11.56-3.2,4.68-6.19,9.53-9.97,13.76-4.72,5.28-10.63,9.49-17.16,12.23,1.08-.52,3.7-.02,4.92-.03,1.77-.01,3.53-.02,5.3-.03,3.66-.02,7.32-.04,10.98-.07,2.72-.02,5.87.53,8.29-.87,2.6-1.5,4.9-3.5,6.94-5.69,7.01-7.54,12.36-16.44,17.63-25.29,1.32-2.22,3.53-6.75,2.64-9.39-1.1-3.28-5.71-2.52-8.31-2.01-3.67.72-7.12,2.44-10.08,4.7-.48.37-.95.75-1.41,1.14Z"/>
          </g>
        </g>
      </g>
      <g>
        <path class="cls-58" d="M261.03,782.19c0,.68.04,1.35.11,2.03.19,1.16.5,2.28.92,3.38.44.93.95,1.82,1.55,2.67.03.04.06.08.09.12.17.2.32.4.5.59.4.45.82.88,1.27,1.29.2.18.4.36.61.54.07.06.13.11.2.16.47.28.91.67,1.38.97.85.54,1.74,1.01,2.66,1.42,1.62.64,3.3,1.1,5.03,1.37,1.77.18,3.55.16,5.32-.04,2.35-.36,4.63-1.02,6.84-1.91,2.88-1.27,5.54-2.9,8.07-4.77.09-.06.17-.13.25-.19.35-.28.69-.56,1.03-.85.63-.53,1.25-1.07,1.85-1.64,1.27-1.17,2.48-2.39,3.65-3.65,2.3-2.48,4.44-5.1,6.53-7.75.51-.65,1.02-1.3,1.53-1.96.12-.16.25-.32.37-.48.29-.38.58-.76.87-1.14.53-.69,1.06-1.38,1.6-2.07-1.58.64-3.17,1.25-4.79,1.79-3.41,1.15-6.88,1.93-10.45,2.36-5.94.73-11.93-.16-17.4-2.54-2.64-1.15-5.09-2.77-7.19-4.75-.91-.86-1.72-1.78-2.45-2.77-.09.08-.19.15-.28.23-1.26,1.07-2.47,2.21-3.59,3.44-.5.55-.98,1.12-1.45,1.69-.11.16-.23.31-.34.47-.23.32-.45.64-.66.97-.78,1.2-1.45,2.46-2.04,3.76-.67,1.69-1.17,3.43-1.46,5.22-.06.55-.09,1.09-.11,1.64,0,.14,0,.27-.01.41Z"/>
        <path class="cls-58" d="M334.65,622.21c.01.19.03.38.05.57.02.07.07.43.07.44.09.46.2.92.32,1.38.51,1.89,1.2,3.73,1.81,5.58.61,1.82,1.21,3.64,1.82,5.45.6,1.82,1.21,3.64,1.81,5.46.14.42.28.85.44,1.27,0,0,.09.21.13.32.06.11.15.33.15.33.1.19.2.38.32.56.04.06.21.28.25.33.18.19.36.38.56.56,0,0,.01,0,.02.01.02.01.03.02.05.03.15.09.28.18.43.26.15.08.29.15.45.23,0,0,.01,0,.02.01.02,0,.03.01.05.02.27.08.54.18.82.25.17.05.34.08.51.11.12.03.23.05.34.06-.03,0-.06,0-.09-.01.06.17,1.78.08,1.97.07.3-.01.61-.03.91-.06.18-.02.36-.04.54-.06.02,0,.03,0,.04,0,.08-.02.17-.03.25-.04,1.51-.24,3-.62,4.46-1.06.73-.22,1.45-.46,2.17-.71.39-.14.78-.28,1.17-.44.19-.08.39-.15.58-.23.02-.01.24-.1.33-.14,3.26-1.41,6.36-3.2,9.21-5.32.13-.1.26-.2.4-.3,0,0,.41-.32.46-.36.32-.26.64-.52.96-.79.46-.38.9-.78,1.34-1.18.11-.35.22-.7.31-1.05.64-2.48.83-4.71.61-7.4-.02-.3-.05-.59-.09-.89v-.02s-.02-.09-.04-.18c-.11-.6-.22-1.2-.38-1.78-.13-.52-.28-1.04-.45-1.55-.24-.7-.35-.99-.51-1.32-.48-.96-1-1.87-1.6-2.76-.05-.08-.09-.14-.13-.19-.17-.21-.34-.41-.52-.61-.1-.12-.2-.24-.29-.35.01.02.02.04.03.05-2-2.09-4.26-3.42-6.97-4.25-2.24-.68-4.3-.99-6.49-1.09-3.44.77-6.87,1.65-10.22,2.75-.68.22-1.36.47-2.03.73-.05.02-.08.04-.13.06-.06.03-.28.12-.33.14-.39.18-.77.36-1.14.55-.58.3-1.14.63-1.68,1-.1.07-.49.37-.51.37-.26.22-.52.44-.76.68-.22.22-.43.45-.63.67,0,.01-.01.02-.02.02,0,0-.01.01-.02.02-.01.02-.03.04-.04.06,0,.01-.02.02-.02.03l-.02.02s0,0,0,.01c-.02.02-.03.03-.04.05,0,.01-.01.02-.01.02-.05.07-.09.13-.13.2-.18.28-.33.57-.48.87-.04.08-.07.12-.08.14-.05.14-.08.3-.11.42-.05.17-.08.34-.13.51-.02.08-.04.13-.05.17,0,.04,0,.08-.01.15-.03.39-.04.77-.02,1.16Z"/>
        <path class="cls-58" d="M304.75,720.75c1.14.99,1.34,2.84.79,4.15-.26.62-.63,1.1-1.17,1.52-.71.55-1.39.71-2.3.82-.26.03-.53.07-.79.1-3.96.57-7.86,1.55-11.57,3.06-1.59.7-3.13,1.49-4.6,2.41-.79.49-1.54,1.01-2.29,1.56-.15.12-.3.24-.45.37-.36.3-.72.61-1.07.93-.66.61-1.3,1.24-1.9,1.91-.28.32-.56.65-.83.98-.12.16-.24.33-.35.49-.94,1.33-1.73,2.75-2.39,4.22-.68,1.72-1.19,3.5-1.48,5.32-.16,1.54-.18,3.07-.02,4.61.21,1.28.55,2.53,1.01,3.74.43.94.94,1.84,1.53,2.69-.07-.09.12.2.23.34-.02-.03-.04-.06-.06-.08-.03-.05-.07-.1-.1-.15.05.07.12.16.21.29.17.2.34.41.52.61.41.46.85.9,1.31,1.32.22.2.44.4.66.58.07.06.14.12.21.18.46.33.91.65,1.39.95.94.59,1.92,1.1,2.93,1.55,1.99.79,4.06,1.34,6.18,1.67,2.49.29,4.98.25,7.47-.03,4.78-.7,9.38-2.24,13.83-4.09,3.15-1.35,6.25-2.81,9.34-4.29.9-.43,1.8-.87,2.7-1.31.08-.05.17-.09.25-.13,1.84-.91,3.66-1.85,5.45-2.85,2.56-1.43,5.07-2.99,7.45-4.72.22-.17.45-.34.67-.51-.02,0-.03.02-.04.02.14-.11.33-.25.43-.33.59-.48,1.18-.97,1.75-1.48,1.08-.96,2.11-1.98,3.08-3.05.38-.42.73-.86,1.08-1.29,0-.01.51-.66.65-.86.21-.3.42-.61.62-.92.81-1.24,1.51-2.55,2.11-3.9.74-1.88,1.26-3.82,1.57-5.8.4-3.38.26-6.79-.16-10.16-.27-1.88-.66-3.73-.94-5.6-.21-1.37-.37-2.75-.55-4.13-.37-2.72-.82-5.48-1.8-8.04-.03-.06-.06-.12-.09-.18-.67.36-1.57.55-2.36.45-1.39,1.27-3.89,1.2-5.17-.19-.15-.16-.28-.32-.39-.5-2.74,1.14-5.45,2.32-8.16,3.54-1.19-4.04-2.25-8.2-3.16-12.44-1.24.28-2.59.04-3.45-.99-2.58-3.1-5.44-5.96-8.54-8.54-.39-.32-.78-.64-1.18-.95-.16-.13-.33-.25-.48-.38,0,.01.01.02.02.03-.06-.05-.1-.09-.14-.11-.8-.61-1.62-1.2-2.45-1.76-1.23-.84-2.49-1.64-3.77-2.39-4.94,1.29-9.85,2.62-14.7,4.11-6.35,1.95-12.46,4.17-18.33,6.99.7,5.3.85,10.68.41,16.01,8.63,1.39,16.96,4.48,24.3,9.28,2.47,1.62,4.84,3.43,7.07,5.38Z"/>
        <path class="cls-58" d="M352.02,697.25c.05.22.1.43.15.65.02.07.04.13.05.19.33.67.56,1.38.68,2.11.25.72.53,1.43.81,2.13.88,2.04,1.92,4.02,3.14,5.87.28.43.58.85.88,1.27.1.13.19.26.29.4.02.02.03.04.05.06.64.81,1.33,1.58,2.04,2.32.72.75,1.47,1.45,2.25,2.12.34.29.7.56,1.04.86-.04-.04-.08-.07-.12-.1.05.04.09.07.12.09.21.15.42.3.62.45,1.53,1.06,3.14,1.97,4.84,2.73,1.84.73,3.75,1.26,5.72,1.55,2.25.25,4.53.33,6.78.09,1.07-.17,2.11-.43,3.13-.81.5-.24.99-.5,1.46-.81.06-.04.11-.08.17-.12.23-.19.46-.4.66-.61.16-.16.3-.33.45-.5.06-.09.13-.18.18-.28.27-.41.5-.85.71-1.29.38-1,.63-2.04.8-3.1.31-2.86.12-5.75-.24-8.6-.59-4.18-1.51-8.31-2.33-12.45-.29-1.46-.55-2.93-.82-4.4,0-.03-.01-.07-.02-.1-11.41,2.87-22.58,6.3-33.52,10.28Z"/>
        <path class="cls-58" d="M35.1,728.15c.18,2.44.44,4.87.75,7.29,1.3,9.43,3.57,18.72,6.76,27.69.85,2.4,1.77,4.77,2.75,7.12,3.52,8.27,7.81,16.2,12.83,23.65.76,1.12,1.53,2.23,2.31,3.32,10.49-5.27,22.02-8.02,33.72-8.98,13.38-1.09,26.57.51,39.8,2.36,1.71.24,3.43.48,5.14.72.83.11,1.65.23,2.47.34.03,0,.04,0,.06,0,.02,0,.05.01.07.01.19.03.39.05.57.08.51.07,1.02.14,1.53.2,3.42.44,6.85.84,10.28,1.15,6.93.62,13.92.9,20.87.4,1.72-.12,3.44-.29,5.15-.52.15-.03.52-.08.62-.09.44-.07.88-.14,1.31-.21.86-.14,1.71-.3,2.57-.47,3.26-.65,6.49-1.51,9.68-2.48,6.34-1.93,12.53-4.3,18.78-6.5,13.01-4.59,26.55-8.06,40.41-5.98.14.02.28.05.43.07.71-3.44,2.05-6.74,3.94-9.72,2.38-3.77,5.52-6.97,9.03-9.7.19-.15.38-.29.57-.44-1.51-5.04-1.08-10.72.73-15.61,1.16-3.12,2.74-5.89,4.8-8.5,1.95-2.47,4.38-4.53,6.97-6.3,3.86-2.65,8.29-4.52,12.84-5.75-.06-.04-.11-.07-.17-.11-2.44-1.52-5-2.84-7.64-3.98-4.09-1.67-8.34-2.9-12.69-3.64-.71,3.74-1.72,7.41-3.06,10.99-3.69,9.88-9.49,18.92-17.01,26.33-4.2,4.15-8.95,7.81-14.04,10.8-1.72,1-4.25.45-5.21-1.36-.96-1.83-.47-4.13,1.36-5.21,1.25-.73,2.48-1.51,3.68-2.32.54-.37,1.08-.75,1.62-1.13.27-.19.53-.39.8-.58.14-.1.56-.44.71-.55,2.05-1.66,4.05-3.37,5.92-5.24,1.99-1.98,3.85-4.07,5.58-6.27.03-.04.05-.07.07-.1.03-.03.05-.06.06-.08.03-.04.06-.07.07-.09.02-.02.03-.04.05-.06h0s.03-.04.03-.04h0s0-.01,0-.01c.15-.2.29-.39.44-.59.45-.61.89-1.23,1.32-1.85.8-1.17,1.57-2.36,2.3-3.57,1.54-2.57,2.9-5.25,4.1-8.01,2.12-5.15,3.57-10.56,4.37-16.08.61-4.86.71-9.77.29-14.64-1.22.73-2.43,1.49-3.62,2.3-8.13,5.47-15.42,12.48-22.75,19.36-7.47,7.01-15.11,13.79-23.62,19.53-8.28,5.59-17.16,10.18-26.41,13.93-18.22,7.38-38.09,11-57.74,10.39-2.41-.08-4.82-.22-7.22-.42-1.98-.17-3.9-1.63-3.8-3.8.09-1.92,1.68-3.98,3.8-3.8,19.27,1.62,37.73-.78,55.97-7.09,8.88-3.07,17.16-6.92,25.45-11.9,8.48-5.09,15.53-10.6,22.79-17.22,7.4-6.75,14.47-13.89,22.33-20.12,4.12-3.27,8.4-6.32,12.98-8.91.97-.55,1.95-1.07,2.93-1.58.15-.09.29-.17.44-.23,3.81-1.95,7.75-3.64,11.74-5.16,10.09-3.85,20.59-6.45,31.02-9.17,10.14-2.64,20.84-5.5,30.19-9.55,4.7-2.04,9.26-4.41,13.55-7.21,2.04-1.33,3.51-2.39,5.12-3.75,1.77-1.48,3.44-3.08,4.97-4.8.09-.1.17-.2.25-.3-.95.54-1.92,1.06-2.91,1.54-3.17,1.51-6.5,2.72-9.93,3.48-3.31.73-6.85.98-10.03-.4-1.59-.69-2.93-1.89-3.8-3.38-1.03-1.75-1.54-3.85-2.17-5.76-1.29-3.88-2.58-7.75-3.87-11.63-.66-1.98-1.29-3.99-1.39-6.09-.09-1.89.37-3.8,1.32-5.42.73-1.25,1.72-2.3,2.84-3.2-1.59.35-3.19.73-4.79,1.12-13.27,3.24-26.11,7.99-38.94,12.62-12.73,4.59-25.55,9.13-38.82,11.92-6.68,1.4-13.48,2.38-20.3,2.72-6.34.32-12.68,0-19.01-.27-7.07-.31-14.17-.61-21.23.1-2.84.28-6,.84-9.24,1.79-3.45,1.02-5.83,2.07-8.99,4.02-1.75,1.07-4.19.38-5.21-1.36-1.06-1.81-.39-4.13,1.36-5.21,11.46-7.06,25.17-7.6,38.24-7.15,6.44.22,12.87.65,19.32.61,3.43-.02,6.86-.21,10.27-.55,3.3-.33,6.24-.78,9.71-1.43,26.06-4.91,50.07-16.78,75.54-23.77.2-2.57.43-5.16.67-7.76-5.29.13-10.58.19-15.85-.31-5.26-.5-10.47-1.39-15.63-2.51-10.05-2.19-19.89-5.2-29.96-7.3-9.63-2.02-19.34-2.86-29.16-1.95-9.54.88-19.07,3.37-28.11,6.71-18.7,6.9-35.57,17.83-51.7,29.37-16.69,11.93-32.84,24.67-50.52,35.13-17.69,10.47-37.18,18.45-57.74,20.68-1.48.16-2.97.28-4.46.38-1.67,6.03-2.93,12.16-3.8,18.36-1.24,9.48-1.54,19.08-.83,28.62Z"/>
        <path class="cls-58" d="M772.4,567.04c.13,1.64.28,3.27.49,4.91.43,2.99,1.09,5.95,2.21,8.75.43.95.91,1.88,1.46,2.77.16.25.31.49.48.73.09.13.19.26.28.4.02.03.05.06.08.1.02.03.04.05.05.06.09.1.17.2.25.3.23.26.46.52.7.78.47.49.96.95,1.48,1.38.02.02.09.08.17.14.13.08.26.17.39.28.15.1.29.21.44.3.97.64,1.99,1.19,3.05,1.66,1.84.72,3.76,1.22,5.71,1.53,2.65.31,5.32.28,7.97-.03,7.58-1.13,14.62-4.36,21.65-7.28-5.02-2.35-10.05-4.68-15.13-6.86-10.19-4.37-20.81-8.11-31.72-9.91Z"/>
        <path class="cls-58" d="M733.08,568.3c.32.51.65,1.02.98,1.52.7,1.04,1.42,2.07,2.18,3.07,0,0,0,.01.01.01.03.04.06.07.09.12.19.24.38.48.57.71.4.48.8.96,1.2,1.42,1.46,1.67,3.04,3.24,4.71,4.71.41.35.82.7,1.24,1.04.18.15.36.3.55.45.04.03.08.06.12.09.91.68,1.84,1.35,2.81,1.97,1.96,1.26,4.02,2.36,6.15,3.29,2.7,1.08,5.51,1.87,8.39,2.31,2.49.29,4.99.28,7.48,0,.5-.08.99-.16,1.49-.26-1.65-2.26-2.92-4.8-3.84-7.52-1.63-4.84-2.13-9.99-2.48-15.09-2.11-.16-4.22-.23-6.35-.21-8.49.07-16.88,1.37-25.3,2.39Z"/>
        <path class="cls-58" d="M675.87,545.35c1.05,2,2.4,3.77,3.95,5.32,1.88.44,3.77.87,5.67,1.2,1.42.24,2.55.4,4.21.47,1.36.07,2.73.04,4.09-.12.07,0,.24-.03.29-.04.07-.01.14-.02.2-.03.3-.05.6-.11.89-.17.62-.13,1.24-.29,1.85-.48.32-.1.64-.21.95-.32.1-.04.45-.18.5-.2.56-.26,1.12-.54,1.65-.85.28-.17.56-.35.83-.54.09-.06.38-.29.43-.32.47-.39.92-.81,1.34-1.26.17-.19.34-.4.51-.59.01-.01.01-.02.02-.03.07-.1.13-.19.2-.28.32-.48.62-.97.87-1.48.07-.15.14-.29.21-.44,0-.02.2-.51.23-.6.18-.52.33-1.04.45-1.58.06-.25.11-.51.15-.76.02-.08.03-.16.04-.24,0-.04,0-.07.01-.1.06-.55.09-1.1.09-1.66s-.03-1.12-.08-1.67c0-.08-.01-.16-.02-.23,0-.03-.02-.07-.02-.13-.05-.29-.1-.58-.16-.87-.21-1.05-.54-2.06-.92-3.06,0,0-.19-.44-.24-.53-.11-.24-.23-.48-.36-.72-.28-.52-.58-1.03-.92-1.52-.13-.2-.27-.39-.41-.58-.01-.01-.01-.02-.02-.03h0c-.1-.12-.18-.23-.28-.34-.39-.46-.8-.89-1.23-1.3-.44-.43-.9-.82-1.37-1.21-.03-.02-.07-.06-.11-.08-.07-.05-.13-.1-.2-.15-.28-.21-.57-.41-.87-.6-.99-.65-2.03-1.22-3.11-1.71,0,0-.12-.05-.22-.1-.08-.04-.35-.15-.4-.16-.33-.13-.66-.25-1-.37-.61-.22-1.24-.41-1.86-.58-.69-.18-1.39-.34-2.1-.48-.32-.06-.64-.12-.97-.17-.13-.02-.26-.04-.39-.06-.04,0-.06-.01-.09-.02-.02,0-.05,0-.09,0-1.65-.18-3.29-.24-4.94-.2-2.33,1.32-4.43,2.92-6.13,4.89-.75.87-1.5,2.07-2.16,3.41-.49,1-1.01,2.99-1.09,4.4-.19,3.28.57,6.4,2.1,9.29Z"/>
        <path class="cls-58" d="M713.26,510.51c3.99.39,7.97,1.06,11.89,1.85,7.58,1.54,15.06,3.62,22.7,4.87,5.71-1.1,11.29-2.77,16.66-5,1.29-.56,2.56-1.14,3.82-1.75-2.34-3.01-4.41-6.22-6.17-9.59-10.97,3.51-23.01,3.23-33.92-.41-2.82,1.38-5.55,2.94-8.17,4.7-.77.51-1.52,1.04-2.26,1.59-.36.26-.72.54-1.08.81-.2.16-.4.31-.6.47-.98.79-1.93,1.62-2.87,2.46Z"/>
        <path class="cls-58" d="M662.35,523.39c.2,3.69,1.71,6.86,4.42,8.75,1.59-6.3,6-11.44,11.66-14.84,6.94-4.17,15.41-6.3,23.43-6.96.29-.03.58-.04.87-.06,4.81-5.35,10.5-9.98,16.68-13.66-2.49-1.4-4.85-3.02-7.1-4.81-.71-.56-1.12-1.82-1.12-2.69s.42-2.05,1.12-2.69c.72-.67,1.67-1.16,2.69-1.12,1.07.05,1.86.45,2.69,1.12.07.05.14.11.2.16.15.11.3.23.45.33.42.31.85.61,1.28.91.86.59,1.74,1.15,2.63,1.67,1.65.97,3.37,1.83,5.12,2.6,3.85,1.57,7.87,2.66,11.97,3.26,4.27.53,8.58.53,12.85.01,2.32-.34,4.61-.84,6.85-1.49-.48-1.3-.92-2.62-1.32-3.95-1.2-4.06-1.91-8.27-2.21-12.49-.14-1.99,1.85-3.89,3.8-3.8,2.18.1,3.65,1.67,3.8,3.8.07.97.17,1.94.29,2.9.66,4.52,1.89,8.92,3.62,13.13.12.28.25.57.38.85.11.19.2.39.27.59,1.54,3.29,3.38,6.45,5.49,9.41.3.42.61.84.92,1.25.07.09.13.18.2.26.06.08.09.12.11.14.09.11.17.21.25.31.67.84,1.36,1.65,2.08,2.45.03.03.06.06.09.09.16.14.31.3.45.49,1.33,1.44,2.72,2.83,4.19,4.14.9.8,1.82,1.57,2.77,2.32.04.03.09.07.13.1.27.21.54.41.82.61.19.14.38.27.57.4,4.23-.73,8.42-1.7,12.54-2.9-5.05-9.84-7.52-21.14-6.7-32.16.27-3.66.86-7.31,1.81-10.86.52-1.92,2.73-3.28,4.67-2.66,1.97.63,3.21,2.62,2.66,4.67-.55,2.03-.96,4.09-1.27,6.16-.56,4.54-.54,9.13.02,13.67.69,4.79,1.97,9.49,3.81,13.97.71,1.64,1.49,3.24,2.34,4.8,4.93-1.79,9.74-3.91,14.37-6.35,3.47-1.83,6.84-3.84,10.11-6.02,1.71-1.14,4.21-.33,5.21,1.36,1.08,1.87.35,4.06-1.36,5.21-8.94,5.93-18.66,10.6-28.81,13.98-.02,0-.03.01-.05.02-6.35,2.11-12.87,3.72-19.48,4.78-.25.06-.5.1-.76.11-12.35,1.92-24.98,2-37.34.16-.15-.02-.3-.04-.46-.07-2.4-.37-4.78-.8-7.15-1.31-7.6-1.64-15.11-3.66-22.8-4.86-6.66-1.03-14.31-1.21-20.9.18-1.29.27-2.6.58-3.9.94,1.16.29,2.3.64,3.41,1.08,5.02,1.96,9.62,5.34,12.1,10.23,2.29,4.52,3.04,10.08,1.3,14.91-.91,2.5-2.38,4.79-4.43,6.5-2.28,1.89-4.99,3.18-7.88,3.84-2.57.59-5.16.71-7.73.54,5.62,2.54,11.95,3.87,17.62,4.52,5.99.69,12.04.77,18.04.3,8.11-.64,16.14-2.04,24.24-2.81,6.41-.61,12.76-.63,19.11-.01.08,0,.17-.01.25,0,.31.02.61.06.89.13,1.66.19,3.32.4,4.98.68,7.6,1.26,15.03,3.44,22.25,6.1,11.64,4.29,22.78,9.72,34,14.96.08.03.15.07.22.1,3.25,1.51,6.5,3.01,9.78,4.45,14.03,6.18,28.82,11.24,44.03,12.43,15.15,1.18,30.1-.72,44.49-5.52,3.36-1.12,6.67-2.4,9.84-3.81.06-.03.12-.05.17-.07.52-.27,1.1-.44,1.75-.45,8.93-.18,17.86.22,26.73,1.23,9.13,1.03,18.2,2.63,27.11,4.86,3.38.85,6.73,1.79,10.05,2.81l1.71-102.57c-24.73-4.52-49.13-10.55-73.03-18.4-25.01-8.22-49.44-18.28-72.99-30.05-5.88-2.94-11.72-6-17.5-9.15-5.49-3.01-11-6.14-16.96-8.13-5.58-1.86-11.34-2.54-17.09-1.07-5.34,1.36-10.17,4.06-14.88,6.85-5.02,2.97-9.95,6.13-15.31,8.46-5.98,2.59-12.22,4.22-18.62,5.39-12.07,2.2-24.57,3.15-35.92,8.13-21.39,9.39-37,28.15-51.67,45.64-.97,1.16-1.94,2.33-2.86,3.53-.4.51-.77,1.06-1.17,1.57,0,0,.01,0,.02,0-3.48,4.91-6.28,10.32-5.95,16.49Z"/>
      </g>
      <path class="cls-15" d="M742.38,561.31c-4.6.11-10.02.92-12.13,5-1.41,2.72-.78,6.14.88,8.72s4.19,4.44,6.75,6.11c8.15,5.32,17.21,9.23,26.67,11.53,2.97.72,6.45,1.17,8.8-.79s1.24-7.02-1.79-6.57c1.23-.18,8.14,5.48,9.89,6.25,3.91,1.7,8.09,2.76,12.33,3.19,8.36.84,17.39-.73,24.6-5.16,11.44-7.03-.88-11.98-8.43-15.21-9.93-4.25-20.28-7.5-30.86-9.7-12.05-2.51-24.39-3.66-36.7-3.36Z"/>
      <path class="cls-15" d="M298.85,724.6c5.31.27,10.7.93,15.94-.74,16.09-5.11,16.64-17.53,11.64-31.71-2.38-6.74-4.85-14.02-2.8-20.87-20.26,3.45-39.92,10.35-57.96,20.19-17.54,9.57-30.16,24.05-46.67,34.28-11.66,7.22-24.24,12.78-37.02,17.67-10.3,3.94-25.44,12.43-36.4,12.87,18.72-.75,37.44-1.49,56.16-2.24,4.32-.17,10.24-1.5,14.44-.59,3.04.66,4.31,2.66,7.22,3.66,5.91,2.02,11.07,3.66,17.15.72,1.8-.87,3.5-2.05,5.48-2.39,3.83-.66,7.67,2.28,8.85,5.98s.14,7.83-1.89,11.14c-2.03,3.31-4.95,5.97-7.84,8.57.52,3.45,5.17,4.92,8.32,3.44s5-4.79,6.36-7.99c.99-2.33,1.88-4.79,3.25-6.89.51-.79,1.1-1.53,1.78-2.19,4.91-4.77,14.36-3.12,17.35,3.04-16.78-9.45-13.18-36.42,3.43-44.16,4.26-1.99,8.72-2.03,13.22-1.8Z"/>
      <g>
        <g>
          <path d="M28.12,734.47c1.03,8.48,2.75,16.85,5.27,25.01,2.5,8.1,5.72,16,9.57,23.55,3.76,7.36,8.16,14.39,13.14,20.99.43.81,1.16,1.36,1.98,1.64.09.04.19.08.29.11.76.25,1.57.16,2.3-.11.22-.08.43-.16.63-.27,1.33-.75,2.69-1.46,4.07-2.13.71-.34,1.43-.67,2.15-.99.14-.07.65-.28.71-.31.24-.1.48-.2.71-.29,1.41-.57,2.84-1.09,4.28-1.58,2.94-.99,5.95-1.8,8.98-2.47,1.5-.32,3.01-.61,4.52-.86.79-.13,1.57-.25,2.36-.36.1-.01.19-.03.29-.04.02,0,.03,0,.06,0,.4-.05.8-.1,1.19-.14,3.08-.36,6.17-.58,9.27-.68,6.26-.2,12.52.08,18.75.71,1.69.17,3.37.37,5.05.58.89.11,1.77.23,2.66.34.12.02.55.07.67.09.39.06.78.11,1.17.16,3.43.47,6.85.96,10.27,1.43,13.84,1.89,27.88,3.55,41.82,1.73,6.8-.89,13.39-2.57,19.89-4.72,6.29-2.08,12.47-4.49,18.76-6.6,3.11-1.04,6.23-2.02,9.41-2.83,1.59-.41,3.18-.77,4.79-1.08.84-.16,1.68-.31,2.52-.45.42-.07.84-.13,1.27-.19h.02c.14-.02.28-.04.43-.06,3.31-.4,6.65-.57,9.99-.43.84.04,1.68.09,2.51.17.35.03.71.07,1.07.11.06,0,.2.02.3.03.09.02.19.03.28.04.68.11,1.37.23,2.05.36.39,3.13,1.45,6.19,3.2,8.78,2.26,3.35,5.39,6.1,9.03,7.89,3.7,1.82,7.74,2.84,11.88,2.85,4.67,0,9.17-1.18,13.43-3.02,8.05-3.48,14.55-9.72,20.1-16.37,3.01-3.61,5.83-7.36,8.69-11.09,2.68-3.48,5.36-6.96,8.04-10.45,2.49-1.25,4.95-2.56,7.34-3.98,4.92-2.92,9.72-6.4,13.44-10.79,1.9-2.24,3.6-4.66,4.85-7.33,1.57-3.38,2.47-6.83,2.87-10.54.36-3.39.17-6.81-.27-10.18-.09-.69-.2-1.37-.31-2.06,1.53,1.46,3.18,2.81,4.98,3.99,6.7,4.43,15.27,6.12,23.16,4.61,2.83-.54,5.48-1.79,7.64-3.7,1.95-1.72,3.25-4.07,4.04-6.52,1.65-5.08,1.02-10.69.24-15.87-.55-3.69-1.32-7.35-2.06-11.01-.34-1.7-.68-3.41-.99-5.12-.38-2.09-2.82-3.08-4.67-2.66-.91.21-1.81.96-2.28,1.74-.54.93-.57,1.91-.38,2.93.26,1.47.53,2.94.82,4.4.03.16.07.32.1.49.79,3.98,1.67,7.94,2.23,11.96.36,2.85.56,5.74.24,8.6-.17,1.05-.43,2.09-.8,3.1-.21.45-.44.88-.71,1.29-.06.1-.12.19-.18.28-.15.17-.29.34-.45.5-.21.21-.43.42-.66.61-.06.04-.11.08-.17.12-.47.31-.96.57-1.46.81-1.01.38-2.06.64-3.13.81-2.25.24-4.54.16-6.78-.09-1.97-.29-3.88-.82-5.72-1.55-1.7-.76-3.31-1.67-4.84-2.73-.21-.15-.42-.3-.62-.45-.03-.02-.07-.06-.12-.09.04.04.08.07.12.1-.34-.29-.7-.56-1.04-.86-.78-.67-1.53-1.38-2.25-2.12-.71-.74-1.4-1.52-2.04-2.32-.02-.03-.04-.04-.05-.06-.1-.14-.2-.27-.29-.4-.3-.42-.6-.84-.88-1.27-1.23-1.86-2.26-3.83-3.14-5.87-.04-.09-.07-.18-.1-.26-.25-.61-.49-1.24-.71-1.87-.12-.72-.34-1.44-.68-2.11-.02-.07-.04-.13-.05-.19-.2-.84-.38-1.67-.61-2.48-.35-1.25-1.27-2.13-2.38-2.53-.71-.25-1.51-.3-2.29-.13-.86.19-1.7.87-2.18,1.61-.43.1-.84.24-1.25.42-1.54.28-3,.98-4.25,1.95-.54.41-1.04.88-1.5,1.38-1.43,1.57-1.44,3.8,0,5.38,1.28,1.39,3.78,1.46,5.17.19.79.11,1.69-.08,2.36-.45.03.06.06.12.09.18.2.52.38,1.05.53,1.58.62,2.1.97,4.3,1.27,6.46.18,1.37.34,2.75.55,4.13.28,1.87.67,3.72.94,5.6.42,3.37.56,6.78.16,10.16-.31,1.99-.83,3.93-1.57,5.8-.6,1.35-1.3,2.66-2.11,3.9-.2.31-.41.62-.62.92-.14.2-.66.86-.65.86-.35.44-.7.87-1.08,1.29-.96,1.07-2,2.09-3.08,3.05-.57.51-1.16,1-1.75,1.48-.12.1-.41.31-.54.42.06-.04.15-.11.28-.2-.27.2-.54.41-.81.6-2.37,1.74-4.88,3.29-7.45,4.72-1.79,1-3.61,1.94-5.45,2.85-.08.04-.17.08-.25.13-.9.44-1.79.88-2.7,1.31-3.09,1.47-6.18,2.94-9.34,4.29-4.45,1.84-9.05,3.38-13.83,4.09-2.49.28-4.98.32-7.47.03-2.11-.33-4.19-.88-6.18-1.67-1.01-.45-2-.96-2.93-1.55-.48-.3-.94-.62-1.39-.95-.07-.06-.14-.12-.21-.18-.23-.19-.45-.38-.66-.58-.46-.42-.9-.86-1.31-1.32-.18-.2-.35-.41-.52-.61-.01-.02-.02-.03-.04-.04,0-.01-.01-.02-.02-.03-.12-.14-.3-.43-.23-.34-.58-.85-1.09-1.74-1.53-2.69-.47-1.21-.8-2.46-1.01-3.74-.16-1.54-.15-3.07.02-4.61.29-1.82.8-3.6,1.48-5.32.66-1.47,1.45-2.89,2.39-4.22.11-.16.23-.33.35-.49.27-.33.54-.66.83-.98.6-.67,1.24-1.3,1.9-1.91.35-.32.7-.63,1.07-.93.15-.13.3-.25.45-.37.75-.55,1.51-1.07,2.29-1.56,1.47-.92,3.02-1.71,4.6-2.41,3.7-1.51,7.6-2.48,11.57-3.06.26-.03.52-.07.79-.1.91-.1,1.59-.26,2.3-.82.54-.42.91-.9,1.17-1.52.56-1.31.35-3.16-.79-4.15-2.23-1.95-4.59-3.76-7.07-5.38-7.34-4.8-15.67-7.88-24.3-9.28.44-5.33.29-10.71-.41-16.01,5.87-2.83,11.98-5.04,18.33-6.99,4.85-1.49,9.77-2.81,14.7-4.11,1.28.76,2.54,1.55,3.77,2.39.83.57,1.65,1.16,2.45,1.76.05.03.12.09.19.15-.03-.03-.06-.06-.1-.09.16.14.34.27.51.4.4.31.79.63,1.18.95,2.13,1.77,4.16,3.68,6.04,5.71.86.92,1.69,1.86,2.5,2.82,1.36,1.63,3.97,1.29,5.37,0,.7-.64,1.12-1.75,1.12-2.69,0-1.07-.45-1.9-1.12-2.69-2.93-3.52-6.24-6.74-9.83-9.61-.73-.58-1.46-1.15-2.21-1.7.64-.17,1.29-.34,1.93-.52,3.31-.89,6.6-1.81,9.87-2.81,9-2.75,17.78-6.05,26.01-10.78,8.45-4.85,16.69-11.34,21.21-20.17,4.97-9.7,4.83-22.1-2.63-30.5-.98-1.32-2.54-2.39-3.72-3.21-1.61-1.15-3.41-1.98-5.25-2.69-3.72-1.43-7.85-1.91-11.8-1.94-8.08-.06-16.29,1.65-24.13,3.58-.29.07-.59.15-.88.22-3.19.8-6.36,1.68-9.51,2.64-23.56,7.08-46.06,17.7-70.34,22.27-3.47.65-6.41,1.09-9.71,1.43-3.41.34-6.84.53-10.27.55-6.45.05-12.88-.39-19.32-.61-13.07-.45-26.78.1-38.24,7.15-1.75,1.08-2.42,3.39-1.36,5.21,1.02,1.74,3.46,2.44,5.21,1.36,3.16-1.95,5.54-3,8.99-4.02,3.24-.95,6.4-1.51,9.24-1.79,7.06-.71,14.16-.41,21.23-.1,6.33.28,12.67.59,19.01.27,6.82-.34,13.62-1.32,20.3-2.72,13.27-2.79,26.09-7.32,38.82-11.92,12.83-4.63,25.67-9.38,38.94-12.62,1.6-.39,3.2-.77,4.79-1.12-1.12.9-2.11,1.95-2.84,3.2-.95,1.63-1.41,3.54-1.32,5.42.1,2.1.72,4.11,1.39,6.09,1.29,3.88,2.58,7.75,3.87,11.63.64,1.92,1.15,4.01,2.17,5.76.87,1.5,2.21,2.69,3.8,3.38,3.17,1.38,6.72,1.13,10.03.4,3.43-.76,6.76-1.97,9.93-3.48.99-.48,1.96-.99,2.91-1.54-.09.1-.17.2-.25.3-1.53,1.72-3.2,3.32-4.97,4.8-1.62,1.36-3.09,2.42-5.12,3.75-4.29,2.8-8.85,5.17-13.55,7.21-9.35,4.05-20.05,6.91-30.19,9.55-10.43,2.72-20.93,5.32-31.02,9.17-3.99,1.52-7.93,3.21-11.74,5.16-.15.06-.29.14-.44.23-.98.51-1.97,1.03-2.93,1.58-4.58,2.58-8.86,5.64-12.98,8.91-7.86,6.23-14.92,13.38-22.33,20.12-7.26,6.61-14.31,12.13-22.79,17.22-8.29,4.98-16.57,8.83-25.45,11.9-18.25,6.31-36.7,8.71-55.97,7.09-2.12-.18-3.72,1.89-3.8,3.8-.1,2.17,1.82,3.63,3.8,3.8,2.4.2,4.81.34,7.22.42,19.65.61,39.52-3.01,57.74-10.39,9.25-3.75,18.12-8.35,26.41-13.93,8.51-5.74,16.15-12.52,23.62-19.53,7.33-6.88,14.62-13.89,22.75-19.36,1.2-.81,2.4-1.57,3.62-2.3.42,4.87.32,9.78-.29,14.64-.8,5.52-2.25,10.92-4.37,16.08-1.19,2.76-2.55,5.43-4.1,8.01-.73,1.22-1.5,2.41-2.3,3.57-.43.62-.87,1.24-1.32,1.85-.15.2-.29.39-.44.59,0,0,0,0,0,0,0,0-.01.02-.03.05-.02.02-.03.04-.05.06-.02.02-.04.05-.07.09-.02.03-.04.05-.06.08h0s-.05.07-.07.1h0c-1.73,2.2-3.59,4.29-5.58,6.27-1.87,1.87-3.87,3.57-5.92,5.24-.15.12-.57.45-.71.55-.26.19-.53.39-.8.58-.53.39-1.07.76-1.62,1.13-1.2.81-2.43,1.59-3.68,2.32-1.83,1.08-2.33,3.38-1.36,5.21.96,1.81,3.49,2.37,5.21,1.36,5.09-3,9.84-6.65,14.04-10.8,7.52-7.41,13.31-16.45,17.01-26.33,1.34-3.58,2.35-7.26,3.06-10.99,4.35.74,8.6,1.97,12.69,3.64,2.64,1.15,5.2,2.46,7.64,3.98.06.04.11.07.17.11-4.55,1.23-8.98,3.1-12.84,5.75-2.58,1.78-5.02,3.84-6.97,6.3-2.06,2.61-3.64,5.38-4.8,8.5-1.81,4.88-2.24,10.56-.73,15.61-.19.15-.38.29-.57.44-3.5,2.73-6.64,5.94-9.03,9.7-1.89,2.98-3.23,6.27-3.94,9.72-.14-.03-.28-.05-.43-.07-13.87-2.08-27.41,1.39-40.41,5.98-6.25,2.2-12.44,4.58-18.78,6.5-3.19.97-6.41,1.82-9.68,2.48-.86.17-1.71.33-2.57.47-.44.08-.88.15-1.31.21-.11.02-.47.07-.62.09-1.71.23-3.43.4-5.15.52-6.95.5-13.93.23-20.87-.4-3.43-.31-6.86-.71-10.28-1.15-.51-.07-1.02-.13-1.53-.2-.19-.03-.38-.05-.57-.08-.03,0-.05,0-.07-.01-.02,0-.04,0-.06,0-.82-.11-1.65-.23-2.47-.34-1.71-.24-3.43-.48-5.14-.72-13.23-1.85-26.43-3.46-39.8-2.36-11.7.96-23.23,3.71-33.72,8.98-.79-1.09-1.56-2.2-2.31-3.32-5.02-7.46-9.31-15.39-12.83-23.65-.98-2.35-1.9-4.72-2.75-7.12-3.19-8.97-5.46-18.26-6.76-27.69-.31-2.42-.56-4.86-.75-7.29-.71-9.54-.42-19.14.83-28.62.87-6.2,2.13-12.33,3.8-18.36,1.49-.09,2.98-.21,4.46-.38,20.56-2.23,40.04-10.21,57.74-20.68,17.68-10.46,33.84-23.2,50.52-35.13,16.13-11.54,33-22.47,51.7-29.37,9.05-3.34,18.57-5.83,28.11-6.71,9.82-.91,19.52-.07,29.16,1.95,10.07,2.11,19.91,5.11,29.96,7.3,5.16,1.13,10.37,2.02,15.63,2.51,3.58.34,7.16.42,10.75.4,1.82-.01,3.65-.05,5.47-.1,2.06-.05,3.8-1.7,3.8-3.8,0-2.02-1.75-3.85-3.8-3.8-1.57.04-3.14.08-4.71.09-1.17.02-2.33.02-3.49.01-20.55-.2-39.66-8.48-59.79-11.42-10.25-1.5-20.43-1.4-30.65.23-9.75,1.56-19.24,4.52-28.34,8.32-18.79,7.85-35.67,19.11-52.09,31.02-16.51,11.98-32.72,24.55-50.57,34.52-17.29,9.65-36.55,16.83-56.5,17.56-.92-.08-1.82.25-2.55.81-.55.42-.99.97-1.26,1.63,0,.02-.01.04-.02.06-.03.08-.06.15-.08.23-.01.03-.02.05-.03.08-.32,1.07-.63,2.15-.92,3.23-2.46,9.04-4.02,18.34-4.72,27.69-.67,9.01-.48,18.08.62,27.05ZM366.6,637.45c-2.85,2.12-5.95,3.9-9.21,5.32-.09.04-.31.13-.33.14-.19.08-.39.15-.58.23-.39.15-.78.29-1.17.44-.71.25-1.44.49-2.17.71-1.46.44-2.95.83-4.46,1.06-.08.02-.17.03-.25.04-.02,0-.02,0-.04,0-.18.02-.36.04-.54.06-.3.03-.6.05-.91.06-.19,0-1.92.1-1.97-.07.03,0,.06.01.09.01-.12-.02-.23-.04-.34-.06-.17-.03-.34-.07-.51-.11-.27-.07-.54-.17-.82-.25-.02,0-.04-.01-.05-.02-.01,0-.02,0-.02-.01-.15-.08-.3-.15-.45-.23-.15-.08-.28-.18-.43-.26-.02-.01-.04-.02-.05-.03,0,0-.01,0-.02-.01-.2-.18-.38-.36-.56-.56-.04-.05-.22-.28-.25-.33-.12-.18-.22-.37-.32-.56,0,0-.1-.22-.15-.33-.05-.12-.13-.32-.13-.32-.15-.42-.29-.85-.44-1.27-.6-1.82-1.21-3.64-1.81-5.46-.61-1.81-1.21-3.63-1.82-5.45-.61-1.85-1.3-3.69-1.81-5.58-.12-.46-.23-.92-.32-1.38,0-.01-.06-.37-.07-.44-.02-.19-.04-.38-.05-.57-.02-.39,0-.77.02-1.16,0-.07,0-.11.01-.15.01-.04.03-.09.05-.17.05-.17.08-.34.13-.51.03-.11.07-.27.11-.42.01-.02.04-.06.08-.14.15-.29.3-.59.48-.87.04-.07.09-.13.13-.2,0,0,0,0,.01-.02.01-.02.03-.05.06-.08.01-.02.03-.05.05-.08,0-.01.01-.02.02-.02,0,0,.01-.01.02-.02.2-.23.41-.46.63-.67.24-.24.5-.46.76-.68.02,0,.41-.3.51-.37.54-.37,1.1-.69,1.68-1,.38-.19.76-.38,1.14-.55.05-.02.27-.11.33-.14.05-.02.08-.04.13-.06.67-.27,1.34-.51,2.03-.73,3.35-1.1,6.78-1.98,10.22-2.75,2.19.1,4.26.41,6.49,1.09,2.71.83,4.97,2.16,6.97,4.25-.01-.02-.02-.04-.03-.05.1.12.19.23.29.35.17.2.35.4.52.61.04.05.08.11.13.19.6.89,1.12,1.8,1.6,2.76.16.33.27.62.51,1.32.17.51.32,1.02.45,1.55.15.59.27,1.19.38,1.78.02.09.03.14.04.18v.02c.04.29.07.59.09.89.22,2.69.03,4.92-.61,7.4-.09.35-.2.7-.31,1.05-.44.4-.88.8-1.34,1.18-.31.27-.64.53-.96.79-.05.04-.46.36-.46.36-.13.1-.26.2-.4.3ZM261.03,782.19c.01-.13.02-.27.01-.41.02-.55.05-1.09.11-1.64.29-1.79.79-3.53,1.46-5.22.59-1.3,1.27-2.55,2.04-3.76.21-.33.43-.65.66-.97.11-.16.23-.31.34-.47.47-.58.95-1.15,1.45-1.69,1.12-1.22,2.33-2.36,3.59-3.44.09-.08.19-.15.28-.23.73.99,1.54,1.92,2.45,2.77,2.09,1.98,4.55,3.6,7.19,4.75,5.47,2.39,11.46,3.27,17.4,2.54,3.57-.44,7.04-1.22,10.45-2.36,1.62-.54,3.21-1.15,4.79-1.79-.53.69-1.06,1.38-1.6,2.07-.29.38-.58.76-.87,1.14-.12.16-.25.32-.37.48-.51.65-1.01,1.31-1.53,1.96-2.09,2.66-4.23,5.28-6.53,7.75-1.18,1.26-2.39,2.48-3.65,3.65-.6.56-1.22,1.1-1.85,1.64-.34.29-.68.57-1.03.85-.08.07-.16.13-.25.19-2.53,1.87-5.2,3.5-8.07,4.77-2.2.89-4.49,1.54-6.84,1.91-1.77.2-3.55.22-5.32.04-1.73-.27-3.41-.73-5.03-1.37-.92-.42-1.8-.89-2.66-1.42-.47-.3-.91-.68-1.38-.97-.07-.06-.13-.11-.2-.16-.21-.18-.41-.36-.61-.54-.45-.41-.87-.84-1.27-1.29-.17-.19-.33-.39-.5-.59-.03-.04-.06-.08-.09-.12-.6-.84-1.11-1.73-1.55-2.67-.42-1.09-.72-2.22-.92-3.38-.07-.67-.11-1.35-.11-2.03Z"/>
          <path d="M277.04,759.87c-.05-.07-.09-.14-.14-.21.05.06.13.17.25.35-.01-.01-.02-.03-.03-.04-.03-.03-.05-.07-.08-.1Z"/>
          <path d="M312.63,683.47c.13.1.18.15,0,0h0Z"/>
          <path d="M363.3,715.13c-.26-.21-.65-.56,0,0h0Z"/>
          <path d="M335.78,618.44s0,0,0,0c-.03.05-.06.09-.08.11.03-.04.05-.07.08-.11Z"/>
          <path d="M252.7,739.05s0,0,0,0c.22-.29.29-.38.29-.38-.04.06-.08.11-.13.17-.05.07-.12.15-.16.21Z"/>
          <g>
            <path d="M654.76,523.65c.5,7.46,4.55,14.38,11.6,16.84.91,6.33,4.41,12.4,9.12,16.55,10.02,8.84,24.17,11.77,37.15,12.4,2.94.14,5.86.1,8.78-.06,1.12-.06,2.24-.13,3.35-.22,2.2,3.93,4.76,7.65,7.71,11.06.1.11.19.22.29.33,5.4,6.17,12.28,11.04,19.98,13.9,7.91,2.93,16.84,3.2,24.81.38.19.12.37.23.56.34,5.04,2.9,11.08,4,16.86,3.74,12.1-.54,22.56-6.86,33.78-10.66,6.82,3.16,13.68,6.22,20.72,8.88,15.06,5.69,30.83,8.9,46.97,8.43,15.52-.45,30.76-3.97,44.98-10.15,2.03-.04,4.07-.05,6.11-.02,7.85.1,15.69.68,23.47,1.7,2.59.35,5.18.76,7.76,1.21,9.58,1.7,19.03,4.1,28.26,7.17,2.02.67,4.06-.78,4.67-2.66.26-.79.19-1.59-.1-2.3l1.8-107.62c.16-.27.28-.57.38-.9.51-1.84-.63-4.31-2.66-4.67-3.11-.55-6.21-1.1-9.31-1.7-25.97-4.96-51.55-11.86-76.5-20.6-24.83-8.71-49.01-19.27-72.27-31.58-11.34-6-22.81-13.69-35.99-14.5-12.42-.75-22.91,6.28-33.14,12.29-5.15,3.03-10.37,5.57-16.13,7.21-6.14,1.75-12.46,2.72-18.76,3.7-6.32.99-12.65,1.98-18.81,3.75-5.83,1.67-11.48,4.09-16.77,7.06-10.25,5.75-19.26,13.57-27.43,21.96-4.18,4.29-8.18,8.77-12.09,13.31-3.33,3.86-6.73,7.71-9.86,11.74-.68.88-1.36,1.77-2.01,2.67-.98,1.04-1.73,2.45-2.4,3.56-.88,1.44-1.64,2.93-2.32,4.47-.26.58-.51,1.16-.74,1.75-1.39,3.51-2.09,7.46-1.83,11.23ZM772.4,567.04c10.91,1.79,21.54,5.53,31.72,9.91,5.09,2.18,10.12,4.51,15.13,6.86-7.03,2.92-14.07,6.16-21.65,7.28-2.65.31-5.32.33-7.97.03-1.96-.3-3.87-.8-5.71-1.53-1.05-.48-2.08-1.02-3.05-1.66-.15-.1-.29-.2-.44-.3-.12-.11-.25-.2-.39-.28-.08-.06-.15-.12-.17-.14-.52-.44-1.01-.9-1.48-1.38-.24-.25-.47-.51-.7-.78-.09-.1-.17-.2-.25-.3-.01-.02-.03-.04-.05-.06-.03-.04-.06-.08-.08-.1-.09-.13-.19-.26-.28-.4-.17-.24-.32-.48-.48-.73-.55-.89-1.03-1.81-1.46-2.77-1.12-2.81-1.78-5.77-2.21-8.75-.21-1.63-.36-3.27-.49-4.91ZM733.08,568.3c8.41-1.02,16.8-2.32,25.3-2.39,2.12-.02,4.24.06,6.35.21.35,5.1.85,10.25,2.48,15.09.92,2.72,2.19,5.26,3.84,7.52-.49.1-.99.19-1.49.26-2.48.29-4.99.29-7.48,0-2.88-.44-5.69-1.22-8.39-2.31-2.13-.93-4.2-2.03-6.15-3.29-.96-.62-1.9-1.28-2.81-1.97-.04-.03-.08-.06-.12-.09-.18-.15-.36-.29-.55-.45-.42-.34-.83-.69-1.24-1.04-1.67-1.46-3.25-3.04-4.71-4.71-.41-.47-.81-.94-1.2-1.42-.19-.23-.38-.47-.57-.71-.04-.05-.07-.09-.09-.12,0,0-.01,0-.01-.01-.76-1-1.49-2.02-2.18-3.07-.33-.5-.66-1.01-.98-1.52ZM673.76,536.06c.09-1.41.6-3.4,1.09-4.4.66-1.33,1.41-2.54,2.16-3.41,1.7-1.97,3.8-3.57,6.13-4.89,1.64-.04,3.28.02,4.94.2.04,0,.07,0,.09,0,.03,0,.05.01.09.02.13.02.26.04.39.06.32.05.65.11.97.17.7.14,1.4.3,2.1.48.62.17,1.25.36,1.86.58.33.12.67.24,1,.37.04.02.31.13.4.16.1.05.22.1.22.1,1.08.49,2.12,1.06,3.11,1.71.29.19.58.39.87.6.07.05.13.1.2.15.04.03.08.06.11.08.47.39.93.79,1.37,1.21.43.42.84.85,1.23,1.3.1.11.18.23.28.34h0s.01.02.02.03c.14.19.27.39.41.58.33.49.64,1,.92,1.52.13.24.25.48.36.72.05.09.23.53.24.53.38,1,.7,2.01.92,3.06.06.29.11.58.16.87,0,.06.02.1.02.13,0,.08.01.16.02.23.06.56.08,1.12.08,1.67s-.03,1.11-.09,1.66c0,.03,0,.07-.01.1-.01.08-.03.17-.04.24-.04.25-.09.51-.15.76-.12.54-.27,1.06-.45,1.58-.03.09-.23.58-.23.6-.07.15-.14.29-.21.44-.25.51-.55,1.01-.87,1.48-.07.1-.13.19-.2.28-.01.01-.01.02-.02.03-.17.2-.33.4-.51.59-.42.45-.87.87-1.34,1.26-.05.03-.34.26-.43.32-.27.19-.55.36-.83.54-.53.31-1.08.59-1.65.85-.06.02-.4.17-.5.2-.31.12-.63.22-.95.32-.61.19-1.23.35-1.85.48-.29.06-.59.12-.89.17-.07.01-.14.02-.2.03-.05,0-.22.03-.29.04-1.36.16-2.72.18-4.09.12-1.65-.08-2.78-.23-4.21-.47-1.91-.33-3.79-.76-5.67-1.2-1.55-1.56-2.89-3.32-3.95-5.32-1.53-2.89-2.3-6.01-2.1-9.29ZM668.3,506.9s-.01,0-.02,0c.4-.51.78-1.05,1.17-1.57.92-1.2,1.89-2.37,2.86-3.53,14.67-17.49,30.28-36.25,51.67-45.64,11.36-4.99,23.86-5.93,35.92-8.13,6.39-1.17,12.64-2.79,18.62-5.39,5.36-2.33,10.29-5.49,15.31-8.46,4.71-2.78,9.54-5.48,14.88-6.85,5.75-1.47,11.51-.79,17.09,1.07,5.96,1.99,11.46,5.13,16.96,8.13,5.78,3.15,11.61,6.21,17.5,9.15,23.55,11.77,47.98,21.82,72.99,30.05,23.9,7.86,48.3,13.89,73.03,18.4l-1.71,102.57c-3.32-1.02-6.68-1.96-10.05-2.81-8.91-2.24-17.97-3.83-27.11-4.86-8.87-1.01-17.81-1.41-26.73-1.23-.64.02-1.23.18-1.75.45-.06.02-.11.04-.17.07-3.16,1.41-6.48,2.69-9.84,3.81-14.39,4.8-29.34,6.7-44.49,5.52-15.21-1.19-29.99-6.24-44.03-12.43-3.28-1.44-6.53-2.94-9.78-4.45-.08-.04-.15-.07-.22-.1-11.23-5.24-22.37-10.67-34-14.96-7.22-2.66-14.65-4.84-22.25-6.1-1.66-.28-3.32-.49-4.98-.68-.28-.07-.58-.12-.89-.13-.08,0-.17,0-.25,0-6.35-.62-12.7-.6-19.11.01-8.1.77-16.13,2.17-24.24,2.81-6,.47-12.05.39-18.04-.3-5.67-.65-12.01-1.98-17.62-4.52,2.57.17,5.16.05,7.73-.54,2.89-.66,5.6-1.95,7.88-3.84,2.06-1.71,3.53-3.99,4.43-6.5,1.74-4.84.99-10.39-1.3-14.91-2.48-4.89-7.08-8.28-12.1-10.23-1.12-.44-2.26-.79-3.41-1.08,1.3-.36,2.61-.67,3.9-.94,6.59-1.39,14.24-1.22,20.9-.18,7.69,1.19,15.21,3.21,22.8,4.86,2.37.51,4.75.94,7.15,1.31.15.03.3.05.46.07,12.37,1.84,25,1.76,37.34-.16.25-.01.51-.05.76-.11,6.61-1.07,13.13-2.68,19.48-4.78.02,0,.03-.01.05-.02,10.16-3.38,19.87-8.05,28.81-13.98,1.71-1.14,2.45-3.34,1.36-5.21-1-1.7-3.49-2.5-5.21-1.36-3.27,2.17-6.63,4.19-10.11,6.02-4.63,2.44-9.44,4.56-14.37,6.35-.85-1.57-1.63-3.17-2.34-4.8-1.83-4.49-3.11-9.18-3.81-13.97-.55-4.54-.57-9.13-.02-13.67.3-2.07.72-4.13,1.27-6.16.56-2.05-.68-4.04-2.66-4.67-1.95-.63-4.16.73-4.67,2.66-.96,3.54-1.54,7.2-1.81,10.86-.82,11.02,1.65,22.32,6.7,32.16-4.12,1.2-8.31,2.16-12.54,2.9-.19-.13-.39-.26-.57-.4-.27-.2-.55-.4-.82-.61-.05-.03-.09-.07-.13-.1-.94-.75-1.87-1.52-2.77-2.32-1.46-1.31-2.86-2.69-4.19-4.14-.13-.18-.28-.34-.45-.49-.03-.03-.06-.06-.09-.09-.71-.8-1.4-1.61-2.08-2.45-.08-.1-.17-.2-.25-.31-.02-.03-.05-.07-.11-.14-.07-.09-.14-.18-.2-.26-.31-.42-.62-.83-.92-1.25-2.11-2.96-3.95-6.11-5.49-9.41-.07-.2-.16-.4-.27-.59-.13-.28-.25-.57-.38-.85-1.73-4.22-2.96-8.62-3.62-13.13-.12-.96-.22-1.93-.29-2.9-.15-2.13-1.62-3.7-3.8-3.8-1.95-.09-3.94,1.81-3.8,3.8.3,4.22,1.01,8.43,2.21,12.49.4,1.33.84,2.65,1.32,3.95-2.25.65-4.53,1.15-6.85,1.49-4.27.52-8.58.52-12.85-.01-4.11-.61-8.12-1.69-11.97-3.26-1.75-.77-3.47-1.63-5.12-2.6-.89-.53-1.77-1.08-2.63-1.67-.43-.29-.86-.6-1.28-.91-.15-.11-.29-.22-.45-.33-.07-.05-.13-.11-.2-.16-.83-.66-1.62-1.07-2.69-1.12-1.01-.05-1.96.45-2.69,1.12-.7.64-1.12,1.75-1.12,2.69s.4,2.12,1.12,2.69c2.25,1.79,4.6,3.41,7.1,4.81-6.19,3.68-11.87,8.31-16.68,13.66-.29.02-.58.04-.87.06-8.01.65-16.49,2.79-23.43,6.96-5.67,3.4-10.07,8.54-11.66,14.84-2.71-1.9-4.22-5.06-4.42-8.75-.33-6.17,2.47-11.58,5.95-16.49ZM714.31,509.58c.6-.52,1.2-1.03,1.81-1.53.2-.16.4-.31.6-.47.36-.27.72-.55,1.08-.81.75-.55,1.5-1.07,2.26-1.59,2.61-1.75,5.34-3.31,8.17-4.7,10.91,3.63,22.95,3.91,33.92.41,1.76,3.38,3.84,6.59,6.17,9.59-1.26.61-2.53,1.2-3.82,1.75-5.37,2.23-10.96,3.9-16.66,5-7.64-1.25-15.12-3.34-22.7-4.87-3.42-.69-6.87-1.29-10.35-1.69-.51-.06-1.02-.11-1.54-.16.35-.31.7-.62,1.05-.93ZM773.52,516.37c.61.62,1.24,1.22,1.89,1.81-.5.04-.99.09-1.49.13-1.65.11-3.29.19-4.95.24,1.54-.68,3.05-1.41,4.55-2.18Z"/>
            <path class="cls-1" d="M353.69,662.31c-8.23,4.72-17.01,8.03-26.01,10.78.65,5.66,1.5,11.14,2.52,16.35.67,3.44,1.44,6.81,2.28,10.1,2.22-.96,4.47-1.89,6.72-2.8,1.26-.96,2.72-1.66,4.25-1.95.41-.18.82-.32,1.25-.42.48-.74,1.33-1.42,2.18-1.61.79-.18,1.58-.13,2.29.13,12.6-4.63,25.66-8.58,38.85-11.75,42.93-10.35,90.13-13.24,140.29-8.6,48.07,4.46,100.21,15.97,155.04,34.22,32.24-44.92,44.71-89.92,38.05-137.37-2.92.16-5.84.19-8.78.06-12.99-.63-27.13-3.55-37.15-12.4-4.71-4.15-8.22-10.22-9.12-16.55-7.05-2.45-11.09-9.38-11.6-16.84-.25-3.78.45-7.72,1.83-11.23.23-.59.48-1.18.74-1.75-26.03,1.9-80.11,4.43-150.3.08-51.18-3.17-94.93,2.27-122.62,7.38-23.38,4.32-39.56,9.15-45.68,11.1-4.97,25.54-8.39,47.96-10.46,68.44-.33,3.28-.64,6.53-.9,9.71,7.84-1.94,16.05-3.64,24.13-3.58,3.96.03,8.09.51,11.8,1.94,1.84.71,3.63,1.54,5.25,2.69,1.18.83,2.74,1.9,3.72,3.21,7.45,8.4,7.59,20.81,2.63,30.5-4.52,8.83-12.76,15.32-21.21,20.17Z"/>
          </g>
        </g>
        <line class="cls-30" x1="438.26" y1="697.68" x2="447.42" y2="514.51"/>
        <polyline class="cls-24" points="619.33 512.03 610.99 684.99 572.57 689.47 586.63 510.7 619.33 512.03"/>
        <path d="M317.27,671.23c.16,1.57.34,3.13.53,4.67.09.75.18,1.48.28,2.21.55,4.17,1.21,8.24,1.96,12.16.07.38.14.75.21,1.12,1.12,5.72,2.48,11.3,4.03,16.57l1.64,5.57,5.3-2.38c4.79-2.15,9.7-4.22,14.63-6.15,1.36-.54,2.73-1.06,4.1-1.58l.27-.11c1.13-.43,2.26-.84,3.39-1.25,5.4-1.98,10.9-3.81,16.44-5.51,5.42-1.66,10.9-3.2,16.42-4.59,1.31-.33,2.62-.66,3.93-.97,1.15-.28,2.31-.55,3.47-.82,82.32-18.95,179.78-9.75,289.78,27.37l3.51,1.19,2.19-2.98c17.57-23.83,30.01-48.36,36.97-72.93,5.78-20.37,7.93-41.25,6.45-62.25-.38-5.33-.98-10.66-1.83-16l-10.02,1.58c.17,1.08.33,2.17.49,3.25,6.65,47.44-5.81,92.45-38.05,137.37-54.83-18.26-106.97-29.76-155.04-34.22-50.16-4.65-97.36-1.75-140.29,8.6-13.2,3.17-26.25,7.13-38.85,11.75-.84.31-1.68.63-2.52.94l-.06.03c-.11.04-.2.08-.3.12-2.37.89-4.73,1.81-7.09,2.77-2.25.91-4.5,1.84-6.72,2.8-.84-3.28-1.61-6.66-2.28-10.1-1.02-5.21-1.87-10.69-2.52-16.35-.11-.96-.22-1.93-.32-2.9l-10.09,1.04Z"/>
        <path d="M316.83,612.42l10.12.7c.13-1.88.27-3.79.43-5.73.26-3.18.56-6.42.9-9.71,2.07-20.49,5.49-42.9,10.46-68.44,6.11-1.96,22.3-6.79,45.68-11.1,27.69-5.12,71.45-10.55,122.62-7.38,70.19,4.35,124.27,1.82,150.3-.08,3.11-.23,5.82-.45,8.11-.64l-.43-5.02v-5.1s-.43.02-.43.02c-.17.02-.34.03-.52.05-21.64,1.83-79.13,5.44-156.4.66-52.33-3.24-97.05,2.33-125.36,7.58-30.76,5.7-48.92,12.11-49.67,12.38l-2.72.97-.56,2.83c-5.07,25.73-8.63,48.37-10.84,69.08-.12,1.07-.23,2.14-.33,3.2-.15,1.48-.29,2.95-.43,4.41-.29,3.12-.55,6.18-.77,9.17-.06.73-.11,1.46-.16,2.18Z"/>
      </g>
      <path class="cls-31" d="M714.38,647.55h2.6s12.38-60.23,12.38-60.23c-21.04-9.24-124.83-20.29-124.83-20.29l-8.58,61.46c39.6,2.82,79.07,9.21,118.43,19.06"/>
      <g class="cls-10">
        <text class="cls-38" transform="translate(608.48 683.56) rotate(6.97)"><tspan x="0" y="0">20</tspan></text>
        <text class="cls-37" transform="translate(634.37 559.79) rotate(5.22)"><tspan x="0" y="0">20</tspan></text>
        <text class="cls-35" transform="translate(335.79 577.55) rotate(-6.13)"><tspan x="0" y="0">20</tspan></text>
        <text class="cls-36" transform="translate(333.38 685.74) rotate(-11.17)"><tspan x="0" y="0">20</tspan></text>
        <path class="cls-24" d="M437.82,631.21l2.56-.45,4.56-53.19c-22.32-5.46-128.89,3.42-128.89,3.42l1.83,51.96c39.49-4.08,79.48-4.62,119.94-1.74"/>
        <g>
          <path d="M535.88,526.01c.12.22,0,.64.03.91,1.69-.16,3.09,1.52,4.54,1.96,1.06.32,2.86.37,4.04.5.28.03.52-.17.81-.04.22.1.76.8.82.83.48.19,1.67.81,2.05,1.28.17.21.1.49.25.72.23.37.84.45.96.64s.1.57.23.83.51.37.55.72l-.48.54c.12-.02.25,0,.31.12.49,1.07.59,2.7,1.35,3.79,1.6,2.32,4.77,4.97,6.14,7.31.6,1.03.83,2.33,1.3,3.4.68,1.56,1.5,3.05,2.17,4.56.34.78,1.2,1.79,1.37,2.54.05.2.2,1.67.17,1.8-.15.63-1.31,1.17-1.2,1.88.07.45,1.04,1.13,1.19,2.11.19,1.23-.31,1.35.28,3,.08.23.01.68.09.77.07.08.62.02.83.34.04.06.59,1.13.63,1.24.37.92.34,1.91.51,2.78.06.3-.24,1.55-.35,1.92-.2.66-.79,1.77-.99,2.46-.3,1.08-.28,3.04.04,4.12.17.58.77,1.04.98,1.52.72,1.66,1.42,5.85,1.62,7.62.08.68-.32,1.16-.31,1.57,0,.27.27.55.3.93.07.71.08,3.23-.02,3.9-.25,1.75-1.66,3.61-1.64,5.5.01.87.26.32-.15,1.48-.92,2.6-2.59,4.25-4.88,5.77-.42.28-1.05.39-1.39.65-.23.17-.36.57-.42.6-.19.11-.64-.01-.95.07s-1.59.8-1.77,1.05c-.46.66-.38,2.11-.84,2.91-.56.97-3.08,2.67-4.08,3.75-.42.45-.94.42-.7,1.18.1.32.81,1.4,1.05,1.77.93,1.45,2.05,2.58,3.26,3.78.63.29,1.32-.19,1.96-.24,1.57-.11,1.89.79,3.04,1.19.29.1.62.04.94.15.76.28,3.23,3.54,3.73,4.41.64,1.11,1.07,2.35,1.67,3.49.32.61,1.47,2.84,1.81,3.19.7.72,2.69,1.39,3.64,2.15.63.5,1.18,1.45,1.89,1.71,1.08.4,2.86.23,4.03.66l1.22.42-4.07-.47c.28.93-1.58,1.2-2.27,1.25-.6.04-1.57-.25-1.65-.24-.53.08-2.89,1.49-3.64,1.84-2.19.99-3.72,1.38-5.66,2.95-1.97,1.59-3.77,3.59-5.8,5.16-.21.16-1.12.99-1.33.79l.19-.52c2.86-1.91,5.3-5.39,8.11-7.22,2-1.3,6.43-3.22,8.65-4.03.65-.24,1.32.05,1.98-.13-.59-.91-1.7-1.2-2.55-1.75-2.22-1.45-3.2-2.03-4.52-4.4-.68-1.23-.98-2.26-1.86-3.47-.17-.24-.62-.51-.71-.71-.09-.21.1-.44.08-.46-.04-.05-.52-.02-.63-.1-.67-.48-1.4-1.84-2.32-2.36-.41-.23-.78-.23-1.16-.41-.33-.15-1.04-.73-1.29-.74-.06,0-1.12.36-1.17.39-.25.17-.22.57-.36.67-.12.09-.4,0-.43.03-.07.07.16.54.09.79-.09.35-.75,1.13-.96,1.55-.69,1.42-1.61,3.77-1.92,5.29-.04.19.05.35.12.5l-.61.18c.15.89-.28.69-.65,1.15-.59.75-1.13,1.76-1.66,2.57-.42,1.14.91,1.21,1.51,1.64.16.12,1.16,1.44,1.08,1.5l-.63-.09-.26.58-2.48,1.55-.39-.62.15.78c-2.22,1.15-4.59,2.47-6.56,4.01-1.95,1.53-3.46,3.53-5.41,5.07-.88-.62.31-2.09.8-2.79,1.71-2.47,4.42-4.12,6.56-6.12.43-.4,1.32-1.12,1.62-1.51.21-.28.69-1.11.17-1.07v-.31c.13-.3.66-.28.81-.51s-.05-.5.02-.64c.34-.68.87-1.35,1.09-2.29s.02-.68.47-1.71c.11-.26.57-1.53.44-1.68l-.86.47-.06-.45c1.03-.13,1.09-1.54,1.48-2.2.07-.12.31-.15.38-.27.3-.52.49-1-.15-1.21.5-.69.69-1.72,1.13-2.38.08-.13.38-.19.56-.46.11-.17.43-1.06.33-1.15-.33-.09-.59.22-.85.24s-.6-.16-.91-.09c-.17.04-.4.84-.81.79-.36-.43.22-.46.23-.55.07-.46-.5-.19-.72-.09-.41.19-.41.63-.84.63l.47-.86c.02-.12-.15-.1-.23-.08-1.08.34-2.17,1.19-3.37,1.25.66.81-.21.69-.71.3l-.24.07c-.06.7-.69.64-.92.96-.48.67-.74,1.09-1.43,1.71-.16.14-.51.17-.59.27-.11.16-.03.6-.18.81-.1.15-.41.12-.57.25-.25.21-.96,1.28-1.34,1.65-.16.15-.47.16-.58.28-.22.23-.12.76-.22.87-.08.1-.49.06-.66.17-.14.1-.98,1.42-1.19,1.66-.29.33-1.27,1.04-1.43,1.23-.21.25-.07.67-.21.88-.11.16-.47.14-.63.31-.21.21-.15.6-.27.75-.23.27-1.16.2-.59,1.29-1.1-.37-.87.52-1.17.94-.14.19-.52.15-.63.31-.18.26.02.8-.09.93-.05.06-.44.02-.62.24-.16.19-.13.55-.29.8-1.04,1.58-2.47,3.23-3.61,4.68-.36.46-1.22,1.96-1.63,2.14-.65.24-1.41-.02-2.04-.02-.34,0-.68.2-1.1.18-.64-.04-1.94-.31-2.51-.31-.33,0-.66.3-.94.28-.54-.03-.77-.13-1.56-.13-1.37,0-2.69-.14-4.07,0-1.39.14-3.26-.12-4.84-.15-.49,0-1.05.27-1.66-.02l.63-2.97-.55.47-.31-.93c-.43.21.04.6-.08.77s-1.33.27-1.49.63l.09.94-.61.18-.04.9c-.46.35-.9.01-1.31.02-1.94.03-3.82.06-5.8,0-1.03-.03-2.59.46-2.98-.79-.69,0-.59.76-.79.8h-1.62s.16-.48.16-.48c-.91.45-1.94.82-2.81.06l.25-.54c1.3-.39,2.54-.99,3.8-1.48.33-.13.83,0,.94-.39l-.47-.16c.89.17,2.07-.1,2.94-.42.54-.2.74-.3,1.05-.83l.23.47c.31.04.63-.61.7-.61.12,0,.46.43,1.07.11.37-.19.1-.61.89-.36l.24-.71c.57.38,1.19.45,1.79.06.12-.08.13-.36.27-.39.22-.04.5.15.73.12.18-.02,3.12-.85,3.27-.93.28-.15.31-.51.53-.58.47-.15.87.52,1.17-.24s-.64-1.35-.64-1.43c.01-1.04-.4-.79-.9-1.58-.89-1.39-1.88-4.17-2.9-5.32-.27-.31-.95-.43-1.28-.67-.36-.26-.5-.7-.78-.94-.93-.79-2.07-1.5-2.98-2.35l-.31.47c-.67-.76-1.54-1.43-2.2-2.18-.27-.31-.39-.8-.7-1.18-1.94-2.34-3.83-4.88-5.86-7.28-.98-1.15-2.21-2.22-3.13-3.44-.66,1.76-2.61,3.31-4.3,1.64-.79-.78-.84-1.94-.77-2.97.01-.24.24-.46.25-.63,0-.25-.65-1.53-.77-1.99-.43-1.65-.36-3.67-.1-5.35-1.49-.61-1.57-2.5-1.11-3.85-1.45.28-1.64-.83-2.42-1.41-.37-.28-.74-.23-1.19-.69-1.11-1.15-1.34-3.76-2.9-4.78l.24-.39c-.93-.36-3.7-2.18-3.99-3.06-.08-.24.12-.6.08-.62-.09-.05-.35.11-.48-.1-.93-1.6-.44-3.34-.46-4.99,0-.55-.22-2.88-.51-3.17-.16-.16-.58-.12-.75-.27-.41-.35-.13-2.37-.47-2.97l.47.16c-.84-.78-.34-1.46-1.03-2.42-.12-.16-.46-.22-.52-.42s.16-.51.14-.75c-.02-.31-.4-.52-.41-.78-.01-.3.3-.56.33-.78.17-1.28-.09-3.47-.08-4.85,0-1.55-.17-1.05-.76-2.06-1.84-3.2-1.82-5.35-.62-8.87.14-.4.37-.39.46-.63.15-.38.12-1.11.28-1.41.1-.19.4,0,.53-.29.15-.34.05-.77.14-1.11.39-1.37,1.03-2.4.9-3.95-.03-.36-.31-.85-.28-1.07.03-.18.33-.39.4-.69.34-1.51.44-2.37,1.22-3.78.33-.6,1.22-1.13,1.39-1.59.11-.32.02-.73.12-.9.03-.05.38-.18.52-.33.65-.68.73-.48,1.18-.86.29-.24.7-1.43.78-1.49.12-.08.46.15.72.03.37-.16.6-.84.9-1.15.66-.68,2.44-1.3,3.27-1.74.28-.15.51-.59.73-.69.21-.09.48.08.73-.02s.24-.45.45-.49c.13-.03.33.13.53.05.82-.33,1.22-2.03,1.51-2.73.03-.07.71-1.16.77-1.25.36-.52,1.7-1.16,2.06-1.62.4-.51,1.01-1.94,1.49-2.43.21-.21.59-.03.83-.18.71-.44.26-1.12,1.84-.76.4.09.72.62.95.58.51-.27.58-.87.91-1.3.85-1.1,2.51-1.44,3.63-2.31.34-.26.68-1.03.89-1.15.22-.12.53-.05.77-.17.26-.12.47-.61.74-.68.31-.08.51.21.78.24.68.08,2.18.2,2.48-.57.14-.34-.34-1.02.69-1.34.62-.19,3.01-.2,3.68-.07.54.11.36.22,1.25.31,1.86.19,3.64.44,5.45.91.59-.37,1.98-1.51,2.57-1.66.41-.1.85,0,1.3-.1,1.02-.23,2.52-1.24,3.58-1.43,1.48-.27,2.69-.29,4.07.33.21.09.37.46.55.49.71.08,1.53-1.79,3.09-1.16.44.18,1.09.74,1.49.86,2.75.81,5.75,1.11,8.23,2.72.14.09,1.28,1.03,1.32,1.1ZM533.41,530.52c.91.21,1.84.96,2.19-.39-.44-.34-.99-.63-1.56-.55l.47.47-1.09.47ZM537.95,534.59c-3.09,1.08-5.96,4.1-7.98,6.65-.19.24-.47.55-.47.86,1.08-.7,1.74-1.94,2.58-2.82.93-.98,2.4-2.34,3.49-3.13.77-.55,1.72-.86,2.38-1.57ZM534.19,538.66c-.25-.05-.4.14-.58.27-.25.18-2.86,2.88-2.7,3.02l.77-.44,2.52-2.85ZM537.58,541.57c.27-.26.5-.66.83-.96.48-.43,1.59-.83,1.49-1.48-2,1.21-3.38,3.14-5.19,4.59l-2.09,2.29c.33-.02.72-.28.97-.47,1.15-.86,2.82-2.86,3.98-3.97ZM538.73,541.94l-.07-.31c-1.15.92-2.27,1.88-3.05,3.13.59.09.33,0,.46-.23.29-.48,1.1-.98,1.56-1.46.34-.35.56-1.01,1.1-1.13ZM527.47,549.61c-1.98-.63-3.68-1.76-5.79-2.27-5.11-1.23-14.53-.07-19.58,1.56-2.26.73-4.77,1.21-7.15,1.92-3.84,1.14-8.82,3.12-11.62,6.06-.92.97-2.11,5.79-2.42,7.28-.29,1.37-.57,3.08-.7,4.47-.06.68.12,2.1,0,2.63-.04.2-.54.08-.64.81-.15,1.12-.08,3.83,0,5.02.17,2.36.67,1.79,2.12.54l.22.56c.29.25.53-.16.75-.2,1.9-.4,4.72-1.54,6.52-1.28.8.11,2.66.51,3.33.82.07.03.14.39.46.39,1.05-.69.89,0,1.25.16.19.08.49.01.68.1.67.32,1.21.97,2.03,1.02l-.31.46c.77.09.74,1.18,1.57,1.1.21.39-.36.28-.31.39.37.32.44.79.48,1.25.09,1.38-.57,2.61-.64,3.76-.04.79.39-.82.63-.31-.29.37-.26.89-.42,1.3-.08.21-.36.17-.36.28,0,.18.16.35.1.69-.22,1.15-.65,2.6-1.19,3.6-.27.04-.16-.37-.16-.55,0-1.27.02-2.55,0-3.83-.53-.07-.5.53-.74.79-1.22,1.33-1.6-.8-2.9-.48-.19.05-.77,1.52-1.28,1.88-1.83,1.29-4.04.38-4.79-1.55-1.46-.3-1.82,2.28-.77,2.86.24.13,1.95.15,2.28.11.5-.07,1.37-.44,1.94-.57.16-.03.51-.21.48.09-.58.24-1.17.47-1.77.65-.47.14-.87.05-1.24.14-.13.03-.12.33-.41.41-.4.1-1.37-.24-1.52.52-.19.94,1.01.49,1.39.51.35.02,1.63.35,1.68.28.04-.06-.1-.37.1-.48.22-.12.92-.15,1.27-.26.8-.26,2.02-.88,2.78-.98.63-.08-.12.76-.71.47l.47.62c-1.08-.18-1.47.77-2.24,1.28-1.21.81-4.57,1.93-5.95,1.5-.5-.15-.3-1.1-1.29-1.08-.28,0-1.29.63-1.46.89-.14.22-.22.55-.29.81-.75,2.86-.23,7.76.31,10.71.1.57.86,3.53,1.06,3.91.08.16.33.2.44.38,2.32,3.77,5.21,7.17,9.42,8.83.06.72-1.18.05-1.56.16l.63.78c-.46.01-.86-.24-1.29-.35-.21-.05-.3-.3-.27.11l2.03,2.35-.3.29c3.2,4.81,8.31,10.24,13.66,12.64,7.31,3.29,16.05-.42,21.78-5.2,2.47-2.05,4.8-4.31,6.73-6.88.23.34-.18.78-.36,1.05-.62.98-1.55,1.77-2.23,2.7.71.04,2.66-2.5,3.13-2.03.09,1.13-1.38,1.47-1.88,2.35.56-.19,1.12-.63,1.61-.97,1.55-1.08,2.42-2.21,3.72-3.32,3.15-2.69,4.66-3.27,6.74-7.19,2.79-5.24,2.63-8.12,3.27-13.79.04-.38.3-.71.31-1.11.02-.63-.28-1.25-.15-2.02.15-.91.68-.98.61-2.36-.18-3.84-1.71-7.55-2.78-11.15-.24-.79-.28-1.9-.55-2.73-.52-1.62-1.81-2.72-2.44-4.13-.54-1.19-.81-2.64-1.4-3.92-.62-1.36-1.45-2.61-2.22-3.89l.78.08c.49-3.04-1.59-6-3.25-8.41-1.9-2.75-3.98-4.94-6.45-7.16l.35-.07c.47-.28-.63-.5-.82-.74-.32-.41-.1-1.05-.33-1.36-.14-.2-1.13-.66-1.22-1.13-.05-.27.51-.66.21-1.31-.14-.3-.99-.78-1.3-.97l.13-.29ZM491.76,578.9c-.07-.06-1.52-.16-1.78-.17-1.09-.05-3.92.18-4.89.51-.02,0-.04.19-.16.25-.85.42-1,.56-1.58,1.37-.3.42-1.31,2.19-1.49,2.6-.1.24-.4,1.85-.4,2.08.02.61.72.99,1.28.86.16-.04.29-.59.59-.72.34-.14.59.16.93.02s.73-.94.82-1c.04-.03.65-.21.87-.29,1.3-.48,4.21-.8,5.58-.81.47,0,.91.33,1.5.06s.72-1.78.63-2.33c-.16-.95-1.18-1.34-1.72-1.9-.17-.17-.13-.47-.18-.51ZM549.49,593.15c-1,.22-.54,2.14-.38,2.97.23,1.13,1.21,3.54,2,1.31.55-1.55.98-4.85-1.62-4.28ZM550.27,599.25c-.87.27-.15,2.27.57,2.14s1.39-2.74-.57-2.14ZM555.27,607.47c.42-1.06.19-3.94-.9-4.56-.93-.53-5.46-.23-6.01.69-.58.97,1.56,4.38,2.43,4.77.18.09,1.8-.03,2.1-.09.37-.07.74-.32,1.14-.42.35-.1,1.05.09,1.24-.4ZM481.45,607.51c-.74-.71-.02-3.39-1.37-2.86-1.11.43-.79,2.74.2,3.33l.33-.62.84.15ZM481.77,608.45l-1.25.74c.02,1.61-.08,3.5.39,5.06.13.45.48.75.55,1.17.16.98-.31,1.72.15,2.82.58,1.39,2.96.47,3.26-.83.23-1.02-.25-.73-.4-1.08-.11-.26-.05-.7-.2-.99-.92.1-1.76.06-2.65-.16l.93-1.62.49-.18-1.26-4.92ZM552.08,612.48c.59.39,1.4.1,1.66-.52.64-1.46.56-3.06-1.46-2.71-1.41.24-.91,2.76-.2,3.23ZM501.49,649.77c.57.1,1.27-1.48,1.09-1.72-.15.12-.53.12-.59.19-.05.06-.56,1.47-.5,1.53Z"/>
          <path d="M526.78,572.37c.14.07,0,.35.68.09l-.27.18-.04.44c1.05.29,2.24.74,2.97,1.57-.48,0-1.51-.04-1.57-.62l-.24.32c-.94-.32-1.89-.63-2.76-1.12-.16-.09-.89-.8-.95-.82-.32-.1-1.32-.2-1.72-.3-.15-.03-.26-.17-.35-.28-.21.66-.98.51-1.56.46-1.66-.16-3.62.16-5.3.38-1.31.17-3.98,1.64-4.88,2.6-.14.14-1.22,1.77-1.25,1.88-.2.74.13,1.32-.07,2.04l.23-.31c1.01,1.57,2.57.11,3.68-.25.97-.31,2.49-.62,3.49-.85.12-.03.1-.31.19-.31,1.39-.04,3.21-.15,4.67.01,1.55.17,5.61,2.27,6.81,1.31.13-.11.49-.61.61-.8.14-.21.19-.89.49-.76.52.54,1.93,1.84,1.82,2.59-.09.58-.47.54-.63.79-.13.2-.06.49-.24.7-.08.09-1.89,1.22-2.03,1.26-1.25.4-2-.29-3.06-.08-.51.1-1.54,1.2-2.43.93.7-.63,1.05-1.54.53-2.31l-.68-.02c-.17.41-.36,1.34-.64,1.63-.05.06-1.17.89-1.24.92s-1.41.26-1.48.25c-.44-.04-1.92-.94-2.23-1.3-.16-.19-.45-.97-.54-1.03-.15-.11-.62.26-.84.24-.18-.02-.27-.34-.54-.25.09.83-.68,1.79-.14,2.57.17.24.5.17.46.4l-.44.23.15.54.59.03c-.02.98,1.44,1.12,1.74,2.02l.37-.31c.94.42,2.19.39,3.11.67.13.04.34.19.27.27-.61.41-1.04-.07-1.33-.1-.15-.01-.67.37-1.09.41s-1.92-.08-2.35-.16c-.33-.06-.42-.35-.67-.43-.74-.24-1.55-.44-2.29-.67l-.18.33c-.29,0-.49-.4-.81-.45-.28-.04-.51.19-.82.06-.7-.3-.58-1.88-1.41-2.28l-.16.62-4.38-5.56c-1.01-1.07-1.33-2.27-1.09-3.74.03-.18.58-1.14.64-1.17.1-.06.33.16.43.12.06-.02.68-.9.81-.98.17-.1.43-.06.61-.18.09-.06.68-.67.73-.69l.35.03.33.44,1.17-1.73c.35-.37,1.02-.28,1.37-.47.16-.08,1.23-1.05,1.32-1.08.31-.1.66.2.9.13.2-.06.19-.42.36-.46.35-.09.81.1,1.17.07.4-.03.75-.31,1.01-.34.67-.06,2.08.28,2.62.22,3.3-.38,5.12,1.08,8.02,2.47ZM519.48,579.34l.09-.93c-.21-.28-.28.08-.59.12-.11.01-.37-.17-.42-.12l-.16.94h1.09Z"/>
          <path d="M523.08,615.18s-.48.03-.59-.03c-.17-.26-1.44-1.67-1.55-1.69-.37-.07-1.02.13-1.47.07-.77-.12-1.52-.57-2.41-.55-.6.02-1.43.61-2.02.62-1.98.04-3.93.17-5.94.22-.19,0-.39.28-.62.24-.17-.03-.39-.34-.69-.41-.36-.08-1.31-.08-1.68-.02-1.41.24-.35,1.29-1.14,1.52-.28.08-1.19.18-1.52.2-1.29.07-2.69-.39-3.89.19-.26.12-.79.93-.93,1.02s-.42.03-.57.13c-.36.24-.58.7-1.11.7l.31.31c-1.18-.12-.84.87-.38,1.56.86,1.28,3.75,2.74,5.23,2.12,1.23-.51,2.25-.37,3.69-.39.17,0,.34-.06.48-.14l.07.3.25-.32c.78.21,4.61-.66,5.03-.27.09.08.03.48.27.59.2-.05.77-.6.82-.61.28-.08.59.03.94-.12s.36-.71.82-.67c.24.9-.56.94-1.02,1.56-.25-.21-.12-.58-.55-.47.08.5-.51.93-.94,1.03-.4.09-.62-.08-.84-.05-.35.06-.67.7-1.35.27l-.16.78c-1.13-.59-1.69.65-2.91.32l-.38-.32-.26.64c-.73-.3-1.24.11-1.85.15-1.39.08-3.3,0-4.69-.17-.67-.08-1.43-.27-1.34-1.08l-.16.31-2.75-3.13.4-.86c-.25-.41-.57-.07-.93-.16-.8-.2-3.61-2.7-3.77-3.44-.1-.47.34-.03.48-.15.48-1,.73-1.59,2.02-1.34l-.16-.31,1.41-.31c-.22.27-.59,1-.16,1.25.17-1.9,2.01-1.51,3.19-2.18.22-.12.01-.45.18-.48.32-.05,1.95.19,1.64.79l.24-.47c.35.12,1.08,0,1.02.47l.39-.32.79.47-.08-.47c.63.33.91-.08,1.2-.13.19-.03.35.26.59.27.4.02.7-.37,1.18.17v-.47c.33-.09.74.2,1,.16.1-.01.08-.28.21-.31.3-.08,2.55-.28,2.78-.26.16.02.34.33.61.25.16-.05.19-.35.3-.42.48-.3,3.91-1.09,4.48-1.07.78.04,2.05.31,2.91.25.27-.02.21-.28.44-.36.77-.24,1.66-.33,2.45-.13-.46-.85.57-1.19.47-2.03.3.26.77.49,1.01.79.21.27,1.12,2.61,1.16,2.93s-.25.45-.22.67c.05.42.68,1.1.68,1.17,0,.11-.45.43-.44.79,0,.2.48.7.31.86Z"/>
          <path d="M513.34,601.84c-.03.06-.97.89-1.03.91-.77.2-.79-.07-1.55.36-.68.38-.43-.07-.65-.21-.68-.45-.66.41-1.04.51-.28.07-1.16-.16-1.5-.09-.66.15-1.5.65-2.1.89-2.22.86-3.77,1.61-6.2,1.23-.24-.04-.45-.16-.67-.26l-.45.46c-.66-.32-1.4-.12-2.06-.46-.36-.19-1.76-1.85-1.47-2.2,1.56-.39,2.98-.56,4.57-.28,2.12.38,2.97,1.3,5.25.16.27-.14.13-.62.74-.21l.16-.15c-.16-.32.3-.82.56-1,1.51-1.07,5.08-1.06,6.86-.89l.4-1.4c.24.55.4,2.12.19,2.62Z"/>
        </g>
      </g>
      <rect x="70.84" y="407.46" width="5.65" height="18.61"/>
      <polygon points="701.55 310.97 715.55 298.33 715.52 315.01 701.55 310.97"/>
      <polygon points="715.55 298.33 692.62 293.47 703.96 308.66 715.55 298.33"/>
    </g>
  </g>
</svg>