<svg xmlns="http://www.w3.org/2000/svg" x="0px" y="0px" viewBox="0 0 100 100">

<defs>
	<g id="s">
		<g id="c">
			<path id="t" d="M0,0v1h0.5z" transform="translate(0,-1)rotate(18)"/>
			<use href="#t" transform="scale(-1,1)"/>
		</g>
		<g id="a">
			<use href="#c" transform="rotate(72)"/>
			<use href="#c" transform="rotate(144)"/>
		</g>
		<use href="#a" transform="scale(-1,1)"/>
	</g>
</defs>


<!-- front -->
 	<polygon points="29.6,64 98.9,52.4 98.9,82.4 29.6,97" fill="#039"/>
 	
<g fill="#fc0" transform="scale(1.9)translate(34.9,38.9)">
	<use href="#s" y="-6"/>
	<use href="#s" y="6"/>
	<g id="l">
		<use href="#s" x="-6"/>
		<use href="#s" transform="rotate(150)translate(0,6)rotate(66)"/>
		<use href="#s" transform="rotate(120)translate(0,6)rotate(24)"/>
		<use href="#s" transform="rotate(60)translate(0,6)rotate(12)"/>
		<use href="#s" transform="rotate(30)translate(0,6)rotate(42)"/>
	</g>
	<use href="#l" transform="scale(-1,1)"/>
</g>


<g fill="#aaaaaa">
<!-- links -->
 	<polygon points="1.8,48.4 26.4,62.8 26.4,96 1.8,74"/>

<!-- Deckel oben -->
  <path d="M5,28.8c0,0,2.6-5.1,8.3-3.7c0,0,8.6-0.6,15.4,34.9
     l70.2-11.6c0,0-5.6-26.3-20.6-27.8L11,24.2C11,24.2,6,24.4,5,28.8z"/>

<!-- Deckel links -->
  <path d="M25.5,59.9c0,0-3.8-35.4-15.3-32.6c0,0-8.8,1-8.4,18.6"/>
</g>
</svg>