<svg xmlns="http://www.w3.org/2000/svg" x="0px" y="0px" viewBox="0 0 100 100">


<!-- front -->
 	<polygon points="29.6,64.00 52.7,60.13 52.7,93.13 29.6,97.00" fill="#f77f00"/>
 	<polygon points="52.7,60.13 75.8,56.26 75.8,88.26 52.7,93.13" fill="#ffffff"/>
 	<polygon points="75.8,56.26 98.9,52.40 98.9,82.40 75.8,88.26" fill="#009e60"/>

<g fill="#aaaaaa">
<!-- links -->
 	<polygon points="1.8,48.4 26.4,62.8 26.4,96 1.8,74"/>

<!-- Deckel oben -->
  <path d="M5,28.8c0,0,2.6-5.1,8.3-3.7c0,0,8.6-0.6,15.4,34.9
     l70.2-11.6c0,0-5.6-26.3-20.6-27.8L11,24.2C11,24.2,6,24.4,5,28.8z"/>

<!-- Deckel links -->
  <path d="M25.5,59.9c0,0-3.8-35.4-15.3-32.6c0,0-8.8,1-8.4,18.6"/>
</g>
</svg>