<?xml version="1.0" encoding="UTF-8"?>
<svg xmlns="http://www.w3.org/2000/svg" viewBox="0 0 1034 1000">
  <defs>
    <style>
      .cls-1, .cls-2, .cls-3, .cls-4, .cls-5 {
        fill: none;
      }

      .cls-1, .cls-2, .cls-4 {
        stroke-width: 8px;
      }

      .cls-1, .cls-2, .cls-4, .cls-5 {
        stroke-miterlimit: 10;
      }

      .cls-1, .cls-5 {
        stroke: #fff;
      }

      .cls-6 {
        fill: #03422b;
        font-family: LucidaHandwriting-Italic, 'Lucida Handwriting';
        font-size: 77.33px;
        font-style: italic;
      }

      .cls-2, .cls-4 {
        stroke: #000;
      }

      .cls-4 {
        stroke-linecap: round;
      }

      .cls-7 {
        fill: #fff;
        opacity: .51;
      }

      .cls-8 {
        fill: #b0d1c9;
      }

      .cls-5 {
        stroke-width: 8.4px;
      }

      .cls-9 {
        fill: #8e532b;
      }
    </style>
  </defs>
  <g id="Layer_4" data-name="Layer 4">
    <polygon class="cls-8" points="962.58 556.82 927.23 571.89 926.96 572 828.89 613.81 780.24 634.55 391.68 800.2 320.35 627.7 301.09 581.14 294.12 564.28 293.27 562.23 293.26 562.22 293.25 562.19 293.25 562.18 286.32 545.43 289.68 544.27 294.5 542.62 307.63 567.27 307.64 567.27 329.95 609.15 329.97 609.19 334.04 616.84 334.05 616.84 338.15 624.54 338.16 624.56 361.95 669.21 406.25 752.36 406.26 752.36 508.23 701.14 515.86 697.32 515.86 697.31 781.72 563.8 816.95 546.1 821.81 543.66 932.83 487.91 957.3 544.58 962.58 556.82"/>
    <path class="cls-8" d="M302.41,566.62l22.09,57.79,67.18,175.79,388.56-165.65,48.65-20.74,98.07-41.81.27-.11,13.07,18.09-125.94,53.95-26.44,11.33-270.85,116.03-145.72,62.43-67.19-193.18-.32-.92-22.18-63.76-.15-.43-7.87-22.66-.04-.11h-.01s-.05,0-.16.01l.21.1,1.04.5,18.58,8.95,2.32,1.11,6.83,3.29Z"/>
    <polygon class="cls-8" points="295.57 563.31 293.25 562.18 273.6 552.66 295.57 563.31"/>
    <polygon class="cls-7" points="905.6 403.54 780.7 466.52 742.36 386.23 870.22 323.43 905.6 403.54 905.6 403.54"/>
    <line class="cls-1" x1="821.81" y1="543.66" x2="705.18" y2="310.95"/>
    <rect class="cls-7" x="463.91" y="438.53" width="39.21" height="256.17" transform="translate(1176.67 839.33) rotate(151.95)"/>
    <line class="cls-1" x1="522.01" y1="743.7" x2="501.2" y2="679.41"/>
    <line class="cls-1" x1="516.82" y1="828.38" x2="517.18" y2="747.56"/>
    <polygon class="cls-7" points="799.99 687.85 777.44 626.99 802.43 580.08 837.04 598.52 813.65 642.42 841.09 701 799.99 687.85 799.99 687.85"/>
    <polyline class="cls-4" points="841.09 265.27 870.06 323.51 870.07 323.51 871.73 326.86 871.74 326.87 871.77 326.93 917.22 418.3 917.24 418.35"/>
    <polyline class="cls-4" points="645 338.91 468.15 427.17 427.67 447.38 426.1 448.16 393.62 464.37 323.25 499.49 296.73 512.72 296.27 512.95"/>
    <polyline class="cls-4" points="294.5 542.62 307.64 567.27 329.95 609.15 329.97 609.19 334.04 616.84 334.05 616.84 338.15 624.54 338.16 624.56 361.95 669.21 406.26 752.36 508.24 701.15 515.86 697.32 515.86 697.31 781.72 563.8 816.95 546.1 821.81 543.66 932.83 487.91 940.3 484.16"/>
    <line class="cls-4" x1="917.83" y1="559.68" x2="888.76" y2="520.5"/>
  </g>
  <g id="Layer_3" data-name="Layer 3">
    <path class="cls-8" d="M960.98,543.17l-3.68,1.41-39.47,15.1-89.44,34.23-41.86,16.01-273.9,104.81-128.48,49.17-51.2-146.19-2.98-8.52-.02-.04-14.81-42.3-18.87-53.9-5.33-15.21s.08-.03.12-.05l5.67,15.03,26.52-13.23c5.59.89,10.89,1.64,15.88,2.36,1.54.23,3.04.45,4.52.67.81.12,1.6.24,2.39.37,3.09.47,6.04.96,8.83,1.51.37.07.74.14,1.1.22.4.07.8.15,1.2.24.59.12,1.17.24,1.74.37.54.12,1.08.24,1.61.38.44.1.87.21,1.3.32.47.11.93.23,1.38.35,1.24.34,2.44.7,3.61,1.08.02.01.06.02.09.03.57.19,1.13.39,1.68.59.59.21,1.17.43,1.74.66.53.22,1.06.45,1.57.68.42.19.83.38,1.23.58.07.03.14.06.21.11.15.07.3.14.45.23.4.19.78.4,1.16.61.14.08.29.16.44.24.15.09.31.17.46.25.74.39,1.56.79,2.45,1.2.25.12.51.24.78.36.53.24,1.1.49,1.68.73.23.1.47.2.71.3.48.21.97.41,1.48.61.26.11.51.21.77.31,1.39.55,2.86,1.12,4.43,1.69.7.26,1.41.52,2.14.78,1.16.42,2.37.84,3.61,1.26.57.2,1.15.4,1.74.6.33.11.67.22,1.01.34.18.05.36.11.54.18.18.06.36.12.55.18.66.21,1.32.43,2,.65,1.84.6,3.75,1.21,5.72,1.82.53.16,1.07.33,1.62.5,1.08.33,2.18.67,3.29,1,.73.22,1.46.43,2.19.66,1.93.57,3.9,1.14,5.89,1.7.74.22,1.48.43,2.22.64,1.96.55,3.94,1.1,5.93,1.64.79.22,1.59.44,2.39.65.67.18,1.33.36,1.99.54.61.16,1.22.32,1.83.48.69.18,1.38.36,2.07.54.75.2,1.51.39,2.26.58.91.24,1.83.47,2.74.7,1.15.29,2.29.58,3.43.86,3.3.82,6.58,1.61,9.83,2.36.71.17,1.41.33,2.12.49,1.3.3,2.6.59,3.89.88.74.16,1.47.32,2.19.48.38.08.77.16,1.15.25,3.43.74,6.77,1.42,9.99,2.04.71.14,1.42.27,2.11.4,1.15.22,2.28.43,3.39.62.49.09.98.17,1.46.25.42.08.83.15,1.24.21.06.02.13.03.19.03.59.1,1.17.2,1.74.29.32.05.63.1.95.15.62.1,1.24.19,1.84.28.31.05.61.09.91.13.46.07.93.13,1.38.19.23.04.46.07.69.09.35.05.7.1,1.05.14.11.02.22.03.33.04.56.07,1.1.13,1.64.19.51.06,1,.11,1.49.16,1.33.13,2.58.23,3.75.3.42.02.83.04,1.22.05.81.04,1.57.05,2.28.04.29,0,.59-.02.91-.04.16-.01.32-.02.49-.04.5-.04,1.03-.1,1.58-.19.22-.03.45-.07.68-.11.58-.1,1.19-.22,1.82-.36.27-.06.55-.12.83-.19.37-.09.75-.18,1.14-.29.26-.06.52-.14.79-.22.82-.22,1.68-.48,2.56-.77.29-.09.59-.19.88-.3.56-.18,1.12-.38,1.69-.6.02,0,.04-.01.06-.02.55-.2,1.11-.41,1.67-.64.58-.23,1.17-.47,1.77-.73.6-.25,1.2-.51,1.8-.79.75-.34,1.5-.7,2.26-1.07.41-.2.81-.41,1.22-.62.45-.23.9-.46,1.36-.71.37-.2.74-.4,1.11-.61.37-.2.73-.41,1.1-.63.41-.23.81-.47,1.22-.72.33-.19.66-.4.99-.61.74-.45,1.47-.92,2.19-1.42.34-.22.67-.45,1-.68.39-.27.78-.54,1.16-.83,1.2-.86,2.37-1.77,3.51-2.73.44-.37.88-.74,1.31-1.12.34-.3.67-.59.99-.9.32-.28.63-.58.93-.87.33-.32.66-.65.99-.98.22-.22.44-.44.65-.67.24-.25.48-.5.71-.76.43-.46.84-.92,1.23-1.39.25-.28.48-.56.71-.85.35-.42.69-.85,1.01-1.28.18-.23.35-.45.51-.69.16-.21.31-.42.46-.63.32-.44.62-.89.91-1.35.3-.45.59-.91.86-1.38.23-.36.44-.73.64-1.1.21-.37.41-.74.6-1.12.15-.28.29-.56.43-.85.28-.57.54-1.15.79-1.74.13-.29.25-.59.36-.89.32-.79.6-1.59.85-2.41.07-.19.13-.38.18-.58.06-.17.11-.34.15-.52.09-.32.18-.64.25-.97.04-.14.08-.28.1-.43.02-.03.03-.07.03-.11.05-.19.1-.38.13-.58.05-.19.09-.39.12-.59.09-.43.17-.86.23-1.3.08-.45.14-.9.18-1.36.12-.93.19-1.87.21-2.83.01-.09.01-.18.01-.28.02-.63.02-1.26,0-1.91,0-.32-.02-.64-.04-.96,0-.05,0-.09,0-.13-.01-.28-.03-.57-.06-.85-.05-.69-.12-1.38-.22-2.09-.03-.26-.07-.52-.12-.79-.02-.18-.05-.36-.09-.55-.03-.24-.08-.49-.13-.73-.14-.76-.31-1.54-.51-2.32-.1-.42-.21-.85-.34-1.28-.08-.31-.17-.62-.27-.93-.04-.15-.09-.3-.14-.46-.04-.15-.1-.31-.15-.47-.59-1.82-1.32-3.68-2.2-5.58-.08-.19-.17-.38-.27-.58-.19-.41-.4-.83-.61-1.25-.26-.52-.53-1.04-.81-1.56-.28-.52-.57-1.04-.87-1.57-7.66-13.36-19.54-23.79-33.54-30.18-.51-.23-1.03-.47-1.56-.7-.97-.42-1.98-.85-3.02-1.28-.54-.22-1.09-.45-1.65-.66-.45-.19-.9-.37-1.36-.54-.92-.37-1.86-.73-2.83-1.09-9.27-3.47-20.69-7.09-33.5-10.82-2.56-.75-5.18-1.5-7.86-2.26-1.32-.37-2.66-.75-4.01-1.12-1.35-.38-2.72-.76-4.1-1.14-1.84-.51-3.7-1.02-5.57-1.53-2.94-.8-5.91-1.6-8.93-2.41-1-.27-2.01-.54-3.02-.81l48.38-18.17,125.82-47.25,36.14-13.57,56.43-21.2,1.66-.62,4.35-1.63,19.45-7.31,114.2-42.88,19.89-7.47,56.24,160.5.02.05,23.06,65.81,20.68,59.01Z"/>
    <path class="cls-3" d="M510.43,525.01c-17.63.29-33.51-4.73-47.39-15.83-1.62-1.3-2.74-3.13-3.1-5.18-2.87-16,.43-30.28,10.8-42.56,1.44-1.7,3.51-2.74,5.73-2.95,16.41-1.55,33.18,1.37,50.22,7.44"/>
    <g id="Layer_5" data-name="Layer 5">
      <g>
        <path d="M754.41,529.88c1.07-.98,1.89-2.15,1.82-3.68-.05-1.03-1.98-4.09-3.31-3.93,3.94-3.42-2.11-7.57-5.62-7.24,6.11-4.67-1.01-7.39-5.72-6.62,1.74-5.82-1.5-4.97-5.39-3.13,2.86-6.37-3.44-3.81-6.62-2.39-.77-.03-.18-.86-.49-1.53-.1-.2-.42-.49-.62-.63-2.83-1.82-7.47.79-9.88,2.42.43-5.42-4.38-1.28-6.33.45.32-5.97-4.56-.92-6.69.71.46-2.56-1.36-4.74-3.61-2.48-.58.59-.72,1.22-1.12,1.72-.49.61-1.65,1.13-1.66,2.46-.98-.07-.35-1.07-1.08-1.78-1.24-1.2-3.57,1.86-3.54,3.16l-1.84-1.13c-2.66,1.19-3.19,4.78-3.62,7.37-.55-.36-.08-1.48-.2-2.13-.13-.71-.41-1.61-1.15-1.88-2.2-.61-3.36,5.71-3.29,7.26l-.5-.98c-.36-.31-1.58.06-1.91.38-1.92,1.89,1.08,10.05.29,10.83l-6.19,1.61-1.89-1.75c2.13-1.17,2.84-2.44,2.34-4.96-.15-.73-1.05-1.95-1.05-2.2,0-.31.8-.94,1.02-1.47,1.53-3.57.99-5.8-1.85-8.38,1.74-4.2.15-9.04-3.97-11.12,2.1-3.94.54-9.68-4.04-11,2.77-4.32-.74-11.84-5.98-12.3,3.67-3.89,2.02-12.08-3.75-12.53,2.32-4.16.06-10.37-5.29-9.04-.05-1.67.64-3.31.48-5-.33-3.56-3.27-7.62-7.08-5.53.3-1.58-1.73-6.75-3.01-7.36-1.27-.6-1.91.87-2.82,1.34.31-2.15.64-4.71.06-6.83-.26-.95-2.16-4.36-2.91-4.87-2.46-1.7-3.87.73-5.45,2.34-.23.23-.05.57-.75.28.68-2.59.44-5.42-.83-7.8-.74-1.36-2.83-4.46-4.62-3.94l-2.43,3.17c1.39-4.02-2.06-10.23-6.73-9-1.94.5-4.11,3.75-5.14,5.37-1.56-3.29-4.72-6.03-8.52-5.03-.87,1.04-.64,2.15-.89,3.38-1.48-.45-1.99.47-2.19,1.81-1.74-1.56-3.37-3.8-5.68-4.41-3.16-.83-1.69,2.32-2.18,2.7l-1.44.32c-3.15-5.13-3.71-2.5-4.78,1.58-1.62,6.15-2.96,13.34-3.94,19.58-.75,4.75-1.15,9.55-1.38,14.35-.46-.14-.35-.77-.7-1.23-2.92-3.83-5.34-2.77-8.8-.74-.71.42-1.77.12-1.99,1.53-2.11-.9-5.5-.8-6.97,1.29-2.3-1.16-4.8-1.32-7.31-.99-.43.06-3.12.59-3.26.67-.39.22-1.03,1.55-1.96,1.78-.47,1.01,1.78,6.31,2.1,7.75,1.53,6.84,1.72,14.71,3.08,21.78,4.2,21.75,10.79,37.89,26.25,53.87.24.26.27.74.57.99l5.96,5.46,5.42,3.46c.19.42-3.08.88-3.48.91-9.79.7-13.28-2.58-21.59-5.26-10.43-3.37-20.85.2-25.25,10.56-2.16,5.07-3.13,11.83-4.09,17.24-.24,1.32-.45,2.52-.98,3.75,1.22-.68,2.47-.12,3.66-.24,4.62-.45,6.76-3.29,10.89-4.23,8.87-2.04,17.51,1.03,25.49,4.68,12.92,5.9,26.95,17.15,41.37,17.36,10.08.16,29.16-6.66,36.6-13.42,5.11-4.64,10.14-9.21,15.42-13.66,4.89-4.11,9.6-8.61,14.96-12.06.27,0,3.46,3.17,4.14,3.68,10.32,7.61,35.92,15.44,48.58,12.27,2.51-.62,5.23-2.84,3.08-5.46,2.72-1.11,8.35-3.53,5.62-7.14,4.01-1.89,10.57-5.03,6.48-10.27,1.05-.01,2.5-1.88,2.7-2.82.36-1.6-1.2-2.81-.91-3.55,4.38-2.11,3.72-6.23-.12-8.5ZM754.67,526.51c-.08,1.66-.64,1.46-1.51,2.17-4.95,4.09-16.65,5.44-22.95,4.64-4.59-.58-8.95-2.05-13.4-2.98.21-.57.72-.38,1.15-.43,2.45-.29,4.97-.17,7.44-.41,6.05-.57,11.39-1.48,17.14-3.25,1.65-.5,7.48-3,8.56-2.99,1.41,0,3.64,1.71,3.57,3.25ZM750.43,517.23c.96.47,2.62,1.94,2.07,3.1-.37.79-4.43,2.37-5.51,2.78-6.42,2.44-13.95,4.21-20.82,4.09-2.18-.04-4.37-.3-6.55-.43l7.18-1.78c3.83-1.47,7.87-2.5,11.55-4.33,4.05-2.02,7.15-5.87,12.08-3.43ZM747.65,510.83c.36.44.6,1.45.07,1.86-4.96,4.06-10.43,7.05-16.47,9.24-2.02.73-4.92,1.66-7,2.19-.61.16-1.64.07-2.34.24l11.11-6.92c1.56-1.68,3.51-2.99,5.21-4.49.68-.6,1.66-2.14,2.14-2.47,1.04-.75,6.49-.59,7.28.35ZM736.02,507.13c.49-.26,4.31-1.99,4.52-1.71,1.14,1.55-3.81,6.17-4.98,7.11-3.23,2.61-6.76,4.22-10.31,6.16-2.79,1.52-5.5,3.22-8.44,4.47-.09-.16,1.03-1.54,1.24-1.74,5.38-5.26,11.04-10.65,17.97-14.29ZM734.93,503.5c.95,1.89-7.88,6.5-9.33,7.55-1.59,1.15-3.73,2.88-5.21,4.14-1.75,1.49-3.11,3.46-5.17,4.56-.05-.59.36-.81.63-1.18,1.92-2.62,6.21-7.59,8.75-9.52,3.05-2.32,6.86-3.9,10.33-5.55ZM719.61,505.37c1.1-.88,5.4-3.91,6.56-3.86.57.03,1.21.47,1.84.47-1.47,3.5-5.45,4.63-8.21,6.68-3.11,2.31-5.95,5.76-9.31,7.76.03-1.15,1.1-1.54,1.7-2.29,2.36-2.96,4.43-6.39,7.42-8.76ZM715.79,503.91c-.66.94.2,1.96-.56,2.62-1.76,1.54-3.64,3.09-5.06,5.08l-5.11,5.43c.33-1.06,1.11-2.11,1.73-3.04,2.43-3.64,5.58-7.4,9-10.09ZM709.82,503.18c1.01,3.05-1.63,4.71-3.25,6.73-1.12,1.37-2.28,2.82-3.21,4.33-.56-.02-.16-.71-.05-1.02,1.26-3.62,4.18-7.06,6.51-10.04ZM703.7,502.43c.36.06.46,1.88.31,2.31-.99,2.72-3.79,6.47-5.21,9.27-1.28,2.55-2.49,5.19-3.35,7.91l-.11-1.1c2.36-6.21,3.38-13.63,8.36-18.39ZM691.93,523.08c.44-1.83.72-3.7,1.14-5.46.53-2.25,1.47-4.54,1.87-6.84l.97-2.21c-1.63,5.75-1.69,11.84-4,17.4l-.84-.43c1.23.3.68-1.71.86-2.46ZM686.01,517.79c.05-2.01.3-3.86.87-5.8.46.29.62,1.56.66,2.06.11,1.42-.4,3.79-.27,4.98.06.5.73.98.76,1.56.06,1.22-1.26,4.25-1.17,5.77-.5-.41-.54-1.73-.6-2.36-.19-1.81-.29-4.39-.25-6.21ZM683.48,518.9c-.88,1.36,1.18,3.21,1.24,3.58.18,1.11-.03,2.96.22,4.17l-.99-.48-1.1-6.97.63-.3ZM674.79,529.26c.39.84-2.39,1.36-2.91,1.35-8.71-.23-20.88-3.95-28.94-7.31l-3.68-1.8c3.58.69,7.21,1.15,10.79,1.86,5.41,1.08,10.83,2.56,16.23,3.45,1.4.23,3.74.08,4.99.32,1.21.24,2.47,1.55,3.52,2.13ZM671.57,536.16c-7.08-1-15.15-6.01-22.46-7.08l-4.22-2.22,11.2,2.9c2.23.41,4.48.71,6.71,1.14,2.3.45,4.23.65,6.48,1.02,2.12.34,4.02,1.68,4.03,3.94-.59-.03-1.17.38-1.74.3ZM666.19,539.96c-7.87-1.94-15.59-4.81-23.52-6.64-1.77-.41-7.54-.86-8.49-1.87-.15-.15-1.77-3.79-1.59-3.93,5.11,1.85,10.27,3.74,15.5,5.2,5.01,1.4,10.78,2.88,15.85,4.03,1.54.35,6.86.76,7.56,1.61,2.06,2.52-4.22,1.86-5.31,1.6ZM672.5,525.43c-5.34-.31-11.38-2-16.76-2.61l-14.23-3.44c.02-.54.74-.16,1.11-.11,3,.41,5.97.66,8.97,1.03,6.13.74,14.13,2.66,20.15,1.4.75-.15,1.66-1.03,2.25-.97,1.24.11,2.25,4.91-1.49,4.7ZM673.04,519.41c-1.07.41-6.02.42-7.42.4-3.51-.05-8.23-.28-11.7-.74-8.36-1.11-16.28-3.9-24.52-5.55l2.69-.15c9.47,1.05,19.21,3.08,28.76,2.68,4.86-.21,9.9-.69,13.16-4.73,2.67,1.99,2.26,6.84-.97,8.09ZM671.72,501.22c2.38,2.14,3.12,7.53.55,9.69-4.72,3.97-20.64,3.09-26.71,2.32-3.4-.43-6.65-1.49-9.95-2.08-3.08-.55-6.25-.59-9.32-1.3.08-.43.97-.45,1.35-.53,11.06-2.2,23.49-1.93,34.7-3.65,3.32-.51,7.42-1.54,9.38-4.45ZM667.23,489.54c3.43,2.49,3.91,7.47.74,10.51-3.51,3.36-20.24,4.28-25.57,4.89-7.46.86-14.88,1.62-22.27,2.7-.39.06-.87,0-1.27-.02,1.12-.88,2.62-1.62,3.91-2.21,9.43-4.3,20.7-5.41,30.66-9,.96-.35,1.9-.98,2.8-1.33,3.84-1.5,7.95-2.55,11-5.54ZM664.63,479.45c.23.35,1.37,2.97,1.45,3.38.93,4.93-4.49,8.55-8.39,10.09-11.46,4.52-24.74,6.55-36.61,9.71-.48.12-2.19,1.19-2.44.88,2.17-1.97,4.65-3.6,7.14-5.17,10.1-6.35,20.76-12.67,31.22-18.44,2.86-1.59,5.08-4.43,7.63-.45ZM659.68,466.04c2.56,2.92,1.62,6.98-.9,9.6-.26.27-.67.3-.85.47-5.31,5.03-12.04,8.06-18.26,11.7-6.74,3.95-13.62,7.84-20.37,11.91-.51.31-3.49,2.75-3.84,2.3,1.63-1.67,3.16-3.44,4.82-5.07,9.51-9.3,20.17-17.94,30.13-26.81.83-.73,1.8-1.29,2.86-2.36.54-.55,2.35-2.94,2.53-3.02,1.26-.61,3.01.29,3.88,1.28ZM652.52,455.36c2.57-.88,4.22,2.8,3.9,4.84-.59,3.73-5.32,7.58-8.08,10.04-.36.33-.84.37-1.06.57-10.21,9.08-20.52,18.05-30.45,27.28l-3.95,4.42c4.05-8.25,11.18-14.9,17.42-21.57,3.69-3.96,8.73-8.54,12.46-12.98,3.41-4.05,6.4-8.51,9.76-12.6ZM647.7,444.52c2.78,1.28,3.3,5.41,2.61,8.08-1.76,6.83-7.29,12.1-11.88,16.97-5.38,5.69-11.26,10.9-16.03,17.16l-13.82,15.34c2.19-5.64,4.97-11.24,8.4-16.24,4.28-6.23,10.23-11.56,14.85-17.5,3.93-5.05,8.34-11.47,11.84-16.85,1.46-2.23,2.46-4.79,4.03-6.96ZM641.42,437.49c1.4,1.96,2.61,5.16,2.08,7.66-1.17,5.47-9.73,18.12-13.45,22.74-.06.08-.39.08-.53.26-8.28,10.26-16.99,19.4-23.23,31.24l-2.06,2.55c.87-3.39,2.26-7.17,3.77-10.35,7.04-14.85,17.61-27.59,26.22-41.44.85-1.37,1.43-3.03,2.25-4.37,1.63-2.65,4.26-5.15,4.95-8.29ZM635.58,427.1c4.45,4.94,2.15,12.7-.66,17.99-1.45,2.74-3.87,5.42-5.52,8.04-2.89,4.57-5.62,9.24-8.55,13.79-2.84,4.42-6.29,9.18-9.18,13.63-2.55,5.37-5.66,10.58-8.23,15.92-.23.48-.33.99-.4,1.51-.52-.01-.2-.79-.13-1.13.35-1.7,1.09-3.63,1.51-5.35,2.17-8.87,4.92-17.13,9.09-25.38,3.83-7.58,9.45-13.54,12.53-21.55.68-1.78,1.08-3.98,1.8-5.78,1.77-4.47,4.6-8.18,7.74-11.69ZM625.56,418.17c2.29,1.82,3.5,4.73,3.49,7.65-.02,13.02-12.79,30.52-18.5,42.15-4.45,9.06-8.53,18.86-10.09,28.77l-1.55,5.21v-7.33s2.01-11.54,2.01-11.54c3.76-15.76,11.7-30.41,16.7-45.57,2.19-6.62,2.8-14.16,7.94-19.34ZM610.5,419.46c.19-.59,2.44-4.39,2.91-4.97,2.51-3.08,5.33-3.35,7.05.61.91,2.1.15,6.24-.38,8.5-5.24,22.69-19,43.33-22.52,66.71l-1.37,9.29-.39-3.79c-.64-19.38,4.8-37.11,10.17-55.57,1.63-5.59,3.52-9.83,4.3-15.86.18-1.33-.14-3.83.23-4.92ZM599.8,435.99c.5-4.01-.04-9.25.68-12.99.65-3.46,2.44-6.96,2.5-10.67,6.58.17,6.3,6.93,5.76,11.8-.74,6.59-3.3,12.27-5.1,18.49-2.73,9.42-4.97,18.9-7.46,28.38-.24.95-.93,1.61-1.11,2.62-.62,3.52-.16,7.68-.39,11.21-.43,6.92-1.47,13.76-1.41,20.69l-1.02.58c.17-.94.15-1.92.09-2.86-.94-14.15-1.2-28.05,1.76-41.98,1.81-8.5,4.62-16.55,5.7-25.27ZM592.67,423.97c.23-3.43-.01-6.88.08-10.29,4.54,1.25,5.73,5.2,6.02,9.47,1.05,15.65-5.22,30.49-7.71,45.65-1.94,11.75-.97,24.25-1.14,36.14l-.62,2.83c-.39-.7-.7-1.52-.93-2.27-6.08-19.73-1.52-45.24,1.6-65.26.87-5.56,2.33-10.57,2.7-16.27ZM580.31,464.12c.37-15.01,1.98-29.81,5.12-44.39.37-1.76,1.24-3.69,1.6-5.49,3.06,3.12,3.4,7.8,3.17,12-.32,5.86-1.64,10.51-2.76,16.05-3.42,17.02-4.58,32.06-3.29,49.38.44,5.88,1.33,11.7,2.8,17.41l-2.59,1.89c-.22-.22-.3-.5-.4-.78-.57-1.69-1.08-4.86-1.41-6.73-2.16-12.3-2.54-26.83-2.24-39.34ZM571.31,453.48c2.48,3.14,5.72,15.81,6.22,19.98.72,5.99-.1,12.49.13,18.54.12,3.47.89,7.42.85,10.85,0,.38.34.46-.38.78-.65-.04-.96-.06-1.22-.73-.32-.86-.2-5.07-.33-6.42-.54-5.28-1.49-10.57-2.58-15.76-.08-.41.03-.82.06-1.23l-1.21-.22c.04-.8.13-.78.8-.94-1.08-4.23-1.81-8.57-3.09-12.75-1.12-3.66-2.85-8.8-5.11-11.83-.44-.59-1.24-1.39-1.9-1.73,2.32-1.42,6.06-.69,7.76,1.46ZM551.95,452.19c3.22-.76,6.06-.75,8.97,1.01,5.98,3.61,7.58,12.26,9.25,18.52,2.43,9.12,5.25,21.17,4.74,30.69-.02.34-.26.59-.32.92-.81-.43-1.05-1.33-1.6-1.93-2.34-2.59-2.78-2.99-4.06-6.46-4.63-12.52-5.17-28.23-13.46-38.69-.31-.39-3.76-3.84-3.52-4.06ZM554.7,479.13c-1.07-6.07-1.26-12.43-2.51-18.47-.38-1.84-1.37-3.85-1.77-5.62-.06-.28.07-.62-.05-.94.13-.06,1.68.86,1.9,1.06,5.94,5.15,8.7,15.11,10.26,22.72,1.57,7.66,1.9,15.55,4.03,23.11-3.51-1.03-7.09-3.41-8.54-6.9-1.26-3.04-2.69-11.38-3.32-14.96ZM580.3,534.58c-9.07-9.52-15.84-20.47-20.09-32.98.74-.22,1.34.87,1.96,1.28,1.93,1.26,5.24,3.1,7.38,3.87,2.96,1.06,6.32,1.27,9.37,2.06l.79,9.42c1,6.16,2.32,12.56,5.25,18.14.9,1.72,2.42,3.47,3.27,5.28-2.88-1.86-5.56-4.58-7.93-7.07ZM655.06,572.17c-.68.95-1.15,2.35-1.79,3.14-.49.62-4.51,3.28-5.48,3.94-10.96,7.33-24.45,11.49-37.76,8.41-2.72-.63-9.04-4.33-11.49-6.02-5.12-3.54-8.94-8.59-14.15-11.81-10.75-6.62-18.63-6.53-30.44-3.69-1.54.38-4.18,1.73-5.78,1.64-.15-.01-.01-.52-.39-.78-1.14-.77-3.1-1.18-4.45-1.92-1.13-.62-2.01-1.63-3.21-2.14.97-1.83.88-4.1,1.42-6.12.64-2.4,2.61-7.54,4.37-9.19,4.14-3.88,10.34-6.72,16.15-5.56,9.89,1.99,17.58,8.67,28.77,6.12,1.19-.27,4.59-1.72,3.87-3.24-.14-.29-.82-.42-1.11-.81-.23-.33-.82-1.72-1.03-2.21-2.9-6.77-4.61-15.5-6.3-22.71-.38-1.63-.9-3.28-1.39-4.88.28-.26.79.05,1.25-.1,8.93-2.94,14.41-4.73,23.69-.93,14.93,6.13,20.57,20.88,31.72,31.47,4.61,4.37,8.86,6.4,15.41,5.84,4.28-.36,10.07-4.32,9.76-9.02,2.93.84,8.7-.19,6.06-4.25,3.5-.41,2.68-3.35.57-5.06,1.03-.42,2.07-1.39,2.97-1.84,4.17-2.03,12.42-3.16,17.16-3.15.91.01,1.43.77,2.82-.23l14.26,1.56c-1.51,2.18-4.04,3.82-6.24,5.32-16.67,11.35-37.37,21.54-49.24,38.22ZM738.43,565.28c-.95.82-5.19,1.14-6.53,1.11-8.1-.22-18.02-2.83-25.46-5.74-2.92-1.15-5.22-2.89-8.13-4.14l-1.79-1.27c5.45,1.7,11.07,4.92,16.56,6.33,6.23,1.59,16.54,2.48,22.97,1.94.64-.05,1.88-.68,2.42-.53.88.26.62,1.75-.04,2.3ZM744.24,558.78c-8.44,6.74-35.92.32-44.17-6.43l-6.08-4.11c6.74,2.1,13.46,4.4,20.38,5.88,7.52,1.61,17.24,2.69,25.04,2.12,1.49-.11,6-1.68,6.18.6-.07.68-.82,1.52-1.35,1.94ZM746.55,553.16c-1.62.66-5.21,1.42-6.97,1.44-11.82.15-24.62-3.33-35.66-7.09-.57-.19-5.52-1.35-5.37-2.07,1.68-1.31,3.06-.22,4.52.01,7.95,1.26,16.49,1.77,24.53,2.74,5.41.65,13.85.4,19.13-.83,1.02-.24,3.29-1.31,4.14-1.34.36,0,.69.02.97.28,2.58,2.93-2.99,5.92-5.29,6.86ZM740.72,546.75c-7.14.56-17.16-1.39-24.23-3.01-3.78-.87-7.62-2.52-11.46-3.27.41-.72,1.27-.76,2-.75,3.05.01,6.85.79,10,.97,9.41.54,19.33,1.01,28.66-.19,1.93-.25,8.34-2.64,8.26.62-.08,3.54-10.48,5.42-13.23,5.63ZM753.26,537.34c-8.01,3.26-24.87,2.56-33.21.43-1.13-.29-8.26-2.83-8.64-3.37-.85-1.24,2.5-.18,2.68-.16,11.8,1.66,23.76,1.95,35.26-1.71.88-.28,1.74-1.03,2.57-1.19,4.24-.79,5.67,4.23,1.34,6Z"/>
        <path d="M546.91,584.72c-2.54.07-4.66-2.12-6.26-3.92-3.35-3.77-8.42-9.85-11.23-13.93-.64-.93-4.03-7.43-4.46-7.51-.91.53-1.73,1.43-2.74,1.77-4.14,1.39-12.63,2.44-16.73,1-1.85-.65-3.84-2.62-1.82-4.29.55-.46,5.02-1.96,5.94-2.16,4.34-.94,8.9.25,13.28.35-1.5-.88-3.46-1.72-5.11-2.26-4.15-1.38-11.13-2.21-14.46-4.74-.93-.71-2.38-2.03-2.07-3.32.45-1.84,3.3-1.54,4.83-1.48,3.78.16,7.52,1.22,10.83,3.1l-2.71-4.08c-2.77-3.21-9.32-10.97-7.94-15.41.12-.39.34-.74.64-1.02,1.99-.4,3.38.45,4.84,1.66,3.57,2.94,8.16,10.54,10.08,14.74.43.93.51,2.24,1.22,3,.34-5.28.13-10.96,1.57-16.13.71-2.55,3.37-6.18,6.07-3.73,4.07,3.69,1.57,17.26.43,22.07-.64,2.69-1.46,5.51-3.48,7.47,3.2,3.44,5.65,7.35,8.5,11.07.55,1.2-1.23,6.12-.57,6.77.57.57,4.49.56,5.82.99,1.89.6,4.94,5.3,5.72,7.17.43,1.03.44,1.82-.18,2.84Z"/>
        <path d="M606.36,554.19c2.31.17,4.54.94,6.84,1.21,6.88.8,15.79-.47,22.72-1.34.95-.12,5.26-1.06,5.72-.86.84.38,1.01,1.18-.2,1.47-7.78,1.88-25.87,3.58-33.36,1.37-.92-.27-2.17-.66-1.71-1.86Z"/>
        <path d="M559.34,551.3c.61,1.38-1.93.85-2.26,1.15.46,2.19-1.67,3.92-3.68,3.43-.73-.18-1.01-.96-1.44-1.1-.51-.18-1.27.39-1.58-.54.87-2.34,3.86-5.05,6.51-4.31.13.04,2.38,1.23,2.43,1.36Z"/>
      </g>
      <text class="cls-6" transform="translate(320.54 558.93) rotate(-21.95)"><tspan x="0" y="0">10</tspan></text>
      <text class="cls-6" transform="translate(384.55 748.17) rotate(-21.95)"><tspan x="0" y="0">10</tspan></text>
      <text class="cls-6" transform="translate(841.09 575.81) rotate(-21.95)"><tspan x="0" y="0">10</tspan></text>
      <text class="cls-6" transform="translate(763.5 377.45) rotate(-21.95)"><tspan x="0" y="0">10</tspan></text>
      <polygon class="cls-7" points="327.47 588.51 459.37 541.95 487.18 626.47 352.36 672.48 327.47 588.51 327.47 588.51"/>
      <line class="cls-5" x1="425.32" y1="440.71" x2="520.88" y2="711.55"/>
      <rect class="cls-7" x="742.25" y="305.28" width="39.21" height="301.32" transform="translate(-112.06 299.2) rotate(-20.73)"/>
    </g>
    <path class="cls-9" d="M294.5,542.62l-4.82,1.65-12.85-41.53-3.24-10.49-15.81-8.93,28.01,8.01c1.08.32,2.16.62,3.22.92,3.21.89,6.37,1.7,9.46,2.43,1.07.25,2.12.5,3.18.73.69.16,1.38.31,2.06.45.09.03.18.05.27.06.82.18,1.63.35,2.44.52,2.54.53,5.04,1.01,7.48,1.46.99.18,1.98.35,2.95.52.98.17,1.95.34,2.91.5,1.18.2,2.34.39,3.49.57,5.59.89,10.89,1.64,15.88,2.36,1.54.22,3.05.44,4.52.67.81.12,1.6.24,2.39.37,3.09.47,6.04.96,8.83,1.51.37.07.74.14,1.1.22.4.07.8.15,1.2.24.59.11,1.17.24,1.74.37.54.12,1.08.24,1.61.38.44.1.87.21,1.3.32.47.11.93.23,1.38.35,1.24.34,2.44.7,3.61,1.08.02.01.06.02.09.03.57.19,1.13.38,1.68.59.59.21,1.17.43,1.74.66.53.22,1.06.44,1.57.68.42.18.83.37,1.23.58.07.03.14.06.21.11.15.06.3.14.45.23.4.19.78.4,1.16.61.14.08.29.16.44.24.15.09.31.17.46.25.74.39,1.56.79,2.45,1.2.25.12.51.24.78.36.53.24,1.1.49,1.68.73.23.1.47.2.71.3.48.21.97.41,1.48.61.26.11.51.21.77.31,1.39.55,2.86,1.12,4.43,1.69.7.26,1.41.52,2.14.78,1.16.42,2.37.84,3.61,1.26.57.2,1.15.4,1.74.6.33.11.67.22,1.01.34.18.05.36.11.54.18.18.06.36.12.55.18.66.21,1.32.43,2,.65,1.84.6,3.75,1.21,5.72,1.82.53.16,1.07.33,1.62.5,1.08.33,2.18.67,3.29,1,.73.22,1.46.43,2.19.66,1.93.57,3.9,1.14,5.89,1.7.74.22,1.48.43,2.22.64,1.96.55,3.94,1.1,5.93,1.64.79.22,1.59.44,2.39.65.67.18,1.33.36,1.99.54l1.83.48,2.07.54c.75.2,1.51.39,2.26.58.91.24,1.83.47,2.74.7,1.15.29,2.29.58,3.43.86,3.3.82,6.58,1.61,9.83,2.36.71.17,1.41.33,2.12.49,1.3.3,2.6.59,3.89.88.74.16,1.47.32,2.19.48.38.08.77.16,1.15.25,3.43.74,6.77,1.42,9.99,2.04.71.14,1.42.27,2.11.4,1.15.22,2.28.43,3.39.62.49.09.98.17,1.46.25.42.08.83.15,1.24.21.06.02.13.03.19.03.59.1,1.17.2,1.74.29.32.05.63.1.95.15.62.1,1.24.19,1.84.28.31.05.61.09.91.13.46.07.93.13,1.38.19.23.04.46.07.69.09.35.05.7.1,1.05.14.11.02.22.03.33.04.56.07,1.1.13,1.64.19.51.06,1,.11,1.49.16,1.33.13,2.58.23,3.75.3.42.02.83.04,1.22.05.81.04,1.57.05,2.28.04.29,0,.59-.02.91-.04.16-.01.32-.02.49-.04.5-.04,1.03-.1,1.58-.19.22-.03.45-.07.68-.11.58-.1,1.19-.22,1.82-.36.27-.06.55-.12.83-.19.37-.09.75-.18,1.14-.29.26-.07.52-.14.79-.22.83-.23,1.68-.49,2.56-.77.29-.09.59-.19.88-.3.56-.18,1.12-.38,1.69-.6.02,0,.04-.01.06-.02.55-.2,1.11-.41,1.67-.64.58-.23,1.17-.47,1.77-.73.6-.25,1.2-.51,1.8-.79.75-.34,1.5-.7,2.26-1.07.41-.2.81-.41,1.22-.62.45-.23.9-.46,1.36-.71.37-.2.74-.4,1.11-.61.37-.2.73-.41,1.1-.63.41-.23.81-.47,1.22-.72.33-.19.66-.4.99-.61.74-.45,1.47-.92,2.19-1.42.34-.22.67-.45,1-.68.39-.27.78-.54,1.16-.83,1.2-.86,2.37-1.77,3.51-2.73.44-.37.88-.74,1.31-1.12.34-.3.67-.59.99-.9.32-.28.63-.58.93-.87.33-.32.66-.65.99-.98.22-.22.44-.44.65-.67.24-.25.48-.5.71-.76.42-.46.83-.92,1.23-1.39.25-.28.48-.56.71-.85.34-.42.68-.85,1.01-1.28.18-.23.35-.45.51-.69.16-.21.31-.42.46-.63.31-.44.61-.89.91-1.35.3-.45.59-.91.86-1.38.22-.36.43-.73.64-1.1s.41-.74.6-1.12c.15-.28.29-.56.43-.85.27-.58.54-1.16.79-1.74.13-.29.25-.59.36-.89.31-.79.59-1.6.85-2.41.07-.19.13-.38.18-.58.06-.17.11-.34.15-.52.09-.32.18-.64.25-.97.03-.14.06-.29.1-.43.02-.03.03-.07.03-.11.05-.19.1-.38.13-.58.05-.19.09-.39.12-.59.08-.43.16-.86.23-1.3.07-.45.13-.9.18-1.36.11-.93.18-1.87.21-2.83.01-.09.01-.18.01-.28.02-.63.02-1.26,0-1.91-.01-.32-.02-.64-.04-.96,0-.05,0-.09-.01-.13-.01-.28-.03-.57-.06-.85-.05-.69-.12-1.38-.22-2.09-.03-.26-.07-.52-.12-.79-.02-.18-.05-.36-.09-.55-.04-.24-.08-.49-.13-.73-.14-.76-.31-1.54-.51-2.32-.11-.42-.22-.85-.34-1.28-.08-.31-.17-.62-.27-.93-.04-.15-.09-.3-.14-.46-.04-.15-.1-.31-.15-.47-.59-1.82-1.32-3.68-2.2-5.58-.08-.19-.17-.38-.27-.58-.19-.41-.4-.83-.61-1.25-.26-.52-.53-1.04-.81-1.56s-.57-1.04-.87-1.57c-7.66-13.36-19.54-23.79-33.54-30.18-.51-.23-1.03-.47-1.56-.7-.97-.42-1.98-.85-3.02-1.28-.54-.22-1.09-.45-1.65-.66-.45-.19-.9-.37-1.36-.54-.92-.36-1.86-.72-2.83-1.09-9.27-3.47-20.69-7.09-33.5-10.82-2.56-.75-5.18-1.5-7.86-2.26-1.32-.37-2.66-.75-4.01-1.12-1.35-.38-2.72-.76-4.1-1.14-1.84-.51-3.7-1.02-5.57-1.53-2.94-.8-5.91-1.6-8.93-2.41-1-.27-2.01-.54-3.02-.81l48.38-18.17,125.82-47.25c-17.09-9.69-49.86-28.99-91.86-57.27-62.8-42.27-77.03-50.4-98.7-55.28-21.68-4.88-113.82,28.19-220.05,38.48-106.22,10.3-164.25-18.42-164.25-18.42v216.79s28.76,4.87,39.06,10.84c79.04,81.71,195.53,65.76,200.37,65.05.11-.01.16-.02.16-.02h.01s1.06.61,1.06.61h.02s19.44,11.02,19.44,11.02c.65.24,1.31.47,1.97.69l6.32,1.65,5.22.65h.01l7.5-.42-18.87-53.9-1.77,29.67Z"/>
    <path class="cls-3" d="M319.66,565.66c-1.49.53-3,.93-4.52,1.19"/>
    <path class="cls-3" d="M298.52,494.66s-.03.01-.05.02"/>
    <path class="cls-3" d="M76.85,444.8c19.4,42.84,70.23,69.11,130.58,69.1,1.66,0,3.32-.02,4.99-.06.84-.01,1.67-.04,2.52-.08.54-.01,1.08-.04,1.62-.06.6-.02,1.2-.05,1.81-.09.98-.04,1.97-.1,2.96-.17.86-.06,1.73-.12,2.61-.19.76-.05,1.52-.12,2.28-.19,3.91-.34,7.86-.79,11.82-1.36,1.49-.21,2.98-.44,4.47-.68.42-.06.84-.13,1.26-.21.91-.15,1.83-.31,2.74-.48.66-.11,1.32-.23,1.98-.37.87-.16,1.75-.33,2.63-.51.88-.17,1.75-.36,2.63-.55.77-.16,1.55-.33,2.32-.51,1.22-.26,2.43-.55,3.65-.85.65-.15,1.31-.31,1.96-.48.3-.07.61-.14.91-.23.15-.03.31-.07.47-.12.42-.1.84-.21,1.27-.33"/>
    <path class="cls-3" d="M239.99,458.09s-4.34,17.06,39.02,31.15c2.29.74,4.55,1.44,6.78,2.09,1.08.32,2.16.62,3.22.92"/>
    <path class="cls-3" d="M312.07,352.66c2.82,5.69,49.76,46.13,106.23,60.92,5.53,1.45,10.99,2.89,16.36,4.32"/>
    <path class="cls-3" d="M376.87,397.93c21.89-17.91,35.29-47.64,43.22-85"/>
    <path class="cls-3" d="M396.17,382.52c44.65,9.62,73.35-6.91,86.11-49.6"/>
    <path class="cls-3" d="M450.98,377.45c8.02,10.79,18.71,18.22,32.06,22.28"/>
    <path class="cls-8" d="M291.35,489.89c-4.79-1.41-11.7-2.69-14.84-5.73.22,6.18.22,12.39.32,18.58l-3.24-10.49-15.81-8.93,5.28,23.39,10.37,45.96,30.41,86.95.32.92.37-.29,15.82-12.55,4.15-3.29,8.45-6.7s1.09-.87,1.1-.87l1.47-1.17s-18.54-49.21-18.54-49.21c-3.08-8.17-6.16-16.34-9.23-24.5-1.93-5.12-6.6-12.67-6.83-18.11-.25-5.8,12.19-13.25,16.5-17.01,1.06-.93,2.2-1.99,2.38-3.39.33-2.61-2.64-4.27-5.11-5.17-7.16-2.6-14.32-5.19-21.48-7.79-.57-.21-1.19-.4-1.85-.6Z"/>
  </g>
  <g id="Layer_2" data-name="Layer 2">
    <polyline class="cls-2" points="434.66 417.9 483.04 399.73 608.86 352.48 645 338.91 701.43 317.71 703.09 317.09 707.44 315.46 726.89 308.15 841.09 265.27 860.98 257.8 917.22 418.3 917.24 418.35 940.3 484.16 960.98 543.17 957.3 544.58 917.83 559.68 828.39 593.91 786.53 609.92 512.63 714.73 384.15 763.9 332.95 617.71 329.97 609.19 329.95 609.15 315.14 566.85 296.27 512.95 290.94 497.74 289.01 492.25"/>
    <path d="M510.43,525.01c-13.56,1.52-27.55-1.04-39.58-7.65-3.03-1.65-5.99-3.47-8.73-5.58-1.54-1.01-3.3-2.88-4.08-4.73-.83-1.6-1.03-3.9-1.37-5.62-2.37-15.08,1.71-30.49,12.05-41.91,2.14-2.43,5.38-3.71,8.57-3.72,3.43-.23,6.87-.23,10.29-.01,13.69.75,26.96,4.49,39.11,10.15-16.22-4.13-32.52-6.67-48.97-4.9-1.84.07-3.64.69-4.8,2.15-8.73,10.52-12.44,23.96-10.64,37.5.1.59.34,2.82.48,3.34.44,1.59,1.17,2.56,2.59,3.62,12.62,10.62,28.7,16.24,45.08,17.36h0Z"/>
    <path class="cls-2" d="M296.09,564.97c-.66-.22-1.32-.45-1.97-.69"/>
    <path class="cls-2" d="M273.6,552.66h-.01s-.05,0-.16.01c-4.84.71-121.33,16.66-200.37-65.05-10.3-5.97-39.06-10.84-39.06-10.84v-216.79s58.03,28.72,164.25,18.42c106.23-10.29,198.37-43.36,220.05-38.48,21.67,4.88,35.9,13.01,98.7,55.28,42,28.28,74.77,47.58,91.86,57.27"/>
    <path d="M298.52,494.66c.21.42,1.64,3.31,1.76,3.59-.95-1.83-2.69-5.3-3.58-7.15,0,0,.04.06.1.19.18.34,1.51,2.97,1.71,3.38h0Z"/>
    <path d="M291.06,497.69c.73,1.49,1.03,2.29,1.22,2.89.34,1.11.09,1.23-.38.15-.43-.73-1.49-5.26-1.86-6.01-.22-.56-.37-.78-.43-.76.02.94.63,2,1.45,3.73h0Z"/>
    <path d="M76.85,444.8c31.56,54.77,100.6,70.07,159.5,65.03,9.38-.65,18.69-1.99,27.98-3.45-8.84,3.26-18.08,5.76-27.43,7.51-43.79,8.33-92.57,1.62-128.49-26.28-14.07-11.09-25.69-25.8-31.56-42.81h0Z"/>
    <path class="cls-4" d="M312.07,352.66c.04.08.09.17.15.26.04.08.09.15.15.24.22.32.52.7.91,1.15.28.33.61.7.99,1.1.12.13.25.27.39.41l.05.05.06.06s.04.05.07.07c.02.03.05.05.08.08.12.14.27.29.42.44.14.14.29.29.44.43.23.23.47.46.71.69.74.71,1.56,1.47,2.47,2.28.21.19.42.38.64.58.41.36.84.73,1.28,1.11.34.3.69.59,1.04.89,4.97,4.22,11.64,9.38,19.64,14.85,1.14.78,2.31,1.57,3.51,2.36,2.23,1.48,4.55,2.97,6.96,4.46.49.31.99.62,1.49.92,1.06.65,2.13,1.3,3.22,1.95,1.95,1.16,3.94,2.32,5.98,3.46.7.4,1.41.79,2.13,1.19.82.45,1.65.91,2.49,1.36.62.33,1.24.66,1.87.99.82.44,1.65.87,2.48,1.3.58.3,1.17.6,1.75.89.59.3,1.18.59,1.77.89.55.28,1.11.55,1.66.81.23.12.47.23.7.35.23.11.47.22.7.34l1.08.51c.98.47,1.96.93,2.95,1.38.22.11.45.21.67.31,1.06.49,2.14.97,3.22,1.44,2.5,1.1,5.03,2.16,7.61,3.19.52.21,1.05.42,1.59.63.92.36,1.86.72,2.79,1.07.03,0,.05.02.08.03.63.24,1.26.47,1.9.7.83.31,1.67.61,2.52.9.44.16.89.32,1.34.47.15.05.3.1.46.15.38.13.76.26,1.15.39.73.25,1.47.49,2.2.73,1.3.41,2.59.82,3.9,1.21.55.17,1.09.33,1.63.48.54.16,1.09.31,1.64.47,1.1.31,2.2.61,3.3.9,5.53,1.45,10.99,2.89,16.36,4.32,1.01.27,2.02.54,3.02.81,3.02.81,5.99,1.61,8.93,2.41,1.87.51,3.73,1.02,5.57,1.53,1.38.38,2.75.76,4.1,1.14,1.35.37,2.69.75,4.01,1.12,2.68.76,5.3,1.51,7.86,2.26,12.81,3.73,24.23,7.35,33.5,10.82.97.36,1.91.72,2.83,1.09.46.17.91.35,1.36.54.56.21,1.11.44,1.65.66,1.04.43,2.05.86,3.02,1.28.53.23,1.05.47,1.56.7,14,6.39,25.88,16.82,33.54,30.18.3.53.59,1.05.87,1.57s.55,1.04.81,1.56c.21.42.42.84.61,1.25.1.2.19.39.27.58.88,1.9,1.61,3.76,2.2,5.58.05.16.11.32.15.47.05.16.1.31.14.46.1.31.19.62.27.93.13.43.24.86.34,1.28.2.78.37,1.56.51,2.32.05.24.1.49.13.73.04.19.07.37.09.55.05.27.09.53.12.79.1.71.17,1.4.22,2.09.03.28.05.57.06.85.01.04.01.08.01.13.02.32.04.64.04.96.02.65.02,1.28,0,1.91,0,.1,0,.19-.01.28-.02.96-.09,1.9-.21,2.83-.04.46-.1.91-.18,1.36-.06.44-.14.87-.23,1.3-.03.2-.07.4-.12.59-.03.2-.08.39-.13.58,0,.04-.01.08-.03.11-.02.15-.06.29-.1.43-.07.33-.16.65-.25.97-.04.18-.09.35-.15.52-.05.2-.11.39-.18.58-.25.82-.53,1.62-.85,2.41-.11.3-.23.6-.36.89-.25.59-.51,1.17-.79,1.74-.14.29-.28.57-.43.85-.19.38-.39.75-.6,1.12-.2.37-.41.74-.64,1.1-.27.47-.56.93-.86,1.38-.29.46-.59.91-.91,1.35-.15.21-.3.42-.46.63-.16.24-.33.46-.51.69-.32.43-.66.86-1.01,1.28-.23.29-.46.57-.71.85-.39.47-.8.93-1.23,1.39-.23.26-.47.51-.71.76-.21.23-.43.45-.65.67-.33.33-.66.66-.99.98-.3.29-.61.59-.93.87-.32.31-.65.6-.99.9-.43.38-.87.75-1.31,1.12-1.14.96-2.31,1.87-3.51,2.73-.38.29-.77.56-1.16.83-.33.23-.66.46-1,.68-.72.5-1.45.97-2.19,1.42-.33.21-.66.42-.99.61-.41.25-.81.49-1.22.72-.37.22-.73.43-1.1.63-.37.21-.74.41-1.11.61-.46.25-.91.48-1.36.71-.41.21-.81.42-1.22.62-.76.37-1.51.73-2.26,1.07-.6.28-1.2.54-1.8.79-.6.26-1.19.5-1.77.73-.56.23-1.12.44-1.67.64-.02.01-.04.02-.06.02-.57.22-1.13.42-1.69.6-.29.11-.59.21-.88.3-.88.29-1.74.55-2.56.77-.27.08-.53.16-.79.22-.39.11-.77.2-1.14.29-.28.07-.56.13-.83.19-.63.14-1.24.26-1.82.36-.23.04-.46.08-.68.11-.55.09-1.08.15-1.58.19-.17.02-.33.03-.49.04-.32.02-.62.04-.91.04-.71.01-1.47,0-2.28-.04-.39-.01-.8-.03-1.22-.05-1.17-.07-2.42-.17-3.75-.3-.49-.05-.98-.1-1.49-.16-.54-.06-1.08-.12-1.64-.19-.11-.01-.22-.02-.33-.04-.35-.04-.7-.09-1.05-.14-.23-.02-.46-.05-.69-.09-.45-.06-.92-.12-1.38-.19-.3-.04-.6-.08-.91-.13-.6-.09-1.22-.18-1.84-.28-.32-.05-.63-.1-.95-.15-.57-.09-1.15-.19-1.74-.29-.06,0-.13-.01-.19-.03-.41-.06-.82-.13-1.24-.21-.48-.08-.97-.16-1.46-.25-1.11-.19-2.24-.4-3.39-.62-.69-.13-1.4-.26-2.11-.4-3.22-.62-6.56-1.3-9.99-2.04-.38-.09-.77-.17-1.15-.25-.72-.16-1.45-.32-2.19-.48-1.29-.29-2.59-.58-3.89-.88-.71-.16-1.41-.32-2.12-.49-3.25-.75-6.53-1.54-9.83-2.36-1.14-.28-2.28-.57-3.43-.86-.91-.23-1.83-.46-2.74-.7-.75-.19-1.51-.38-2.26-.58l-2.07-.54-1.83-.48c-.66-.18-1.32-.36-1.99-.54-.8-.21-1.6-.43-2.39-.65-1.99-.54-3.97-1.09-5.93-1.64-.74-.21-1.48-.42-2.22-.64-1.99-.56-3.96-1.13-5.89-1.7-.73-.23-1.46-.44-2.19-.66-1.11-.33-2.21-.67-3.29-1-.55-.17-1.09-.34-1.62-.5-1.97-.61-3.88-1.22-5.72-1.82-.68-.22-1.34-.44-2-.65-.19-.06-.37-.12-.55-.18-.18-.07-.36-.13-.54-.18-.34-.12-.68-.23-1.01-.34-.59-.2-1.17-.4-1.74-.6-1.24-.42-2.45-.84-3.61-1.26-.73-.26-1.44-.52-2.14-.78-1.57-.57-3.04-1.14-4.43-1.69-.26-.1-.51-.2-.77-.31-.51-.2-1-.4-1.48-.61-.24-.1-.48-.2-.71-.3-.58-.24-1.15-.49-1.68-.73-.27-.12-.53-.24-.78-.36-.89-.41-1.71-.81-2.45-1.2-.15-.08-.31-.16-.46-.25-.15-.08-.3-.16-.44-.24-.38-.21-.76-.42-1.16-.61-.15-.09-.3-.17-.45-.23-.07-.05-.14-.08-.21-.11-.4-.2-.81-.39-1.23-.58-.51-.23-1.04-.46-1.57-.68-.57-.23-1.15-.45-1.74-.66-.55-.2-1.11-.4-1.68-.59-.03,0-.07-.02-.09-.03-1.17-.38-2.37-.74-3.61-1.08-.45-.12-.91-.24-1.38-.35-.43-.11-.86-.22-1.3-.32-.53-.14-1.07-.26-1.61-.38-.57-.13-1.15-.25-1.74-.37-.4-.09-.8-.17-1.2-.24-.36-.08-.73-.15-1.1-.22-2.79-.55-5.74-1.04-8.83-1.51-.79-.13-1.58-.25-2.39-.37-1.48-.22-2.98-.44-4.52-.67-4.99-.72-10.29-1.47-15.88-2.36-1.15-.18-2.31-.37-3.49-.57-.96-.16-1.93-.33-2.91-.5-.97-.17-1.96-.34-2.95-.52-2.44-.45-4.94-.93-7.48-1.46-.81-.17-1.62-.34-2.44-.52-.09-.01-.18-.03-.27-.06-.68-.14-1.37-.29-2.06-.45-1.06-.23-2.11-.48-3.18-.73-3.09-.73-6.25-1.54-9.46-2.43-1.06-.3-2.14-.6-3.22-.92-2.23-.65-4.49-1.35-6.78-2.09-43.36-14.09-39.02-31.15-39.02-31.15"/>
    <path d="M376.87,397.93c10.28-12.58,18.24-25.87,24.9-40.48,6.78-14.56,11.88-29.62,18.32-44.52-.73,31.31-14.66,69.07-43.22,85h0Z"/>
    <path d="M396.17,382.52c28.51,1.45,54.04-1.39,72.02-25.87,5.44-7.14,9.79-15.28,14.09-23.73-1.11,9.41-3.98,18.71-8.84,27.2-15.65,28.12-49.15,34.04-77.28,22.41h0Z"/>
    <path d="M450.98,377.45c6.15,3.19,10.97,6.8,16.47,10.48,5.41,3.82,10.53,7.07,15.59,11.8-13.84,2.06-29.28-8.51-32.06-22.28h0Z"/>
    <path d="M356.74,344.73c12.53,10.08,15,33.34,0,42.3.84-4,1.68-7.45,2.05-10.85,1.45-10.77-1.3-20.53-2.05-31.45h0Z"/>
    <path d="M426.23,447.78c.68,10.62-3.67,23.56-10.69,31.57-.71-10.62,3.7-23.55,10.69-31.57h0Z"/>
    <path d="M411.8,430.26c-4.1,8.08-8.7,15.46-12.05,23.69-3.45,8.2-5.2,16.38-6.12,25.4-7.65-17.81,2.83-39,18.17-49.09h0Z"/>
    <polyline class="cls-4" points="273.59 492.25 276.83 502.74 289.68 544.27 295.57 563.31 295.58 563.33 296.09 564.97 301.09 581.14 320.35 627.7 391.68 800.2 780.24 634.55 828.89 613.81 926.96 572 927.23 571.89 962.58 556.82 957.3 544.58 959.69 543.66"/>
    <polyline class="cls-4" points="273.59 492.25 257.78 483.32 262.59 506.83 269.96 542.9 273.43 552.67 281.51 575.43 281.66 575.86 304.53 640.25 371.35 828.38 517.09 767.31 787.46 654.02 813.9 642.95 940.3 589.98 926.96 572"/>
  </g>
</svg>